<?xml version="1.0" encoding="utf-8"?>
<svg viewBox="0 0 500 500" xmlns="http://www.w3.org/2000/svg">
  <defs>
    <radialGradient gradientUnits="userSpaceOnUse" cx="603.582" cy="401.914" r="269.454" id="gradient-1" gradientTransform="matrix(0.680585, 0, 0, 0.904537, 197.548859, 68.484565)">
      <stop offset="0" style="stop-color: rgba(0, 0, 0, 1)"/>
      <stop offset="1" style="stop-color: rgba(108, 164, 162, 0.9);"/>
    </radialGradient>
    <radialGradient gradientUnits="userSpaceOnUse" cx="391.565" cy="263.716" r="37.8" id="gradient-2" gradientTransform="matrix(1, 0, 0, 1, 13.889837, 2.818179)">
      <stop offset="0" style="stop-color: rgba(108, 145, 127, 1)"/>
      <stop offset="1" style="stop-color: rgb(35, 72, 18);"/>
    </radialGradient>
    <radialGradient gradientUnits="userSpaceOnUse" cx="596.533" cy="266.127" r="24.8" id="gradient-4" gradientTransform="matrix(1, 0, 0, 1, -133.83186, 1.642717)">
      <stop offset="0" style="stop-color: rgba(113, 154, 165, 1)"/>
      <stop offset="1" style="stop-color: rgba(68, 99, 108, 1)"/>
    </radialGradient>
    <radialGradient gradientUnits="userSpaceOnUse" cx="628.299" cy="276.161" r="24.8" id="gradient-3">
      <stop offset="0" style="stop-color: #bada55"/>
      <stop offset="1" style="stop-color: #758d29"/>
    </radialGradient>
    <radialGradient gradientUnits="userSpaceOnUse" cx="647.921" cy="344.39" r="34.238" id="gradient-0">
      <stop offset="0" style="stop-color: rgba(253, 235, 71, 1)"/>
      <stop offset="1" style="stop-color: rgba(219, 198, 2, 1)"/>
    </radialGradient>
    <radialGradient gradientUnits="userSpaceOnUse" cx="647.921" cy="344.39" r="34.238" id="gradient-5" gradientTransform="matrix(1, 0, 0, 1, 7.024367, 243.891129)">
      <stop offset="0" style="stop-color: rgba(253, 235, 71, 1)"/>
      <stop offset="1" style="stop-color: rgba(219, 198, 2, 1)"/>
    </radialGradient>
    <radialGradient gradientUnits="userSpaceOnUse" cx="596.533" cy="266.127" r="24.8" id="gradient-6" gradientTransform="matrix(1, 0, 0, 1, -10.826639, 321.080322)">
      <stop offset="0" style="stop-color: rgba(113, 154, 165, 1)"/>
      <stop offset="1" style="stop-color: rgba(68, 99, 108, 1)"/>
    </radialGradient>
    <radialGradient gradientUnits="userSpaceOnUse" cx="628.299" cy="276.161" r="24.8" id="gradient-7" gradientTransform="matrix(1, 0, 0, 1, -50.461754, 205.591247)">
      <stop offset="0" style="stop-color: #bada55"/>
      <stop offset="1" style="stop-color: #758d29"/>
    </radialGradient>
    <radialGradient gradientUnits="userSpaceOnUse" cx="628.299" cy="276.161" r="24.8" id="gradient-8" gradientTransform="matrix(1, 0, 0, 1, 109.267151, 141.849945)">
      <stop offset="0" style="stop-color: #bada55"/>
      <stop offset="1" style="stop-color: #758d29"/>
    </radialGradient>
    <radialGradient gradientUnits="userSpaceOnUse" cx="596.533" cy="266.127" r="24.8" id="gradient-9" gradientTransform="matrix(1, 0, 0, 1, -45.605213, 10.910893)">
      <stop offset="0" style="stop-color: rgba(113, 154, 165, 1)"/>
      <stop offset="1" style="stop-color: rgba(68, 99, 108, 1)"/>
    </radialGradient>
  </defs>
  <g id="illustration_1_" transform="matrix(0.496491, 0, 0, 0.445025, -63.550129, 57.928757)" style="">
    <path style="stroke: url(#gradient-1); stroke-width: 16px; stroke-linecap: round; fill: rgb(200, 229, 223);" d="M 514.761 326.103 C 479.265 367.461 422.714 364.783 421.726 429.934 C 419.369 585.314 525.44 465.431 546.955 527.109 C 569.43 591.544 488.485 694.49 502.376 739.13 C 523.393 806.665 584.675 756.878 615.843 752.239 C 654.207 746.531 682.977 799.609 705.584 770.09 C 736.145 730.184 688.077 670.697 705.869 639.159 C 735.194 587.177 760.273 683.657 789.433 618.644 C 813.374 565.269 733.596 565.836 741.736 501.262 C 751.32 425.246 855.997 409.339 802.722 305.256 C 770.22 241.753 719.009 343.275 694.142 313.089 C 685.251 302.297 715.19 203.311 645.705 182.471 C 613.805 172.903 579.308 177.562 547.101 220.505 C 523.362 252.157 539.431 297.358 514.761 326.103 Z"/>
    <path class="st5" style="fill: rgb(243, 219, 63);"/>
    <g transform="matrix(1, 0, 0, 1, 189.699097, 78.714905)">
      <circle class="st8" cx="405.454" cy="266.534" r="37.8" style="fill: url(#gradient-2);"/>
      <ellipse class="st10" cx="510.947" cy="441.732" rx="9.8" ry="13" style="fill: rgb(0, 0, 4);"/>
      <circle class="st11" cx="462.701" cy="267.77" r="24.8" style="fill: url(#gradient-4);"/>
    </g>
    <g style="">
      <circle class="st8" cx="614.993" cy="251.435" r="37.8" style="fill: rgb(124, 123, 103);"/>
      <circle class="st9" cx="615.861" cy="250.791" r="32.3" style="fill: rgb(230, 167, 136);"/>
      <ellipse class="st10" cx="546.298" cy="406.685" rx="10.1" ry="13" style="fill: rgb(0, 0, 4);"/>
      <circle class="st11" cx="628.299" cy="276.161" r="24.8" style="fill: url(#gradient-3);" transform="matrix(0.865614, 0, 0, 1, 71.747551, 118.148819)"/>
      <circle id="leftEye0_1_" cx="654.3" cy="215.1" r="0.8"/>
      <circle id="leftEye1_1_" cx="649.1" cy="211.4" r="0.8"/>
      <circle id="leftEye5_1_" cx="649.1" cy="217.4" r="0"/>
      <circle id="leftEye2_1_" cx="642.8" cy="211.4" r="0"/>
      <circle id="leftEye3_1_" cx="637.6" cy="215.6" r="0.8"/>
      <circle id="leftEye4_1_" cx="642.8" cy="216.6" r="0.8"/>
    </g>
    <g transform="matrix(1, 0, 0, 1, -2.86047, 129.687515)">
      <path class="st12" d="M 682.029 345.69 C 683.629 330.69 670.329 306.39 646.629 306.39 C 622.029 306.39 611.929 333.79 613.929 345.69 C 618.329 372.29 633.729 382.39 649.929 382.39 C 666.429 382.39 679.229 371.69 682.029 345.69 Z" style="fill: url(#gradient-0);"/>
      <circle id="rightMouthCorner_1_" cx="596.3" cy="251.9" r="0.8"/>
      <path id="rightMiddleLip_1_" d="M 606.2 253.3 C 606.6 253.3 607 253.7 607 254.1 C 607 254.5 606.6 254.9 606.2 254.9 C 605.8 254.9 605.4 254.5 605.4 254.1 C 605.4 253.7 605.8 253.3 606.2 253.3 Z"/>
      <circle id="upperLipBottomMid_1_" cx="628.3" cy="251.3" r="0.8"/>
      <circle id="lowerLipTopMid_1_" cx="628.1" cy="259.5" r="0.8"/>
      <circle id="rightUpperLipBottom1_1_" cx="613.2" cy="251.8" r="0.8"/>
      <circle id="rightLowerLipTop0_1_" cx="616.6" cy="256.2" r="0.8"/>
      <circle id="leftMouthCorner_1_" cx="657.4" cy="252.3" r="0.8"/>
      <path id="leftMiddleLip_1_" d="M 649.1 253.8 C 649.5 253.8 649.9 254.2 649.9 254.6 C 649.9 255 649.5 255.4 649.1 255.4 C 648.7 255.4 648.3 255 648.3 254.6 C 648.3 254.2 648.7 253.8 649.1 253.8 Z"/>
      <circle id="leftUpperLipBottom1_1_" cx="642.8" cy="251.5" r="0.8"/>
      <circle id="leftLowerLipTop0_1_" cx="639.3" cy="256.2" r="0.8"/>
    </g>
    <path class="st12" d="M 689.053 589.581 C 690.653 574.581 677.353 550.281 653.653 550.281 C 629.053 550.281 618.953 577.681 620.953 589.581 C 625.353 616.181 640.753 626.281 656.953 626.281 C 673.453 626.281 686.253 615.581 689.053 589.581 Z" style="fill: url(#gradient-5);"/>
    <circle class="st9" cx="580.966" cy="705.453" r="32.3" style="fill: rgb(230, 167, 136);"/>
    <circle class="st8" cx="655.761" cy="704.95" r="37.8" style="fill: rgb(124, 123, 103);"/>
    <circle class="st11" cx="585.706" cy="587.207" r="24.8" style="fill: url(#gradient-6);"/>
    <ellipse class="st10" cx="700.219" cy="485.196" rx="9.8" ry="13" style="fill: rgb(0, 0, 4);"/>
    <ellipse class="st10" cx="716.259" cy="564.567" rx="9.8" ry="13" style="fill: rgb(0, 0, 4);"/>
    <ellipse class="st10" cx="554.984" cy="202.916" rx="9.8" ry="13" style="fill: rgb(0, 0, 4);" transform="matrix(1, 0, 0, 1, -86.579499, 205.011805)"/>
    <ellipse class="st10" cx="506.612" cy="460.491" rx="9.8" ry="13" style="fill: rgb(0, 0, 4);"/>
    <ellipse class="st10" cx="564.604" cy="431.164" rx="9.8" ry="13" style="fill: rgb(0, 0, 4);"/>
    <ellipse class="st10" cx="682.221" cy="430.17" rx="9.8" ry="13" style="fill: rgb(0, 0, 4);"/>
    <circle class="st11" cx="577.837" cy="481.752" r="24.8" style="fill: url(#gradient-7);"/>
    <circle class="st11" cx="737.566" cy="418.011" r="24.8" style="fill: url(#gradient-8);"/>
    <ellipse class="st10" cx="600.171" cy="243.861" rx="9.8" ry="13" style="fill: rgb(0, 0, 4);"/>
    <ellipse class="st10" cx="629.304" cy="243.482" rx="9.8" ry="13" style="fill: rgb(0, 0, 4);"/>
    <circle class="st11" cx="550.928" cy="277.038" r="24.8" style="fill: url(#gradient-9);" transform="matrix(0.516999, 0, 0, 0.400163, 330.23999, 162.478821)"/>
    <ellipse class="st10" cx="599.967" cy="243.717" rx="6.238" ry="8.891" style="fill: rgb(254, 254, 254);"/>
    <ellipse class="st10" cx="629.39" cy="242.861" rx="6.238" ry="8.891" style="fill: rgb(254, 254, 254);"/>
    <ellipse class="st10" cx="702.748" cy="375.247" rx="9.8" ry="13" style="fill: rgb(0, 0, 4);"/>
  </g>
  <g id="skeleton_1_" transform="matrix(0.334388, 0, 0, 0.300439, 33.303604, 101.908089)" style="pointer-events: none;">
    <circle id="rightShoulder" cx="572.3" cy="365.3" r="8.2"/>
    <circle id="rightElbow" cx="519.5" cy="365.1" r="8.2"/>
    <circle id="rightWrist" cx="393.8" cy="366.1" r="8.2"/>
    <circle id="rightHip" cx="581.1" cy="564.1" r="8.2"/>
    <circle id="rightKnee" cx="575.6" cy="725.2" r="8.2"/>
    <circle id="rightAnkle" cx="575.6" cy="933.2" r="8.2"/>
    <circle id="leftShoulder" cx="681.3" cy="365.4" r="8.2"/>
    <circle id="leftElbow" cx="735.3" cy="365.1" r="8.2"/>
    <circle id="leftWrist" cx="860.6" cy="365.1" r="8.2"/>
    <circle id="leftHip" cx="673.1" cy="563.3" r="8.2"/>
    <circle id="leftKnee" cx="685.6" cy="725.2" r="8.2"/>
    <circle id="leftAnkle" cx="685.6" cy="933.2" r="8.2"/>
    <polygon class="st16" points="572.2,365.6 581,564.4 673,563.6 681.2,365.7 &#9;" style="fill: none; stroke: rgb(0, 0, 0); stroke-miterlimit: 10;"/>
    <polyline class="st16" points="571.2,365.6 519.2,365.3 393.6,366.2 &#9;" style="fill: none; stroke: rgb(0, 0, 0); stroke-miterlimit: 10;"/>
    <polyline class="st16" points="682.7,365.3 735.5,365.3 860.7,365.4 &#9;" style="fill: none; stroke: rgb(0, 0, 0); stroke-miterlimit: 10;"/>
    <polyline class="st16" points="581,564.4 575.5,725.5 575.5,933.5 &#9;" style="fill: none; stroke: rgb(0, 0, 0); stroke-miterlimit: 10;"/>
    <polyline class="st16" points="673,563.6 685.5,725.5 685.5,933.5 &#9;" style="fill: none; stroke: rgb(0, 0, 0); stroke-miterlimit: 10;"/>
    <circle id="rightEye0" cx="594.7" cy="215.1" r="0.8"/>
    <circle id="rightBrow1" cx="592.5" cy="203.2" r="0.8"/>
    <circle id="rightBrow4" cx="615.8" cy="206.2" r="0.8"/>
    <circle id="nose1" cx="623.7" cy="216.1" r="0.8"/>
    <circle id="rightBrow3" cx="606" cy="202.2" r="0.8"/>
    <circle id="rightEye1" cx="599.9" cy="211.4" r="0.8"/>
    <circle id="rightBrow0" cx="588.5" cy="206.9" r="0.8"/>
    <circle id="rightBrow2" cx="598.7" cy="202.2" r="0.8"/>
    <circle id="rightEye5" cx="599.9" cy="217.4" r="0.8"/>
    <circle id="rightEye2" cx="606.2" cy="211.4" r="0.8"/>
    <circle id="rightEye3" cx="611.4" cy="215.6" r="0.8"/>
    <circle id="nose0" cx="623.7" cy="210.3" r="0.8"/>
    <circle id="nose3" cx="623.7" cy="228.7" r="0.8"/>
    <circle id="rightNose0" cx="613" cy="233.2" r="0.8"/>
    <circle id="rightMouthCorner" cx="607" cy="255.3" r="0.8"/>
    <circle id="rightNose1" cx="618.2" cy="233.2" r="0.8"/>
    <circle id="rightUpperLipTop0" cx="613.9" cy="251.9" r="0.8"/>
    <circle id="nose2" cx="623.7" cy="221.6" r="0.8"/>
    <circle id="nose4" cx="623.7" cy="234" r="0.8"/>
    <circle id="upperLipTopMid" cx="624.5" cy="251.7" r="0.8"/>
    <circle id="rightUpperLipTop1" cx="620.4" cy="250.8" r="0.8"/>
    <path id="rightMiddleLip" d="M610.6,254.8c0.4,0,0.8,0.4,0.8,0.8c0,0.4-0.4,0.8-0.8,0.8s-0.8-0.4-0.8-0.8S610.2,254.8,610.6,254.8z "/>
    <circle id="lowerLipBottomMid" cx="624.5" cy="264.9" r="0.8"/>
    <circle id="upperLipBottomMid" cx="624.5" cy="255.3" r="0.8"/>
    <circle id="lowerLipTopMid" cx="624.5" cy="258.4" r="0.8"/>
    <circle id="rightUpperLipBottom1" cx="620.6" cy="254.8" r="0.8"/>
    <circle id="rightLowerLipTop0" cx="620.6" cy="257.7" r="0.8"/>
    <circle id="rightLowerLipBottom1" cx="620.4" cy="264.4" r="0.8"/>
    <circle id="rightLowerLipBottom0" cx="613.4" cy="261.6" r="0.8"/>
    <circle id="rightEye4" cx="606.2" cy="216.6" r="0.8"/>
    <circle id="jawMid" cx="624.5" cy="290.7" r="0.8"/>
    <circle id="rightJaw7" cx="609.5" cy="287.5" r="0.8"/>
    <circle id="rightJaw6" cx="599.5" cy="280.8" r="0.8"/>
    <circle id="rightJaw5" cx="587.9" cy="268.3" r="0.8"/>
    <circle id="rightJaw4" cx="581.1" cy="248.3" r="0.8"/>
    <circle id="rightJaw3" cx="580.3" cy="226.6" r="0.8"/>
    <circle id="rightJaw2" cx="580.3" cy="217.1" r="0.8"/>
    <circle id="rightJaw1" cx="581.1" cy="205.4" r="0.8"/>
    <circle id="rightJaw0" cx="583.6" cy="196.1" r="0.8"/>
    <circle id="topMid" cx="624.7" cy="170" r="0.8"/>
    <circle id="leftTop0" cx="644.4" cy="172.5" r="0.8"/>
    <circle id="leftTop1" cx="657" cy="182" r="0.8"/>
    <circle id="leftEye0" cx="654.3" cy="215.1" r="0.8"/>
    <circle id="leftBrow1" cx="656.2" cy="203.6" r="0.8"/>
    <circle id="leftBrow4" cx="632.6" cy="205.7" r="0.8"/>
    <circle id="leftBrow3" cx="642.6" cy="202.5" r="0.8"/>
    <circle id="leftEye1" cx="649.1" cy="211.4" r="0.8"/>
    <circle id="leftBrow0" cx="660.2" cy="206.5" r="0.8"/>
    <circle id="leftBrow2" cx="649.9" cy="202.1" r="0.8"/>
    <circle id="leftEye5" cx="649.1" cy="217.4" r="0.8"/>
    <circle id="leftEye2" cx="642.8" cy="211.4" r="0.8"/>
    <circle id="leftEye3" cx="637.6" cy="215.6" r="0.8"/>
    <circle id="leftNose0" cx="634.1" cy="233.2" r="0.8"/>
    <circle id="leftMouthCorner" cx="642" cy="255.3" r="0.8"/>
    <circle id="leftNose1" cx="629.3" cy="233.2" r="0.8"/>
    <circle id="leftUpperLipTop0" cx="635.1" cy="251.9" r="0.8"/>
    <circle id="leftUpperLipTop1" cx="628.7" cy="250.8" r="0.8"/>
    <path id="leftMiddleLip" d="M638.4,254.8c0.4,0,0.8,0.4,0.8,0.8c0,0.4-0.4,0.8-0.8,0.8s-0.8-0.4-0.8-0.8S638,254.8,638.4,254.8z"/>
    <circle id="leftUpperLipBottom1" cx="628.5" cy="254.8" r="0.8"/>
    <circle id="leftLowerLipTop0" cx="628.5" cy="257.7" r="0.8"/>
    <circle id="leftLowerLipBottom1" cx="628.7" cy="264.4" r="0.8"/>
    <circle id="leftLowerLipBottom0" cx="635.6" cy="261.6" r="0.8"/>
    <circle id="leftEye4" cx="642.8" cy="216.6" r="0.8"/>
    <circle id="leftJaw7" cx="639.3" cy="287.9" r="0.8"/>
    <circle id="leftJaw6" cx="649.3" cy="281.2" r="0.8"/>
    <circle id="leftJaw5" cx="660.9" cy="268.6" r="0.8"/>
    <circle id="leftJaw4" cx="667.7" cy="248.6" r="0.8"/>
    <circle id="leftJaw3" cx="668.5" cy="227" r="0.8"/>
    <circle id="leftJaw2" cx="668.5" cy="217.4" r="0.8"/>
    <circle id="leftJaw1" cx="667.7" cy="205.7" r="0.8"/>
    <circle id="leftJaw0" cx="665.2" cy="196.5" r="0.8"/>
    <polyline class="st16" points="624.5,170 604.7,172.5 592.2,182 583.6,196.1 581.1,205.4 580.3,217.1 580.3,226.6 581.1,248.3 &#10;&#9;&#9;587.9,268.3 599.5,280.8 609.5,287.5 624.5,290.7 639.3,287.9 649.3,281.2 660.9,268.6 667.7,248.6 668.5,227 668.5,217.4 &#10;&#9;&#9;667.7,205.7 665.2,196.5 657,182 644.4,172.5 624.5,170 &#9;" style="fill: none; stroke: rgb(0, 0, 0); stroke-miterlimit: 10;"/>
    <polyline class="st16" points="588.5,206.9 592.5,203.2 598.7,202.2 606,202.2 615.8,206.2 &#9;" style="fill: none; stroke: rgb(0, 0, 0); stroke-miterlimit: 10;"/>
    <polygon class="st16" points="594.7,215.1 599.9,211.4 606.2,211.4 611.4,215.6 606.2,216.6 599.9,217.4 &#9;" style="fill: none; stroke: rgb(0, 0, 0); stroke-miterlimit: 10;"/>
    <polyline class="st16" points="613,233.2 618.2,233.2 623.7,234 623.7,228.7 623.7,221.6 623.7,216.1 623.7,210.3 &#9;" style="fill: none; stroke: rgb(0, 0, 0); stroke-miterlimit: 10;"/>
    <polyline class="st16" points="660,206.5 656,203.6 649.7,202.1 642.4,202.5 632.4,205.7 &#9;" style="fill: none; stroke: rgb(0, 0, 0); stroke-miterlimit: 10;"/>
    <polygon class="st16" points="654.1,215.1 648.8,211.4 642.5,211.4 637.4,215.6 642.5,216.6 648.8,217.4 &#9;" style="fill: none; stroke: rgb(0, 0, 0); stroke-miterlimit: 10;"/>
    <polyline class="st16" points="634.1,233.2 629.1,233.2 623.7,234 &#9;" style="fill: none; stroke: rgb(0, 0, 0); stroke-miterlimit: 10;"/>
    <polygon class="st16" points="607 255.3 613.9 251.9 620.4 250.8 624.5 251.7 628.7 250.8 635.1 251.9 642 255.3 635.6 261.6 628.5 264.4 624.5 264.733 620.4 264.4 613.4 261.6" style="fill: none; stroke: rgb(0, 0, 0); stroke-miterlimit: 10;"/>
    <polyline class="st16" points="607,255.3 610.6,255.6 620.6,254.8 624.5,255.3 628.5,254.8 638.4,255.6 642,255.3 &#9;" style="fill: none; stroke: rgb(0, 0, 0); stroke-miterlimit: 10;"/>
    <polyline class="st16" points="607,255.3 610.6,255.6 620.6,257.7 624.5,258.5 628.5,257.7 638.4,255.6 642,255.3 &#9;" style="fill: none; stroke: rgb(0, 0, 0); stroke-miterlimit: 10;"/>
    <circle id="rightTop0" cx="604.8" cy="172.5" r="0.8"/>
    <circle id="rightTop1" cx="592.2" cy="182" r="0.8"/>
  </g>
</svg>