<?xml version="1.0" encoding="utf-8"?>
<!-- Generator: Adobe Illustrator 17.0.0, SVG Export Plug-In . SVG Version: 6.00 Build 0)  -->
<!DOCTYPE svg PUBLIC "-//W3C//DTD SVG 1.1//EN" "http://www.w3.org/Graphics/SVG/1.1/DTD/svg11.dtd">
<svg version="1.1" id="Layer_1" xmlns="http://www.w3.org/2000/svg" xmlns:xlink="http://www.w3.org/1999/xlink" x="0px" y="0px"
	 width="1200px" height="1200px" viewBox="0 0 1200 1200" enable-background="new 0 0 1200 1200" xml:space="preserve">
<g id="illustration">
	<path fill="#6EBE44" stroke="#000000" stroke-miterlimit="10" d="M488.729,460.463c-2.023-0.002-3.659-4.196-3.653-9.368
		l0.045-40.888l0.054-49.627c0.006-5.171,1.65-9.362,3.674-9.36l68.507,0.075c2.023,0.002,3.659,4.196,3.653,9.368l-0.047,43.307
		l-0.052,47.209c-0.006,5.171-1.65,9.362-3.674,9.36l-14.07,4.629l-36,12L488.729,460.463z"/>
	<path fill="#8CF249" stroke="#000000" stroke-miterlimit="10" d="M495.021,443.619c-1.461-0.002-2.641-3.331-2.637-7.436
		l0.035-32.456l0.043-39.393c0.004-4.105,1.192-7.431,2.653-7.43l49.46,0.054c1.461,0.002,2.641,3.331,2.637,7.436l-0.038,34.376
		l-0.041,37.473c-0.005,4.105-1.192,7.431-2.653,7.43l-10.159,3.676l-25.992,9.528L495.021,443.619z"/>
	<path fill="#6EBE44" stroke="#000000" stroke-miterlimit="10" d="M408.082,477.167l51.507-11.983l20.131-4.623
		c2.895,0.003,5.247-4.187,5.252-9.358l0.121-44.011l-0.022-46.505c0.006-5.171-2.337-9.366-5.232-9.369l-98.028-0.107
		L351.833,373.3l24.626,77.785L408.082,477.167z"/>
	<path fill="#8CF249" stroke="#000000" stroke-miterlimit="10" d="M410.322,471.817l40.343-10.62l15.768-4.097
		c2.268,0.002,4.11-3.709,4.115-8.29l0.1-38.984l-0.012-41.193c0.005-4.581-1.829-8.296-4.097-8.299l-76.779-0.084l-23.482,19.569
		l19.279,68.898L410.322,471.817z"/>
	<path fill="#6EBE44" stroke="#000000" stroke-miterlimit="10" d="M836.021,477.167l-51.507-11.983l-20.131-4.623
		c-2.895,0.003-5.247-4.187-5.252-9.358l-0.121-44.011l0.022-46.505c-0.006-5.171,2.337-9.366,5.232-9.369l98.028-0.107
		l29.978,22.089l-24.626,77.785L836.021,477.167z"/>
	<path fill="#6EBE44" stroke="#000000" stroke-miterlimit="10" d="M755.356,460.463c2.023-0.002,3.659-4.196,3.653-9.368
		l-0.045-40.888l-0.054-49.627c-0.006-5.171-1.65-9.362-3.674-9.36l-68.507,0.075c-2.023,0.002-3.659,4.196-3.653,9.368
		l0.047,43.307l0.052,47.209c0.006,5.171,1.65,9.362,3.674,9.36l14.07,4.629l36,12L755.356,460.463z"/>
	<path fill="#6EBE44" stroke="#000000" stroke-miterlimit="10" d="M610.185,353.736c-0.749-0.001-1.353-2.331-1.35-5.205
		l0.025-22.724l0.03-27.581c0.003-2.874,0.613-5.203,1.361-5.202L621.4,282l14.204,11.052c0.749,0.001,1.353,2.331,1.35,5.205
		l-0.026,24.068l-0.029,26.236c-0.003,2.874-0.613,5.203-1.361,5.202L610.185,353.736z"/>
	<path fill="#6EBE44" stroke="#000000" stroke-miterlimit="10" d="M692.9,577.605c0,6.404-5.373,11.595-12,11.595l-55.6-34.192
		L564.9,589.2c-6.627,0-12-5.191-12-11.595V360.783c0-6.404,5.373-11.595,12-11.595l59.6-8.022l56.4,8.022
		c6.627,0,12,5.191,12,11.595V577.605z"/>
	<path fill="#8CF249" stroke="#000000" stroke-miterlimit="10" d="M684.993,567.669c0,5.848-4.651,10.589-10.387,10.589
		l-48.128-31.226l-52.283,31.226c-5.737,0-10.387-4.741-10.387-10.589V369.656c0-5.848,4.651-10.589,10.387-10.589l51.59-7.326
		l48.82,7.326c5.737,0,10.387,4.741,10.387,10.589V567.669z"/>
	<path fill="#6EBE44" stroke="#000000" stroke-miterlimit="10" d="M577.325,230.833c0,44.587,13.346,64.25,46.736,64.25
		s48.014-19.663,48.014-64.25S658.79,176.5,625.4,176.5C592.01,176.5,577.325,186.246,577.325,230.833z"/>
	<path fill="#6EBE44" stroke="#000000" stroke-miterlimit="10" d="M648.117,599.612c-0.348-4.011,1.401-7.438,3.905-7.655
		l19.802-1.716l24.034-2.083c2.505-0.217,4.817,2.858,5.164,6.869l11.768,135.798c0.348,4.011-1.401,7.438-3.905,7.655
		l-20.973,1.818l-22.863,1.981c-2.505,0.217-4.817-2.858-5.164-6.869L648.117,599.612z"/>
	<path fill="#6EBE44" stroke="#000000" stroke-miterlimit="10" d="M659.649,734.153c0.09-4.99,2.201-8.998,4.715-8.952l19.873,0.36
		l24.12,0.437c2.513,0.046,4.478,4.127,4.387,9.117l-3.063,168.948c-0.09,4.99-2.201,8.998-4.715,8.952l-21.048-0.382l-22.945-0.416
		c-2.513-0.046-4.478-4.127-4.387-9.117L659.649,734.153z"/>
	<path fill="#8CF249" stroke="#000000" stroke-miterlimit="10" d="M662.822,606.11c-0.206-3.137,0.878-5.763,2.421-5.864
		l12.201-0.802l14.808-0.973c1.543-0.101,2.961,2.36,3.167,5.497l6.982,106.223c0.206,3.137-0.878,5.763-2.421,5.864l-12.922,0.849
		l-14.087,0.926c-1.543,0.101-2.961-2.359-3.167-5.497L662.822,606.11z"/>
	<path fill="#6EBE44" stroke="#000000" stroke-miterlimit="10" d="M550.542,595.577c0.245-4.018,2.477-7.152,4.987-6.999
		l19.839,1.209l24.08,1.467c2.509,0.153,4.345,3.534,4.1,7.553l-8.29,136.055c-0.245,4.018-2.477,7.152-4.987,6.999l-21.013-1.28
		l-22.906-1.396c-2.509-0.153-4.345-3.534-4.1-7.552L550.542,595.577z"/>
	<path fill="#8CF249" stroke="#000000" stroke-miterlimit="10" d="M559.569,605.449c0.189-3.102,1.594-5.541,3.137-5.447
		l12.204,0.744l14.813,0.903c1.544,0.094,2.642,2.685,2.453,5.788l-6.401,105.045c-0.189,3.102-1.594,5.541-3.137,5.447
		l-12.926-0.788l-14.091-0.859c-1.544-0.094-2.642-2.685-2.453-5.788L559.569,605.449z"/>
	<path fill="#6EBE44" stroke="#000000" stroke-miterlimit="10" d="M543.783,734.855c-0.103-5.009,1.852-9.111,4.365-9.162
		l19.872-0.407l24.119-0.494c2.513-0.052,4.634,3.967,4.737,8.976l3.475,169.593c0.103,5.009-1.852,9.111-4.365,9.162l-21.047,0.431
		l-22.944,0.47c-2.513,0.051-4.634-3.967-4.737-8.976L543.783,734.855z"/>
	<path fill="#8CF249" stroke="#000000" stroke-miterlimit="10" d="M551.326,741.146c-0.09-4.515,1.091-8.199,2.637-8.23
		l12.225-0.243l14.837-0.295c1.546-0.031,2.872,3.604,2.962,8.119l3.041,152.862c0.09,4.515-1.091,8.199-2.637,8.23l-12.948,0.258
		l-14.114,0.281c-1.546,0.031-2.872-3.604-2.962-8.119L551.326,741.146z"/>
	<path fill="#8CF249" stroke="#000000" stroke-miterlimit="10" d="M670.092,738.695c0.049-4.74,1.342-8.57,2.888-8.554l12.226,0.126
		l14.839,0.152c1.546,0.016,2.76,3.871,2.712,8.611l-1.649,160.49c-0.049,4.74-1.342,8.569-2.888,8.554l-12.95-0.133l-14.116-0.145
		c-1.546-0.016-2.76-3.871-2.712-8.611L670.092,738.695z"/>
	<path fill="#24D0E2" stroke="#000000" stroke-miterlimit="10" d="M696.952,360.249"/>
	<path fill="#00B09F" stroke="#000000" stroke-miterlimit="10" d="M614.7,217.9c0,7.769-3.918,5.85-11.65,5.85
		c-7.732,0-16.35,1.919-16.35-5.85s6.268-14.067,14-14.067S614.7,210.131,614.7,217.9z"/>
	<path fill="#00B09F" stroke="#000000" stroke-miterlimit="10" d="M658.4,218.2c0,7.769-4.468,5.76-12.2,5.76s-15.8,2.009-15.8-5.76
		s6.268-14.067,14-14.067S658.4,210.431,658.4,218.2z"/>
	<path fill="#00B09F" stroke="#000000" stroke-miterlimit="10" d="M624.7,247.833"/>
	<path fill="none" stroke="#000000" stroke-width="2" stroke-miterlimit="10" d="M631.847,203.972c0,0,24.853-8.289,29.153-0.139"/>
	<path fill="none" stroke="#000000" stroke-width="2" stroke-miterlimit="10" d="M617.626,204.363c0,0-24.853-8.289-29.153-0.139"/>
	<path fill="#24D0E2" stroke="#000000" stroke-miterlimit="10" d="M634.8,216.9c0,0,4.867,3.2,10.2,3.9
		c5.333,0.7,6.667-0.3,7.833-0.967c1.167-0.667,3.233-2.8,3.367-3.233s-0.7-3.8-2.7-5.2s-8.667-2.9-11.5-1.9
		S634.8,216.9,634.8,216.9z"/>
	<path fill="#24D0E2" stroke="#000000" stroke-miterlimit="10" d="M612.857,216.093c0,0-4.867,3.2-10.2,3.9
		c-5.333,0.7-6.667-0.3-7.833-0.967c-1.167-0.667-3.233-2.8-3.367-3.233s0.7-3.8,2.7-5.2c2-1.4,8.667-2.9,11.5-1.9
		S612.857,216.093,612.857,216.093z"/>
	<g>
		<path fill="#24D0E2" d="M623.667,236.333"/>
	</g>
	<g>
		<path fill="#24D0E2" d="M623.667,207"/>
	</g>
	<g>
		<path fill="#24D0E2" d="M613.445,234.046"/>
	</g>
	<g>
		<path fill="#24D0E2" d="M634.028,233.954"/>
	</g>
	<path fill="#8CF249" stroke="#000000" stroke-miterlimit="10" d="M751.877,443.619c1.461-0.002,2.641-3.331,2.637-7.436
		l-0.035-32.456l-0.043-39.393c-0.004-4.105-1.192-7.431-2.653-7.43l-49.46,0.054c-1.461,0.002-2.641,3.331-2.637,7.436
		l0.038,34.376l0.041,37.473c0.004,4.105,1.192,7.431,2.653,7.43l10.159,3.676l25.992,9.528L751.877,443.619z"/>
	<path fill="#8CF249" stroke="#000000" stroke-miterlimit="10" d="M832.026,468.467l-40.343-10.62l-15.768-4.097
		c-2.268,0.002-4.11-3.709-4.115-8.29l-0.1-38.984l0.012-41.193c-0.005-4.581,1.829-8.296,4.097-8.299l76.779-0.084l23.482,19.569
		l-19.279,68.898L832.026,468.467z"/>
	<path fill="#00B09F" stroke="#000000" stroke-miterlimit="10" d="M647.833,257.411c-13.409-5.46-4.718-3.468-23.531-8.511
		c-12.785,4.229-10.494,3.135-22.403,8.511l10.422,2.45l12.544,3.473l13.511-3.256L647.833,257.411z"/>
	<path fill="#1FEAD1" stroke="#000000" stroke-miterlimit="10" d="M643.344,256.885c-10.787-3.243-3.796-2.06-18.931-5.055
		c-10.286,2.512-8.443,1.862-18.023,5.055l8.385,1.455l10.092,2.063l10.87-1.934L643.344,256.885z"/>
	<ellipse fill="#EAF4F4" stroke="#000000" stroke-miterlimit="10" cx="645.581" cy="215.532" rx="2.748" ry="1.635"/>
	<ellipse fill="#EAF4F4" stroke="#000000" stroke-miterlimit="10" cx="600.525" cy="215.532" rx="2.525" ry="1.635"/>
</g>
<g id="skeleton_1_">
	<circle id="rightShoulder" cx="572.3" cy="365.3" r="8.2"/>
	<circle id="rightElbow" cx="519.5" cy="365.1" r="8.2"/>
	<circle id="rightWrist" cx="393.8" cy="366.1" r="8.2"/>
	<circle id="rightHip" cx="581.1" cy="564.1" r="8.2"/>
	<circle id="rightKnee" cx="575.6" cy="725.2" r="8.2"/>
	<circle id="rightAnkle" cx="575.6" cy="933.2" r="8.2"/>
	<circle id="leftShoulder" cx="681.3" cy="365.4" r="8.2"/>
	<circle id="leftElbow" cx="735.3" cy="365.1" r="8.2"/>
	<circle id="leftWrist" cx="860.6" cy="365.1" r="8.2"/>
	<circle id="leftHip" cx="673.1" cy="563.3" r="8.2"/>
	<circle id="leftKnee" cx="685.6" cy="725.2" r="8.2"/>
	<circle id="leftAnkle" cx="685.6" cy="933.2" r="8.2"/>
	<polygon fill="none" stroke="#000000" stroke-miterlimit="10" points="572.2,365.6 581,564.4 673,563.6 681.2,365.7 	"/>
	<polyline fill="none" stroke="#000000" stroke-miterlimit="10" points="571.2,365.6 519.2,365.3 393.6,366.2 	"/>
	<polyline fill="none" stroke="#000000" stroke-miterlimit="10" points="682.7,365.3 735.5,365.3 860.7,365.4 	"/>
	<polyline fill="none" stroke="#000000" stroke-miterlimit="10" points="581,564.4 575.5,725.5 575.5,933.5 	"/>
	<polyline fill="none" stroke="#000000" stroke-miterlimit="10" points="673,563.6 685.5,725.5 685.5,933.5 	"/>
	<circle id="rightEye0" cx="594.7" cy="215.1" r="0.8"/>
	<circle id="rightBrow1" cx="592.5" cy="203.2" r="0.8"/>
	<circle id="rightBrow4" cx="615.8" cy="206.2" r="0.8"/>
	<circle id="nose1" cx="623.7" cy="216.1" r="0.8"/>
	<circle id="rightBrow3" cx="606" cy="202.2" r="0.8"/>
	<circle id="rightEye1" cx="599.9" cy="211.4" r="0.8"/>
	<circle id="rightBrow0" cx="588.5" cy="206.9" r="0.8"/>
	<circle id="rightBrow2" cx="598.7" cy="202.2" r="0.8"/>
	<circle id="rightEye5" cx="599.9" cy="217.4" r="0.8"/>
	<circle id="rightEye2" cx="606.2" cy="211.4" r="0.8"/>
	<circle id="rightEye3" cx="611.4" cy="215.6" r="0.8"/>
	<circle id="nose0" cx="623.7" cy="210.3" r="0.8"/>
	<circle id="nose3" cx="623.7" cy="228.7" r="0.8"/>
	<circle id="rightNose0" cx="613" cy="233.2" r="0.8"/>
	<circle id="rightMouthCorner" cx="607" cy="255.3" r="0.8"/>
	<circle id="rightNose1" cx="618.2" cy="233.2" r="0.8"/>
	<circle id="rightUpperLipTop0" cx="613.9" cy="251.9" r="0.8"/>
	<circle id="nose2" cx="623.7" cy="221.6" r="0.8"/>
	<circle id="nose4" cx="623.7" cy="234" r="0.8"/>
	<circle id="upperLipTopMid" cx="624.5" cy="251.7" r="0.8"/>
	<circle id="rightUpperLipTop1" cx="620.4" cy="250.8" r="0.8"/>
	<path id="rightMiddleLip" d="M610.6,254.8c0.4,0,0.8,0.4,0.8,0.8c0,0.4-0.4,0.8-0.8,0.8s-0.8-0.4-0.8-0.8S610.2,254.8,610.6,254.8z
		"/>
	<circle id="lowerLipBottomMid" cx="624.5" cy="264.9" r="0.8"/>
	<circle id="upperLipBottomMid" cx="624.5" cy="255.3" r="0.8"/>
	<circle id="lowerLipTopMid" cx="624.5" cy="258.4" r="0.8"/>
	<circle id="rightUpperLipBottom1" cx="620.6" cy="254.8" r="0.8"/>
	<circle id="rightLowerLipTop0" cx="620.6" cy="257.7" r="0.8"/>
	<circle id="rightLowerLipBottom1" cx="620.4" cy="264.4" r="0.8"/>
	<circle id="rightLowerLipBottom0" cx="613.4" cy="261.6" r="0.8"/>
	<circle id="rightEye4" cx="606.2" cy="216.6" r="0.8"/>
	<circle id="jawMid" cx="624.5" cy="290.7" r="0.8"/>
	<circle id="rightJaw7" cx="609.5" cy="287.5" r="0.8"/>
	<circle id="rightJaw6" cx="599.5" cy="280.8" r="0.8"/>
	<circle id="rightJaw5" cx="587.9" cy="268.3" r="0.8"/>
	<circle id="rightJaw4" cx="581.1" cy="248.3" r="0.8"/>
	<circle id="rightJaw3" cx="580.3" cy="226.6" r="0.8"/>
	<circle id="rightJaw2" cx="580.3" cy="217.1" r="0.8"/>
	<circle id="rightJaw1" cx="581.1" cy="205.4" r="0.8"/>
	<circle id="rightJaw0" cx="583.6" cy="196.1" r="0.8"/>
	<circle id="topMid" cx="624.7" cy="170" r="0.8"/>
	<circle id="leftTop0" cx="644.4" cy="172.5" r="0.8"/>
	<circle id="leftTop1" cx="657" cy="182" r="0.8"/>
	<circle id="leftEye0" cx="654.3" cy="215.1" r="0.8"/>
	<circle id="leftBrow1" cx="656.2" cy="203.6" r="0.8"/>
	<circle id="leftBrow4" cx="632.6" cy="205.7" r="0.8"/>
	<circle id="leftBrow3" cx="642.6" cy="202.5" r="0.8"/>
	<circle id="leftEye1" cx="649.1" cy="211.4" r="0.8"/>
	<circle id="leftBrow0" cx="660.2" cy="206.5" r="0.8"/>
	<circle id="leftBrow2" cx="649.9" cy="202.1" r="0.8"/>
	<circle id="leftEye5" cx="649.1" cy="217.4" r="0.8"/>
	<circle id="leftEye2" cx="642.8" cy="211.4" r="0.8"/>
	<circle id="leftEye3" cx="637.6" cy="215.6" r="0.8"/>
	<circle id="leftNose0" cx="634.1" cy="233.2" r="0.8"/>
	<circle id="leftMouthCorner" cx="642" cy="255.3" r="0.8"/>
	<circle id="leftNose1" cx="629.3" cy="233.2" r="0.8"/>
	<circle id="leftUpperLipTop0" cx="635.1" cy="251.9" r="0.8"/>
	<circle id="leftUpperLipTop1" cx="628.7" cy="250.8" r="0.8"/>
	<path id="leftMiddleLip" d="M638.4,254.8c0.4,0,0.8,0.4,0.8,0.8c0,0.4-0.4,0.8-0.8,0.8s-0.8-0.4-0.8-0.8S638,254.8,638.4,254.8z"/>
	<circle id="leftUpperLipBottom1" cx="628.5" cy="254.8" r="0.8"/>
	<circle id="leftLowerLipTop0" cx="628.5" cy="257.7" r="0.8"/>
	<circle id="leftLowerLipBottom1" cx="628.7" cy="264.4" r="0.8"/>
	<circle id="leftLowerLipBottom0" cx="635.6" cy="261.6" r="0.8"/>
	<circle id="leftEye4" cx="642.8" cy="216.6" r="0.8"/>
	<circle id="leftJaw7" cx="639.3" cy="287.9" r="0.8"/>
	<circle id="leftJaw6" cx="649.3" cy="281.2" r="0.8"/>
	<circle id="leftJaw5" cx="660.9" cy="268.6" r="0.8"/>
	<circle id="leftJaw4" cx="667.7" cy="248.6" r="0.8"/>
	<circle id="leftJaw3" cx="668.5" cy="227" r="0.8"/>
	<circle id="leftJaw2" cx="668.5" cy="217.4" r="0.8"/>
	<circle id="leftJaw1" cx="667.7" cy="205.7" r="0.8"/>
	<circle id="leftJaw0" cx="665.2" cy="196.5" r="0.8"/>
	<polyline fill="none" stroke="#000000" stroke-miterlimit="10" points="624.5,170 604.7,172.5 592.2,182 583.6,196.1 581.1,205.4 
		580.3,217.1 580.3,226.6 581.1,248.3 587.9,268.3 599.5,280.8 609.5,287.5 624.5,290.7 639.3,287.9 649.3,281.2 660.9,268.6 
		667.7,248.6 668.5,227 668.5,217.4 667.7,205.7 665.2,196.5 657,182 644.4,172.5 624.5,170 	"/>
	<polyline fill="none" stroke="#000000" stroke-miterlimit="10" points="588.5,206.9 592.5,203.2 598.7,202.2 606,202.2 
		615.8,206.2 	"/>
	<polygon fill="none" stroke="#000000" stroke-miterlimit="10" points="594.7,215.1 599.9,211.4 606.2,211.4 611.4,215.6 
		606.2,216.6 599.9,217.4 	"/>
	<polyline fill="none" stroke="#000000" stroke-miterlimit="10" points="613,233.2 618.2,233.2 623.7,234 623.7,228.7 623.7,221.6 
		623.7,216.1 623.7,210.3 	"/>
	<polyline fill="none" stroke="#000000" stroke-miterlimit="10" points="660,206.5 656,203.6 649.7,202.1 642.4,202.5 632.4,205.7 	
		"/>
	<polygon fill="none" stroke="#000000" stroke-miterlimit="10" points="654.1,215.1 648.8,211.4 642.5,211.4 637.4,215.6 
		642.5,216.6 648.8,217.4 	"/>
	<polyline fill="none" stroke="#000000" stroke-miterlimit="10" points="634.1,233.2 629.1,233.2 623.7,234 	"/>
	<polygon fill="none" stroke="#000000" stroke-miterlimit="10" points="607,255.3 613.9,251.9 620.4,250.8 624.5,251.7 628.7,250.8 
		635.1,251.9 642,255.3 635.6,261.6 628.5,264.4 624.5,264.9 620.4,264.4 613.4,261.6 	"/>
	<polyline fill="none" stroke="#000000" stroke-miterlimit="10" points="607,255.3 610.6,255.6 620.6,254.8 624.5,255.3 
		628.5,254.8 638.4,255.6 642,255.3 	"/>
	<polyline fill="none" stroke="#000000" stroke-miterlimit="10" points="607,255.3 610.6,255.6 620.6,257.7 624.5,258.5 
		628.5,257.7 638.4,255.6 642,255.3 	"/>
	<circle id="rightTop0" cx="604.8" cy="172.5" r="0.8"/>
	<circle id="rightTop1" cx="592.2" cy="182" r="0.8"/>
</g>
</svg>
