<?xml version="1.0" encoding="utf-8"?>
<svg version="1.1" id="Layer_1" x="0px" y="0px" width="1000px" height="1000px" viewBox="0 0 1000 1000" style="enable-background:new 0 0 1000 1000;" xmlns="http://www.w3.org/2000/svg">
  <g id="illustration">
    <rect x="535.7" y="889.3" style="fill:#FFFFFF;" width="30.6" height="4.4"/>
    <rect x="535.7" y="897.7" style="fill:#FFFFFF;" width="30.6" height="4.4"/>
    <rect x="535.7" y="906.2" style="fill:#FFFFFF;" width="30.6" height="4.4"/>
    <path style="fill: rgb(145, 149, 164);" d="M 407.783 518.205 C 407.783 556.407 407.783 603.872 407.783 649.495 C 407.783 681.599 407.783 712.782 407.783 739.132 C 460.536 739.132 462.587 739.132 500.708 739.132 C 500.708 712.206 500.708 680.793 500.708 650.243 C 500.708 606.576 500.708 564.634 500.708 540.01 C 506.207 540.01 514.222 540.01 519.255 540.01 C 519.255 563.771 519.255 606.633 519.255 650.243 C 519.255 681.829 519.255 713.76 519.255 739.132 C 561.197 739.132 551.504 739.132 604.724 739.132 C 604.724 714.393 604.724 683.037 604.724 650.243 C 604.724 604.505 604.724 555.889 604.724 518.205 L 407.783 518.205 Z"/>
    <rect x="432.4" y="889.3" style="fill:#FFFFFF;" width="30.6" height="4.4"/>
    <rect x="432.4" y="897.7" style="fill:#FFFFFF;" width="30.6" height="4.4"/>
    <rect x="432.4" y="906.2" style="fill:#FFFFFF;" width="30.6" height="4.4"/>
    <path style="fill: rgb(145, 149, 164);" d="M 408.298 552.609 C 347.514 505.106 384.513 373.435 404.511 343.344 C 414.907 327.701 423.411 311.844 436.511 300.844 C 452.211 287.644 471.811 279.644 495.911 279.644 C 522.011 279.644 543.543 288.539 563.216 296.134 C 579.006 302.23 577.042 329.28 589.872 333.111 C 632.946 345.973 658.187 528.982 606.929 553.482 L 408.298 552.609 Z"/>
    <line style="fill:none;" x1="616.8" y1="509.6" x2="384" y2="509.6"/>
    <ellipse style="fill:#FFFFFF;" cx="500.9" cy="304.3" rx="22" ry="16.3"/>
    <path style="fill: rgb(145, 149, 164);" d="M 285.8 267.271 L 281.967 339.8 C 340.867 340.137 377.419 341.601 403.219 364.052 L 456.8 294.549 C 402.5 264.577 341.8 263.454 285.8 267.271 Z"/>
    <path style="fill: rgb(145, 149, 164);" d="M 545.7 292.009 L 590.952 358.243 C 617.952 340.933 656.7 340.826 715.6 340.399 L 715.6 270.317 C 659.6 266.684 616.4 259.205 545.7 292.009 Z"/>
    <path style="fill: rgb(145, 149, 164);" d="M 322.399 269.022 C 276.651 263.495 196.374 264.436 205.275 265.585 C 214.176 266.734 210.747 337.249 214.677 341.075 C 218.607 344.903 263.725 344.918 328.225 334.908 L 322.399 269.022 Z"/>
    <path style="fill: rgb(145, 149, 164);" d="M 673.094 335.07 C 737.594 344.139 791.555 341.685 803.126 342.318 C 814.697 342.95 808.643 277.525 811.453 271.937 C 814.263 266.348 724.645 269.544 676.945 266.697 L 673.094 335.07 Z"/>
    <path style="fill: rgb(146, 151, 166);" d="M 489.5 211.9 L 510.4 211.9 C 545.555 195.087 539.831 269.386 534.752 295.985 C 532.652 305.685 512.128 327.333 505.728 327.133 C 497.528 326.933 477.521 316.279 476.321 308.479 C 456.69 303.793 465.635 203.556 489.5 211.9 Z"/>
    <path style="fill: rgb(90, 92, 101);" d="M 485.398 230.361 L 506.298 230.361 C 508.198 249.361 478.544 319.761 473.344 319.761 C 460.605 320.741 448.943 233.165 485.398 230.361 Z"/>
    <path style="fill: rgb(145, 149, 164);" d="M 499 113 C 472.532 118.332 381.945 154.7 443 177 C 596.591 233.099 616.902 354.832 615.735 166.198 C 614.568 -22.436 620.25 88.576 499 113 Z"/>
    <circle style="fill: rgb(145, 149, 164);" cx="560.2" cy="182.8" r="12.1"/>
    <circle style="fill:#DF7977;" cx="437.6" cy="182.8" r="12.1"/>
    <ellipse style="fill: rgb(145, 149, 164);" cx="499.8" cy="177.4" rx="76.614" ry="92.438" transform="matrix(0.999897, -0.014371, 0.019668, 0.999821, -1.978028, 16.424488)"/>
    <g>
      <path id="rightMiddleLip_2_" d="M 487.5 209.6 C 487.8 209.6 488 209.9 488 210.1 C 488 210.3 487.7 210.6 487.5 210.6 C 487.2 210.6 487 210.3 487 210.1 C 487 209.9 487.3 209.6 487.5 209.6 Z"/>
      <circle id="upperLipBottomMid_1_" cx="499.3" cy="209.9" r="0.5"/>
      <circle id="rightUpperLipBottom1_1_" cx="496.8" cy="209.6" r="0.5"/>
      <path id="leftMiddleLip_2_" d="M 511.1 209.6 C 511.4 209.6 511.6 209.9 511.6 210.1 C 511.6 210.3 511.3 210.6 511.1 210.6 C 510.9 210.6 510.6 210.3 510.6 210.1 C 510.6 209.9 510.8 209.6 511.1 209.6 Z"/>
      <circle id="leftUpperLipBottom1_1_" cx="501.8" cy="209.6" r="0.5"/>
      <path style="fill:#DF7977;stroke:#DF7977;stroke-width:2;stroke-miterlimit:10;" d="M 488 210.1 C 488 210.1 495.7 210 499.3 210 C 502.9 210 511.2 209.9 511.2 209.9 C 511.2 209.9 504.3 212.5 499.3 212.5 C 494.2 212.5 488 210.1 488 210.1 Z"/>
      <circle id="lowerLipTopMid_2_" cx="499.3" cy="211.9" r="0.5"/>
      <circle id="rightLowerLipTop0_2_" cx="496.8" cy="211.4" r="0.5"/>
      <circle id="leftLowerLipTop0_2_" cx="501.8" cy="211.4" r="0.5"/>
    </g>
    <g>
      <ellipse style="fill:#DF7977;" cx="464.1" cy="196.5" rx="7.8" ry="6.2"/>
      <ellipse style="fill:#2C323A;" cx="464" cy="180.6" rx="3.6" ry="5.8"/>
      <circle id="rightEye0_1_" cx="468.6" cy="160.2" r="0.8"/>
      <circle id="rightEye1_1_" cx="473.8" cy="156.5" r="0.8"/>
      <circle id="rightEye5_1_" cx="473.8" cy="162.5" r="0.8"/>
      <circle id="rightEye2_1_" cx="480.1" cy="156.5" r="0.8"/>
      <circle id="rightEye3_1_" cx="485.3" cy="160.7" r="0.8"/>
      <circle id="rightEye4_1_" cx="480.1" cy="161.7" r="0.8"/>
    </g>
    <g>
      <ellipse style="fill:#2C323A;" cx="532.8" cy="179.6" rx="3.6" ry="5.8"/>
      <ellipse style="fill:#DF7977;" cx="533.2" cy="196.5" rx="7.8" ry="6.2"/>
      <circle id="leftEye0_1_" cx="528.2" cy="160.2" r="0.8"/>
      <circle id="leftEye1_1_" cx="523" cy="156.5" r="0.8"/>
      <circle id="leftEye5_1_" cx="523" cy="162.5" r="0.8"/>
      <circle id="leftEye2_1_" cx="516.7" cy="156.5" r="0.8"/>
      <circle id="leftEye3_1_" cx="511.5" cy="160.7" r="0.8"/>
      <circle id="leftEye4_1_" cx="516.7" cy="161.7" r="0.8"/>
    </g>
    <g>
      <path style="fill:#2C323A;" d="M 518.8 159.9 C 529.5 154.9 533 154.9 538 160.6 C 533 159.9 532.3 163.4 518.8 159.9 Z"/>
      <circle id="leftBrow1_1_" cx="530.1" cy="148.7" r="0.8"/>
      <circle id="leftBrow4_1_" cx="506.5" cy="150.8" r="0.8"/>
      <circle id="leftBrow3_1_" cx="516.5" cy="147.6" r="0.8"/>
      <circle id="leftBrow0_1_" cx="534.1" cy="151.6" r="0.8"/>
      <circle id="leftBrow2_1_" cx="523.8" cy="147.2" r="0.8"/>
    </g>
    <g>
      <path style="fill:#2C323A;" d="M 478 159.9 C 467.3 154.9 463.8 154.9 458.8 160.6 C 463.8 159.9 464.5 163.4 478 159.9 Z"/>
      <circle id="rightBrow1_1_" cx="466.4" cy="148.3" r="0.8"/>
      <circle id="rightBrow4_1_" cx="489.7" cy="151.3" r="0.8"/>
      <circle id="rightBrow3_1_" cx="479.9" cy="147.3" r="0.8"/>
      <circle id="rightBrow0_1_" cx="462.4" cy="152" r="0.8"/>
      <circle id="rightBrow2_1_" cx="472.6" cy="147.3" r="0.8"/>
    </g>
    <path style="fill: rgb(145, 149, 164);" d="M 409.576 244.65 C 416.713 278.536 452.682 269.751 456.445 129.981 C 456.865 114.366 545.746 129.312 540.746 126.312 C 536.346 123.712 486.575 107.763 473.575 119.763 C 472.575 110.763 408.076 69.632 391.076 67.632 C 363.276 64.332 405.757 226.518 409.576 244.65 Z"/>
    <g>
      <path style="stroke: rgb(44, 50, 58); stroke-width: 2; stroke-miterlimit: 10; fill: rgb(145, 149, 164);" d="M 514.89 181.104 C 510.884 247.965 770.646 200.189 736.55 212.131 C 725.281 219.576 731.226 241.634 713.836 226.151 C 707.738 220.723 622.345 239.916 560.12 238.92 C 526.097 238.375 499.001 221.637 495.579 215.098 C 492.294 208.821 485.751 204.086 486.327 203.905 C 486.227 202.905 478.693 184.61 478.893 182.01 C 479.075 179.914 509.923 178.237 514.89 181.104 Z"/>
      <circle id="nose1_1_" cx="497.6" cy="161.2" r="0.8"/>
      <circle id="nose0_1_" cx="497.6" cy="155.4" r="0.8"/>
      <circle id="nose3_1_" cx="497.6" cy="173.8" r="0.8"/>
      <circle id="rightNose0_1_" cx="486.9" cy="178.3" r="0.8"/>
      <circle id="rightNose1_1_" cx="492.1" cy="178.3" r="0.8"/>
      <circle id="nose2_1_" cx="497.6" cy="166.7" r="0.8"/>
      <circle id="nose4_1_" cx="497.6" cy="179.1" r="0.8"/>
      <circle id="leftNose0_1_" cx="508" cy="178.3" r="0.8"/>
      <circle id="leftNose1_1_" cx="503.2" cy="178.3" r="0.8"/>
    </g>
  </g>
  <g id="skeleton_1_">
    <circle id="rightShoulder" cx="392.8" cy="294.3" r="8.2"/>
    <circle id="rightElbow" cx="289.3" cy="294.4" r="8.2"/>
    <ellipse id="rightWrist" transform="matrix(0.9951 -9.853767e-02 9.853767e-02 0.9951 -29.0274 13.8698)" cx="125.9" cy="300.8" rx="8.2" ry="8.2"/>
    <circle id="rightHip" cx="443.1" cy="510.1" r="8.2"/>
    <circle id="rightKnee" cx="449.5" cy="670.3" r="8.2"/>
    <circle id="rightAnkle" cx="449.5" cy="878.3" r="8.2"/>
    <circle id="leftShoulder" cx="605.7" cy="294.3" r="8.2"/>
    <circle id="leftElbow" cx="710.1" cy="294" r="8.2"/>
    <circle id="leftWrist" cx="873.5" cy="300.3" r="8.2"/>
    <circle id="leftHip" cx="559.5" cy="509.3" r="8.2"/>
    <circle id="leftKnee" cx="559.5" cy="670.3" r="8.2"/>
    <circle id="leftAnkle" cx="559.5" cy="878.3" r="8.2"/>
    <polygon style="fill:none;stroke:#000000;stroke-miterlimit:10;" points="392.7,294.6 443,510.4 559.4,509.6 605.6,294.6 &#9;"/>
    <polyline style="fill:none;stroke:#000000;stroke-miterlimit:10;" points="391.7,294.6 289,294.6 125.7,300.9 &#9;"/>
    <polyline style="fill:none;stroke:#000000;stroke-miterlimit:10;" points="607.1,294.2 710.3,294.2 873.6,300.6 &#9;"/>
    <polyline style="fill:none;stroke:#000000;stroke-miterlimit:10;" points="443,510.4 449.4,670.6 449.4,878.6 &#9;"/>
    <polyline style="fill:none;stroke:#000000;stroke-miterlimit:10;" points="559.4,509.6 559.4,670.6 559.4,878.6 &#9;"/>
    <circle id="rightEye0" cx="468.6" cy="160.2" r="0.8"/>
    <circle id="rightBrow1" cx="466.4" cy="148.3" r="0.8"/>
    <circle id="rightBrow4" cx="489.7" cy="151.3" r="0.8"/>
    <circle id="nose1" cx="497.6" cy="161.2" r="0.8"/>
    <circle id="rightBrow3" cx="479.9" cy="147.3" r="0.8"/>
    <circle id="rightEye1" cx="473.8" cy="156.5" r="0.8"/>
    <circle id="rightBrow0" cx="462.4" cy="152" r="0.8"/>
    <circle id="rightBrow2" cx="472.6" cy="147.3" r="0.8"/>
    <circle id="rightEye5" cx="473.8" cy="162.5" r="0.8"/>
    <circle id="rightEye2" cx="480.1" cy="156.5" r="0.8"/>
    <circle id="rightEye3" cx="485.3" cy="160.7" r="0.8"/>
    <circle id="nose0" cx="497.6" cy="155.4" r="0.8"/>
    <circle id="nose3" cx="497.6" cy="173.8" r="0.8"/>
    <circle id="rightNose0" cx="486.9" cy="178.3" r="0.8"/>
    <circle id="rightMouthCorner" cx="480.9" cy="200.4" r="0.8"/>
    <circle id="rightNose1" cx="492.1" cy="178.3" r="0.8"/>
    <circle id="rightUpperLipTop0" cx="487.8" cy="197" r="0.8"/>
    <circle id="nose2" cx="497.6" cy="166.7" r="0.8"/>
    <circle id="nose4" cx="497.6" cy="179.1" r="0.8"/>
    <circle id="upperLipTopMid" cx="498.4" cy="196.8" r="0.8"/>
    <circle id="rightUpperLipTop1" cx="494.3" cy="195.9" r="0.8"/>
    <path id="rightMiddleLip" d="M484.5,199.9c0.4,0,0.8,0.4,0.8,0.8c0,0.4-0.4,0.8-0.8,0.8s-0.8-0.4-0.8-0.8S484.1,199.9,484.5,199.9z "/>
    <circle id="lowerLipBottomMid" cx="498.4" cy="210" r="0.8"/>
    <circle id="upperLipBottomMid" cx="498.4" cy="200.4" r="0.8"/>
    <circle id="lowerLipTopMid" cx="498.4" cy="203.5" r="0.8"/>
    <circle id="rightUpperLipBottom1" cx="494.5" cy="199.9" r="0.8"/>
    <circle id="rightLowerLipTop0" cx="494.5" cy="202.8" r="0.8"/>
    <circle id="rightLowerLipBottom1" cx="494.3" cy="209.5" r="0.8"/>
    <circle id="rightLowerLipBottom0" cx="487.3" cy="206.7" r="0.8"/>
    <circle id="rightEye4" cx="480.1" cy="161.7" r="0.8"/>
    <circle id="jawMid" cx="498.4" cy="235.8" r="0.8"/>
    <circle id="rightJaw7" cx="483.4" cy="232.6" r="0.8"/>
    <circle id="rightJaw6" cx="473.4" cy="225.9" r="0.8"/>
    <circle id="rightJaw5" cx="461.8" cy="213.4" r="0.8"/>
    <circle id="rightJaw4" cx="455" cy="193.4" r="0.8"/>
    <circle id="rightJaw3" cx="454.2" cy="171.7" r="0.8"/>
    <circle id="rightJaw2" cx="454.2" cy="162.2" r="0.8"/>
    <circle id="rightJaw1" cx="455" cy="150.5" r="0.8"/>
    <circle id="rightJaw0" cx="457.5" cy="141.2" r="0.8"/>
    <circle id="topMid" cx="498.6" cy="115.1" r="0.8"/>
    <circle id="leftTop0" cx="518.3" cy="117.6" r="0.8"/>
    <circle id="leftTop1" cx="530.9" cy="127.1" r="0.8"/>
    <circle id="leftEye0" cx="528.2" cy="160.2" r="0.8"/>
    <circle id="leftBrow1" cx="530.1" cy="148.7" r="0.8"/>
    <circle id="leftBrow4" cx="506.5" cy="150.8" r="0.8"/>
    <circle id="leftBrow3" cx="516.5" cy="147.6" r="0.8"/>
    <circle id="leftEye1" cx="523" cy="156.5" r="0.8"/>
    <circle id="leftBrow0" cx="534.1" cy="151.6" r="0.8"/>
    <circle id="leftBrow2" cx="523.8" cy="147.2" r="0.8"/>
    <circle id="leftEye5" cx="523" cy="162.5" r="0.8"/>
    <circle id="leftEye2" cx="516.7" cy="156.5" r="0.8"/>
    <circle id="leftEye3" cx="511.5" cy="160.7" r="0.8"/>
    <circle id="leftNose0" cx="508" cy="178.3" r="0.8"/>
    <circle id="leftMouthCorner" cx="515.9" cy="200.4" r="0.8"/>
    <circle id="leftNose1" cx="503.2" cy="178.3" r="0.8"/>
    <circle id="leftUpperLipTop0" cx="509" cy="197" r="0.8"/>
    <circle id="leftUpperLipTop1" cx="502.6" cy="195.9" r="0.8"/>
    <path id="leftMiddleLip" d="M512.3,199.9c0.4,0,0.8,0.4,0.8,0.8c0,0.4-0.4,0.8-0.8,0.8c-0.4,0-0.8-0.4-0.8-0.8 S511.9,199.9,512.3,199.9z"/>
    <circle id="leftUpperLipBottom1" cx="502.4" cy="199.9" r="0.8"/>
    <circle id="leftLowerLipTop0" cx="502.4" cy="202.8" r="0.8"/>
    <circle id="leftLowerLipBottom1" cx="502.6" cy="209.5" r="0.8"/>
    <circle id="leftLowerLipBottom0" cx="509.5" cy="206.7" r="0.8"/>
    <circle id="leftEye4" cx="516.7" cy="161.7" r="0.8"/>
    <circle id="leftJaw7" cx="513.2" cy="233" r="0.8"/>
    <circle id="leftJaw6" cx="523.2" cy="226.3" r="0.8"/>
    <circle id="leftJaw5" cx="534.8" cy="213.7" r="0.8"/>
    <circle id="leftJaw4" cx="541.6" cy="193.7" r="0.8"/>
    <circle id="leftJaw3" cx="542.4" cy="172.1" r="0.8"/>
    <circle id="leftJaw2" cx="542.4" cy="162.5" r="0.8"/>
    <circle id="leftJaw1" cx="541.6" cy="150.8" r="0.8"/>
    <circle id="leftJaw0" cx="539.1" cy="141.6" r="0.8"/>
    <polyline style="fill:none;stroke:#000000;stroke-miterlimit:10;" points="498.4,115.1 478.6,117.6 466.1,127.1 457.5,141.2 &#10;&#9;&#9;455,150.5 454.2,162.2 454.2,171.7 455,193.4 461.8,213.4 473.4,225.9 483.4,232.6 498.4,235.8 513.2,233 523.2,226.3 534.8,213.7 &#10;&#9;&#9;541.6,193.7 542.4,172.1 542.4,162.5 541.6,150.8 539.1,141.6 530.9,127.1 518.3,117.6 498.4,115.1 &#9;"/>
    <polyline style="fill:none;stroke:#000000;stroke-miterlimit:10;" points="462.4,152 466.4,148.3 472.6,147.3 479.9,147.3 &#10;&#9;&#9;489.7,151.3 &#9;"/>
    <polygon style="fill:none;stroke:#000000;stroke-miterlimit:10;" points="468.6,160.2 473.8,156.5 480.1,156.5 485.3,160.7 &#10;&#9;&#9;480.1,161.7 473.8,162.5 &#9;"/>
    <polyline style="fill:none;stroke:#000000;stroke-miterlimit:10;" points="486.9,178.3 492.1,178.3 497.6,179.1 497.6,173.8 &#10;&#9;&#9;497.6,166.7 497.6,161.2 497.6,155.4 &#9;"/>
    <polyline style="fill:none;stroke:#000000;stroke-miterlimit:10;" points="533.9,151.6 529.9,148.7 523.6,147.2 516.3,147.6 &#10;&#9;&#9;506.3,150.8 &#9;"/>
    <polygon style="fill:none;stroke:#000000;stroke-miterlimit:10;" points="528,160.2 522.7,156.5 516.4,156.5 511.3,160.7 &#10;&#9;&#9;516.4,161.7 522.7,162.5 &#9;"/>
    <polyline style="fill:none;stroke:#000000;stroke-miterlimit:10;" points="508,178.3 503,178.3 497.6,179.1 &#9;"/>
    <polygon style="fill:none;stroke:#000000;stroke-miterlimit:10;" points="480.9,200.4 487.8,197 494.3,195.9 498.4,196.8 &#10;&#9;&#9;502.6,195.9 509,197 515.9,200.4 509.5,206.7 502.4,209.5 498.4,210 494.3,209.5 487.3,206.7 &#9;"/>
    <polyline style="fill:none;stroke:#000000;stroke-miterlimit:10;" points="480.9,200.4 484.5,200.7 494.5,199.9 498.4,200.4 &#10;&#9;&#9;502.4,199.9 512.3,200.7 515.9,200.4 &#9;"/>
    <polyline style="fill:none;stroke:#000000;stroke-miterlimit:10;" points="480.9,200.4 484.5,200.7 494.5,202.8 498.4,203.6 &#10;&#9;&#9;502.4,202.8 512.3,200.7 515.9,200.4 &#9;"/>
    <circle id="rightTop0" cx="478.7" cy="117.6" r="0.8"/>
    <circle id="rightTop1" cx="466.1" cy="127.1" r="0.8"/>
  </g>
</svg>