<?xml version="1.0" encoding="utf-8"?>
<svg viewBox="0 0 500 500" xmlns="http://www.w3.org/2000/svg" xmlns:bx="https://boxy-svg.com">
  <g id="illustration_1_" transform="matrix(0.676911, 0, 0, 0.531521, -208.872284, -59.396461)" style="">
    <path d="M 76.981 -69.505 L 268.692 346.643 L -114.73 346.643 L 76.981 -69.505 Z" style="fill: rgb(205, 38, 197);" transform="matrix(0.979013, -0.203796, 0.127686, 0.994857, 244.834244, 82.392418)" bx:shape="triangle -114.73 -69.505 383.422 416.148 0.5 0 1@863123a2"/>
    <ellipse style="fill: rgb(228, 252, 13);" cx="621.552" cy="432.021" rx="93.483" ry="316.082"/>
    <path d="M 563.939 50.423 L 697.121 338.32 L 430.756 338.32 L 563.939 50.423 Z" style="fill: rgb(234, 29, 224);" transform="matrix(0.973555, 0.228453, -0.143732, 0.993435, 314.459534, -60.821236)" bx:shape="triangle 430.756 50.423 266.365 287.897 0.5 0 1@44c3b684"/>
    <circle style="fill: rgb(234, 227, 227);" transform="matrix(0.658333, 0, 0, 0.838411, 270.383514, 63.958694)" cx="436" cy="112" r="55.17245689653489"/>
    <circle style="fill: rgb(216, 216, 216);" transform="matrix(0.658333, 0, 0, 0.838411, 270.383514, 63.958694)" cx="598" cy="96" r="47.20169488482379"/>
    <circle style="fill: rgb(29, 1, 1);" transform="matrix(0.658333, 0, 0, 0.838411, 270.383514, 63.958694)" cx="442" cy="118" r="25.45584412271571"/>
    <circle style="fill: rgb(216, 216, 216);" transform="matrix(0.658333, 0, 0, 0.838411, 270.383514, 63.958694)" cx="590" cy="96" r="14.422205101855956"/>
    <circle style="fill: rgb(216, 216, 216);" transform="matrix(0.658333, 0, 0, 0.838411, 270.383514, 63.958694)" cx="598" cy="84" r="31.240998703626616"/>
    <circle style="fill: rgb(21, 2, 2);" transform="matrix(0.658333, 0, 0, 0.838411, 270.383514, 63.958694)" cx="586" cy="104" r="29.732137494637012"/>
    <path d="M 512.974 322.49 L 625.741 552.94 L 400.207 552.94 L 512.974 322.49 Z" style="fill: rgb(190, 24, 190);" transform="matrix(0.898994, -0.437962, 0.291468, 0.970361, 164.19809, 321.271576)" bx:shape="triangle 400.207 322.49 225.534 230.45 0.5 0 1@281a7f3f"/>
    <path d="M 322.448 210.091 L 377.335 315.955 L 267.56 315.955 L 322.448 210.091 Z" style="fill: rgb(226, 172, 26);" transform="matrix(0.819994, -0.572372, 0.403603, 0.937798, 194.216263, 285.461761)" bx:shape="triangle 267.56 210.091 109.775 105.864 0.5 0 1@37226779"/>
    <path d="M 448.371 299.755 L 497.919 381.776 L 398.822 381.776 L 448.371 299.755 Z" style="fill: rgb(214, 68, 68);" transform="matrix(0.590906, -0.806741, 0.662813, 0.787404, 158.930756, 555.738342)" bx:shape="triangle 398.822 299.755 99.097 82.021 0.5 0 1@8401994e"/>
    <path d="M 404.065 266.915 L 450.437 364.016 L 357.692 364.016 L 404.065 266.915 Z" style="fill: rgb(188, 130, 6);" transform="matrix(0.931509, 0.363719, -0.236239, 0.981285, 366.025513, -68.054893)" bx:shape="triangle 357.692 266.915 92.745 97.101 0.5 0 1@d6504c26"/>
    <path d="M 339.75 458.784 L 380.07 547.697 L 299.43 547.697 L 339.75 458.784 Z" style="fill: rgb(217, 51, 51);" transform="matrix(0.999608, -0.028005, 0.017272, 0.999908, 261.517853, 73.598602)" bx:shape="triangle 299.43 458.784 80.64 88.913 0.5 0 1@4faf0748"/>
    <path d="M 407.174 450.78 L 433.507 506.543 L 380.841 506.543 L 407.174 450.78 Z" style="fill: rgb(220, 47, 47);" transform="matrix(0.946414, 0.322957, -0.207419, 0.98584, 385.188538, -50.57177)" bx:shape="triangle 380.841 450.78 52.666 55.763 0.5 0 1@b23f7754"/>
    <path d="M 314.727 356.128 L 358.733 453.172 L 270.721 453.172 L 314.727 356.128 Z" style="fill: rgb(232, 54, 54);" transform="matrix(0.999633, 0.027077, -0.016699, 0.999914, 277.481903, 55.532272)" bx:shape="triangle 270.721 356.128 88.012 97.044 0.5 0 1@086819c6"/>
    <path d="M 357.25 547.455 L 390.105 618.162 L 324.394 618.162 L 357.25 547.455 Z" style="fill: rgb(223, 61, 61);" transform="matrix(0.967679, -0.252186, 0.159375, 0.991866, 182.783844, 166.273712)" bx:shape="triangle 324.394 547.455 65.711 70.707 0.5 0 1@6871acb2"/>
    <path d="M 280.03 449.281 L 305.429 504.949 L 254.63 504.949 L 280.03 449.281 Z" style="fill: rgb(232, 110, 110);" transform="matrix(0.991629, 0.129117, -0.080121, 0.998009, 310.80127, 30.332678)" bx:shape="triangle 254.63 449.281 50.799 55.668 0.5 0 1@8f477212"/>
    <path d="M 216.57 375.676 L 327.163 612.316 L 105.976 612.316 L 216.57 375.676 Z" style="fill: rgb(216, 216, 216);" transform="matrix(0.960124, 0.279574, -0.177701, 0.989788, 370.54129, 17.036602)" bx:shape="triangle 105.976 375.676 221.187 236.64 0.5 0 1@c2191837"/>
    <path d="M 318.41 512.218 L 341.79 558.464 L 295.029 558.464 L 318.41 512.218 Z" style="fill: rgb(240, 48, 48);" transform="matrix(0.854761, 0.519022, -0.356872, 0.953221, 493.534943, -45.474602)" bx:shape="triangle 295.029 512.218 46.761 46.246 0.5 0 1@96f79332"/>
    <path d="M 357.938 601.378 L 383.294 655.33 L 332.582 655.33 L 357.938 601.378 Z" style="fill: rgb(202, 30, 30);" transform="matrix(0.95275, -0.303754, 0.194152, 0.987693, 157.164902, 192.10968)" bx:shape="triangle 332.582 601.378 50.712 53.952 0.5 0 1@1a1ece7c"/>
    <path d="M 395.076 534.643 L 419.135 587.692 L 371.017 587.692 L 395.076 534.643 Z" style="fill: rgb(208, 42, 42);" transform="matrix(0.999495, 0.031766, -0.019593, 0.999882, 281.674866, 51.586128)" bx:shape="triangle 371.017 534.643 48.118 53.049 0.5 0 1@a0e9477c"/>
  </g>
  <g id="skeleton_1_" transform="matrix(0.676911, 0, 0, 0.531521, -208.872284, -59.396461)" style="">
    <circle id="rightShoulder" cx="572.3" cy="366.3" r="8.2"/>
    <circle id="rightElbow" cx="489.5" cy="343.4" r="8.2"/>
    <circle id="rightWrist" cx="393.8" cy="345.5" r="8.2"/>
    <circle id="rightHip" cx="581.1" cy="564.1" r="8.2"/>
    <circle id="rightKnee" cx="575.6" cy="725.2" r="8.2"/>
    <circle id="rightAnkle" cx="575.6" cy="933.2" r="8.2"/>
    <circle id="leftShoulder" cx="681.3" cy="366.4" r="8.2"/>
    <circle id="leftElbow" cx="765.3" cy="342.3" r="8.2"/>
    <circle id="leftWrist" cx="860.6" cy="344.5" r="8.2"/>
    <circle id="leftHip" cx="673.1" cy="563.3" r="8.2"/>
    <circle id="leftKnee" cx="685.6" cy="725.2" r="8.2"/>
    <circle id="leftAnkle" cx="685.6" cy="933.2" r="8.2"/>
    <polygon class="st14" points="572.2,366.6 581,564.4 673,563.6 681.2,366.7 &#9;" style="fill: none; stroke: rgb(0, 0, 0); stroke-miterlimit: 10;"/>
    <polyline class="st14" points="571.2,366.6 489.2,343.6 393.6,345.6 &#9;" style="fill: none; stroke: rgb(0, 0, 0); stroke-miterlimit: 10;"/>
    <polyline class="st14" points="682.7,366.3 765.5,342.5 860.7,344.8 &#9;" style="fill: none; stroke: rgb(0, 0, 0); stroke-miterlimit: 10;"/>
    <polyline class="st14" points="581,564.4 575.5,725.5 575.5,933.5 &#9;" style="fill: none; stroke: rgb(0, 0, 0); stroke-miterlimit: 10;"/>
    <polyline class="st14" points="673,563.6 685.5,725.5 685.5,933.5 &#9;" style="fill: none; stroke: rgb(0, 0, 0); stroke-miterlimit: 10;"/>
    <circle id="rightEye0" cx="594.7" cy="215.1" r="0.8"/>
    <circle id="rightBrow1" cx="592.5" cy="203.2" r="0.8"/>
    <circle id="rightBrow4" cx="615.8" cy="206.2" r="0.8"/>
    <circle id="nose1" cx="623.7" cy="216.1" r="0.8"/>
    <circle id="rightBrow3" cx="606" cy="202.2" r="0.8"/>
    <circle id="rightEye1" cx="599.9" cy="211.4" r="0.8"/>
    <circle id="rightBrow0" cx="588.5" cy="206.9" r="0.8"/>
    <circle id="rightBrow2" cx="598.7" cy="202.2" r="0.8"/>
    <circle id="rightEye5" cx="599.9" cy="217.4" r="0.8"/>
    <circle id="rightEye2" cx="606.2" cy="211.4" r="0.8"/>
    <circle id="rightEye3" cx="611.4" cy="215.6" r="0.8"/>
    <circle id="nose0" cx="623.7" cy="210.3" r="0.8"/>
    <circle id="nose3" cx="623.7" cy="228.7" r="0.8"/>
    <circle id="rightNose0" cx="613" cy="233.2" r="0.8"/>
    <circle id="rightMouthCorner" cx="607" cy="255.3" r="0.8"/>
    <circle id="rightNose1" cx="618.2" cy="233.2" r="0.8"/>
    <circle id="rightUpperLipTop0" cx="613.9" cy="251.9" r="0.8"/>
    <circle id="nose2" cx="623.7" cy="221.6" r="0.8"/>
    <circle id="nose4" cx="623.7" cy="234" r="0.8"/>
    <circle id="upperLipTopMid" cx="624.5" cy="251.7" r="0.8"/>
    <circle id="rightUpperLipTop1" cx="620.4" cy="250.8" r="0.8"/>
    <path id="rightMiddleLip" d="M610.6,254.8c0.4,0,0.8,0.4,0.8,0.8c0,0.4-0.4,0.8-0.8,0.8s-0.8-0.4-0.8-0.8S610.2,254.8,610.6,254.8z "/>
    <circle id="lowerLipBottomMid" cx="624.5" cy="264.9" r="0.8"/>
    <circle id="upperLipBottomMid" cx="624.5" cy="255.3" r="0.8"/>
    <circle id="lowerLipTopMid" cx="624.5" cy="258.4" r="0.8"/>
    <circle id="rightUpperLipBottom1" cx="620.6" cy="254.8" r="0.8"/>
    <circle id="rightLowerLipTop0" cx="620.6" cy="257.7" r="0.8"/>
    <circle id="rightLowerLipBottom1" cx="620.4" cy="264.4" r="0.8"/>
    <circle id="rightLowerLipBottom0" cx="613.4" cy="261.6" r="0.8"/>
    <circle id="rightEye4" cx="606.2" cy="216.6" r="0.8"/>
    <circle id="jawMid" cx="624.5" cy="290.7" r="0.8"/>
    <circle id="rightJaw7" cx="609.5" cy="287.5" r="0.8"/>
    <circle id="rightJaw6" cx="599.5" cy="280.8" r="0.8"/>
    <circle id="rightJaw5" cx="587.9" cy="268.3" r="0.8"/>
    <circle id="rightJaw4" cx="581.1" cy="248.3" r="0.8"/>
    <circle id="rightJaw3" cx="580.3" cy="226.6" r="0.8"/>
    <circle id="rightJaw2" cx="580.3" cy="217.1" r="0.8"/>
    <circle id="rightJaw1" cx="581.1" cy="205.4" r="0.8"/>
    <circle id="rightJaw0" cx="583.6" cy="196.1" r="0.8"/>
    <circle id="topMid" cx="624.7" cy="170" r="0.8"/>
    <circle id="leftTop0" cx="644.4" cy="172.5" r="0.8"/>
    <circle id="leftTop1" cx="657" cy="182" r="0.8"/>
    <circle id="leftEye0" cx="654.3" cy="215.1" r="0.8"/>
    <circle id="leftBrow1" cx="656.2" cy="203.6" r="0.8"/>
    <circle id="leftBrow4" cx="632.6" cy="205.7" r="0.8"/>
    <circle id="leftBrow3" cx="642.6" cy="202.5" r="0.8"/>
    <circle id="leftEye1" cx="649.1" cy="211.4" r="0.8"/>
    <circle id="leftBrow0" cx="660.2" cy="206.5" r="0.8"/>
    <circle id="leftBrow2" cx="649.9" cy="202.1" r="0.8"/>
    <circle id="leftEye5" cx="649.1" cy="217.4" r="0.8"/>
    <circle id="leftEye2" cx="642.8" cy="211.4" r="0.8"/>
    <circle id="leftEye3" cx="637.6" cy="215.6" r="0.8"/>
    <circle id="leftNose0" cx="634.1" cy="233.2" r="0.8"/>
    <circle id="leftMouthCorner" cx="642" cy="255.3" r="0.8"/>
    <circle id="leftNose1" cx="629.3" cy="233.2" r="0.8"/>
    <circle id="leftUpperLipTop0" cx="635.1" cy="251.9" r="0.8"/>
    <circle id="leftUpperLipTop1" cx="628.7" cy="250.8" r="0.8"/>
    <path id="leftMiddleLip" d="M638.4,254.8c0.4,0,0.8,0.4,0.8,0.8c0,0.4-0.4,0.8-0.8,0.8s-0.8-0.4-0.8-0.8S638,254.8,638.4,254.8z"/>
    <circle id="leftUpperLipBottom1" cx="628.5" cy="254.8" r="0.8"/>
    <circle id="leftLowerLipTop0" cx="628.5" cy="257.7" r="0.8"/>
    <circle id="leftLowerLipBottom1" cx="628.7" cy="264.4" r="0.8"/>
    <circle id="leftLowerLipBottom0" cx="635.6" cy="261.6" r="0.8"/>
    <circle id="leftEye4" cx="642.8" cy="216.6" r="0.8"/>
    <circle id="leftJaw7" cx="639.3" cy="287.9" r="0.8"/>
    <circle id="leftJaw6" cx="649.3" cy="281.2" r="0.8"/>
    <circle id="leftJaw5" cx="660.9" cy="268.6" r="0.8"/>
    <circle id="leftJaw4" cx="667.7" cy="248.6" r="0.8"/>
    <circle id="leftJaw3" cx="668.5" cy="227" r="0.8"/>
    <circle id="leftJaw2" cx="668.5" cy="217.4" r="0.8"/>
    <circle id="leftJaw1" cx="667.7" cy="205.7" r="0.8"/>
    <circle id="leftJaw0" cx="665.2" cy="196.5" r="0.8"/>
    <polyline class="st14" points="624.5,170 604.7,172.5 592.2,182 583.6,196.1 581.1,205.4 580.3,217.1 580.3,226.6 581.1,248.3 &#10;&#9;&#9;587.9,268.3 599.5,280.8 609.5,287.5 624.5,290.7 639.3,287.9 649.3,281.2 660.9,268.6 667.7,248.6 668.5,227 668.5,217.4 &#10;&#9;&#9;667.7,205.7 665.2,196.5 657,182 644.4,172.5 624.5,170 &#9;" style="fill: none; stroke: rgb(0, 0, 0); stroke-miterlimit: 10;"/>
    <polyline class="st14" points="588.5,206.9 592.5,203.2 598.7,202.2 606,202.2 615.8,206.2 &#9;" style="fill: none; stroke: rgb(0, 0, 0); stroke-miterlimit: 10;"/>
    <polygon class="st14" points="594.7,215.1 599.9,211.4 606.2,211.4 611.4,215.6 606.2,216.6 599.9,217.4 &#9;" style="fill: none; stroke: rgb(0, 0, 0); stroke-miterlimit: 10;"/>
    <polyline class="st14" points="613,233.2 618.2,233.2 623.7,234 623.7,228.7 623.7,221.6 623.7,216.1 623.7,210.3 &#9;" style="fill: none; stroke: rgb(0, 0, 0); stroke-miterlimit: 10;"/>
    <polyline class="st14" points="660,206.5 656,203.6 649.7,202.1 642.4,202.5 632.4,205.7 &#9;" style="fill: none; stroke: rgb(0, 0, 0); stroke-miterlimit: 10;"/>
    <polygon class="st14" points="654.1,215.1 648.8,211.4 642.5,211.4 637.4,215.6 642.5,216.6 648.8,217.4 &#9;" style="fill: none; stroke: rgb(0, 0, 0); stroke-miterlimit: 10;"/>
    <polyline class="st14" points="634.1,233.2 629.1,233.2 623.7,234 &#9;" style="fill: none; stroke: rgb(0, 0, 0); stroke-miterlimit: 10;"/>
    <polygon class="st14" points="607,255.3 613.9,251.9 620.4,250.8 624.5,251.7 628.7,250.8 635.1,251.9 642,255.3 635.6,261.6 &#10;&#9;&#9;628.5,264.4 624.5,264.9 620.4,264.4 613.4,261.6 &#9;" style="fill: none; stroke: rgb(0, 0, 0); stroke-miterlimit: 10;"/>
    <polyline class="st14" points="607,255.3 610.6,255.6 620.6,254.8 624.5,255.3 628.5,254.8 638.4,255.6 642,255.3 &#9;" style="fill: none; stroke: rgb(0, 0, 0); stroke-miterlimit: 10;"/>
    <polyline class="st14" points="607,255.3 610.6,255.6 620.6,257.7 624.5,258.5 628.5,257.7 638.4,255.6 642,255.3 &#9;" style="fill: none; stroke: rgb(0, 0, 0); stroke-miterlimit: 10;"/>
    <circle id="rightTop0" cx="604.8" cy="172.5" r="0.8"/>
    <circle id="rightTop1" cx="592.2" cy="182" r="0.8"/>
  </g>
</svg>