<?xml version="1.0" encoding="utf-8"?>
<svg viewBox="0 0 500 500" xmlns="http://www.w3.org/2000/svg">
  <g id="illustration_1_" transform="matrix(0.676911, 0, 0, 0.531521, -181.840134, -49.933411)" style="">
    <ellipse style="fill: rgb(57, 220, 78);" cx="621.329" cy="494.717" rx="215.141" ry="159.066"/>
    <ellipse style="fill: rgb(20, 214, 46);" cx="624.519" cy="294.87" rx="114.742" ry="72.303"/>
    <circle style="fill: rgb(66, 211, 33);" cx="192.557" cy="59.466" r="23.026" transform="matrix(1.477299, 0, 0, 1.881393, 268.632263, 93.944374)"/>
    <path d="M 419.231 446.325 C 419.231 436.755 408.934 440.119 403.693 435.67 C 391.777 425.553 381.167 426.537 365.446 426.537 C 363.687 426.537 353.43 425.095 352.298 426.537 C 351.014 428.173 347.908 432.128 346.322 434.148 C 344.034 437.061 343.759 450.03 342.736 453.936 C 332.328 493.704 369.993 509.959 388.155 533.088 C 396.786 544.081 401.817 552.665 406.083 563.532 C 406.68 565.051 408.783 572.27 407.278 574.187 C 405.319 576.682 397.764 575.709 394.131 575.709 C 383.374 575.709 372.617 575.709 361.86 575.709 C 360.324 575.709 349.922 574.169 348.712 575.709 C 344.918 580.541 337.62 594.643 341.541 604.63 C 342.718 607.628 353.493 610.003 353.493 610.719 C 353.493 612.241 351.103 610.719 349.908 610.719 C 349.292 610.719 346.242 611.531 345.127 612.241 C 343.552 613.243 327.456 620.179 331.979 625.94 C 333.971 628.477 341.939 623.403 343.931 625.94 C 345.55 628.002 342.229 632.675 341.541 633.551 C 339.699 635.897 331.509 649.696 335.565 654.861 C 336.41 655.938 338.082 654.181 339.151 654.861 C 349.406 661.392 361.201 649.271 367.836 636.595 C 372.625 627.447 383.318 623.958 391.741 616.807 C 408.283 602.762 426.201 595.497 445.526 595.497" style="stroke: rgb(0, 0, 0); fill: rgb(42, 164, 38);"/>
    <path d="M 835.169 469.157 C 833.974 468.65 832.71 468.353 831.584 467.635 C 830.576 466.994 833.701 465.983 833.974 464.591 C 836.397 452.249 830.553 471.127 836.365 460.025 C 837.715 457.445 837.124 453.291 839.95 450.892 C 842.973 448.325 842.126 446.599 844.731 443.281 C 845.776 441.95 849.524 442.512 850.707 441.759 C 858.285 436.933 863.295 432.626 873.417 432.626 C 875.547 432.626 884.027 430.916 885.369 432.626 C 895.75 445.846 889.708 474.287 880.588 485.901 C 877.215 490.196 875.155 500.662 871.026 504.167 C 868.679 506.16 865.917 507.629 863.855 510.256 C 858.305 517.324 860.005 524.965 857.879 533.088 C 855.597 541.805 854.293 547.664 854.293 557.443 C 854.293 558.602 853.609 564.183 854.293 565.054 C 855.336 566.382 857.714 570.933 859.074 572.665 C 862.018 576.415 868.126 575.06 871.026 578.753 C 871.97 579.955 878.12 578.753 879.393 578.753 C 885.354 578.753 892.128 580.013 897.321 583.32 C 899.312 584.588 906.964 592.349 903.297 597.019 C 900.915 600.052 899.961 599.427 898.516 603.108 C 896.91 607.199 887.452 597.802 885.369 603.108 C 882.66 610.007 895.311 614.801 892.54 618.329 C 889.821 621.792 884.797 614.888 881.783 616.807 C 877.395 619.602 881.952 625.725 879.393 628.985 C 878.634 629.951 869.271 629.254 868.636 628.985 C 864.905 627.401 869.034 627.97 867.44 625.94 C 863.845 621.361 857.189 618.974 854.293 615.285 C 853.055 613.708 852.973 608.879 851.902 606.152 C 848.213 596.755 843.5 589.886 837.56 584.842 C 834.458 582.209 828.862 585.392 825.607 583.32 C 821.652 580.801 815.092 579.06 812.46 575.709 C 811.37 574.32 806.484 576.876 806.484 574.187" style="stroke: rgb(0, 0, 0); fill: rgb(42, 164, 38);"/>
    <circle style="fill: rgb(89, 202, 64);" cx="276.463" cy="54.566" r="22.538" transform="matrix(1.477299, 0, 0, 1.881393, 268.632263, 93.944374)"/>
    <circle style="fill: rgb(38, 1, 1);" cx="191.748" cy="61.084" r="14.314" transform="matrix(1.477299, 0, 0, 1.881393, 268.632263, 93.944374)"/>
    <circle style="fill: rgb(50, 4, 4);" cx="273.181" cy="57.039" r="16.601" transform="matrix(1.477299, 0, 0, 1.881393, 268.632263, 93.944374)"/>
    <circle style="fill: rgb(243, 243, 243);" cx="267.799" cy="59.466" r="9.225" transform="matrix(1.477299, 0, 0, 1.881393, 268.632263, 93.944374)"/>
    <circle style="fill: rgb(255, 253, 253);" cx="190.129" cy="66.748" r="8.091" transform="matrix(1.477299, 0, 0, 1.881393, 268.632263, 93.944374)"/>
    <path d="M 591.344 284.975 C 604.932 291.899 614.416 294.11 629.591 294.11 C 631.851 294.11 640.658 295.876 642.738 294.11 C 645.369 291.874 654.063 291.863 655.886 289.542 C 656.725 288.473 661.626 284.975 664.251 284.975 C 666.642 284.975 665.321 291.385 664.251 294.11 C 659.283 306.766 650.612 319.986 636.762 319.986 C 633.246 319.986 628.966 320.712 627.199 318.464 C 626.783 317.932 623.862 319.094 623.614 318.464 C 620.327 310.09 603.749 303.53 596.124 298.676 C 591.942 296.014 587.528 283.453 596.124 283.453" style="stroke: rgb(0, 0, 0); fill: rgb(211, 16, 16);"/>
    <path d="M 620.029 295.631 C 620.029 286.435 621.02 282.191 624.81 277.365 C 625.904 275.971 624.81 264.362 624.81 262.143 C 624.81 260.314 625.836 251.274 624.81 249.966 C 621.864 246.214 616.719 238.844 615.248 233.222 C 614.54 230.52 611.924 218.929 610.467 218.001 C 603.042 213.273 601.4 200.103 598.515 189.08 C 597.593 185.56 594.859 164.815 597.319 161.681 C 600.244 157.955 602.194 149.265 604.491 143.415 C 607.054 136.885 612.483 137.802 615.248 134.282 C 616.748 132.37 620.106 129.003 623.614 131.237 C 625.644 132.53 625.644 143.645 623.614 144.937 C 613.907 151.118 609.272 161.394 609.272 178.424 C 609.272 180.605 608.182 190.736 609.272 192.124 C 614.398 198.653 619.942 213.324 624.81 219.523 C 625.769 220.745 628.315 220.233 629.59 221.045 C 629.701 221.116 631.663 226.864 631.981 227.134 C 639.088 233.167 643.14 244.9 647.519 256.055 C 650.441 263.499 647.136 281.385 645.128 286.498 C 644.169 288.942 644.657 292.887 642.738 294.109 C 642.025 294.563 640.347 293.094 640.347 294.109" style="stroke: rgb(0, 0, 0); fill: rgb(217, 13, 50);"/>
    <path d="M 635.567 131.237 C 635.567 116.978 643.584 116.905 647.519 106.883 C 648.497 104.39 654.607 94.6 657.081 97.75 C 657.943 98.848 657.081 105.123 657.081 106.883 C 657.081 116.498 643.429 127.312 639.152 132.76 C 638.128 134.063 630.063 136.405 631.981 138.848 C 632.574 139.603 637.117 138.848 637.957 138.848 C 644.332 138.848 650.706 138.848 657.081 138.848 C 659.174 138.848 664.351 137.577 665.447 140.37 C 670.448 153.108 648.514 154.703 642.738 151.025 C 641.989 150.549 639.843 145.817 639.152 144.937 C 638.129 143.633 633.176 143.232 633.176 141.892" style="stroke: rgb(0, 0, 0); fill: rgb(216, 216, 216);"/>
    <path d="M 626.005 122.104 C 626.005 116.586 628.39 112.964 631.981 117.538 C 636.762 123.627 632.822 134.903 635.567 141.892 C 636.131 143.331 638.249 150.654 636.762 152.548 C 632.355 158.159 630.192 147.992 629.59 146.459 C 626.383 138.29 624.81 135.932 624.81 123.627" style="stroke: rgb(0, 0, 0); fill: rgb(217, 13, 217);"/>
    <path d="M 626.005 128.193 C 626.005 117.621 618.285 114.144 611.662 109.927 C 609.431 108.506 605.527 111.348 603.295 109.927 C 602.216 109.239 597.59 106.538 596.124 108.405 C 593.995 111.116 598 117.971 599.71 119.06 C 605.43 122.703 614.228 125.373 617.638 129.715 C 618.807 131.204 622.271 129.339 623.614 132.76 C 625.131 136.624 622.09 137.745 621.224 138.848 C 620.046 140.348 620.029 150.238 620.029 152.548 C 620.029 153.691 619.482 162.855 620.029 163.203 C 620.194 163.308 626.736 165.906 627.2 164.725 C 628.498 161.42 626.936 151.361 629.59 147.981" style="stroke: rgb(0, 0, 0); fill: rgb(216, 216, 216);"/>
  </g>
  <g id="skeleton_1_" transform="matrix(0.676911, 0, 0, 0.531521, -181.840134, -49.933411)" style="">
    <circle id="rightShoulder" cx="572.3" cy="366.3" r="8.2"/>
    <circle id="rightElbow" cx="489.5" cy="343.4" r="8.2"/>
    <circle id="rightWrist" cx="393.8" cy="345.5" r="8.2"/>
    <circle id="rightHip" cx="581.1" cy="564.1" r="8.2"/>
    <circle id="rightKnee" cx="575.6" cy="725.2" r="8.2"/>
    <circle id="rightAnkle" cx="575.6" cy="933.2" r="8.2"/>
    <circle id="leftShoulder" cx="681.3" cy="366.4" r="8.2"/>
    <circle id="leftElbow" cx="765.3" cy="342.3" r="8.2"/>
    <circle id="leftWrist" cx="860.6" cy="344.5" r="8.2"/>
    <circle id="leftHip" cx="673.1" cy="563.3" r="8.2"/>
    <circle id="leftKnee" cx="685.6" cy="725.2" r="8.2"/>
    <circle id="leftAnkle" cx="685.6" cy="933.2" r="8.2"/>
    <polygon class="st14" points="572.2,366.6 581,564.4 673,563.6 681.2,366.7 &#9;" style="fill: none; stroke: rgb(0, 0, 0); stroke-miterlimit: 10;"/>
    <polyline class="st14" points="571.2,366.6 489.2,343.6 393.6,345.6 &#9;" style="fill: none; stroke: rgb(0, 0, 0); stroke-miterlimit: 10;"/>
    <polyline class="st14" points="682.7,366.3 765.5,342.5 860.7,344.8 &#9;" style="fill: none; stroke: rgb(0, 0, 0); stroke-miterlimit: 10;"/>
    <polyline class="st14" points="581,564.4 575.5,725.5 575.5,933.5 &#9;" style="fill: none; stroke: rgb(0, 0, 0); stroke-miterlimit: 10;"/>
    <polyline class="st14" points="673,563.6 685.5,725.5 685.5,933.5 &#9;" style="fill: none; stroke: rgb(0, 0, 0); stroke-miterlimit: 10;"/>
    <circle id="rightEye0" cx="594.7" cy="215.1" r="0.8"/>
    <circle id="rightBrow1" cx="592.5" cy="203.2" r="0.8"/>
    <circle id="rightBrow4" cx="615.8" cy="206.2" r="0.8"/>
    <circle id="nose1" cx="623.7" cy="216.1" r="0.8"/>
    <circle id="rightBrow3" cx="606" cy="202.2" r="0.8"/>
    <circle id="rightEye1" cx="599.9" cy="211.4" r="0.8"/>
    <circle id="rightBrow0" cx="588.5" cy="206.9" r="0.8"/>
    <circle id="rightBrow2" cx="598.7" cy="202.2" r="0.8"/>
    <circle id="rightEye5" cx="599.9" cy="217.4" r="0.8"/>
    <circle id="rightEye2" cx="606.2" cy="211.4" r="0.8"/>
    <circle id="rightEye3" cx="611.4" cy="215.6" r="0.8"/>
    <circle id="nose0" cx="623.7" cy="210.3" r="0.8"/>
    <circle id="nose3" cx="623.7" cy="228.7" r="0.8"/>
    <circle id="rightNose0" cx="613" cy="233.2" r="0.8"/>
    <circle id="rightMouthCorner" cx="607" cy="255.3" r="0.8"/>
    <circle id="rightNose1" cx="618.2" cy="233.2" r="0.8"/>
    <circle id="rightUpperLipTop0" cx="613.9" cy="251.9" r="0.8"/>
    <circle id="nose2" cx="623.7" cy="221.6" r="0.8"/>
    <circle id="nose4" cx="623.7" cy="234" r="0.8"/>
    <circle id="upperLipTopMid" cx="624.5" cy="251.7" r="0.8"/>
    <circle id="rightUpperLipTop1" cx="620.4" cy="250.8" r="0.8"/>
    <path id="rightMiddleLip" d="M610.6,254.8c0.4,0,0.8,0.4,0.8,0.8c0,0.4-0.4,0.8-0.8,0.8s-0.8-0.4-0.8-0.8S610.2,254.8,610.6,254.8z "/>
    <circle id="lowerLipBottomMid" cx="624.5" cy="264.9" r="0.8"/>
    <circle id="upperLipBottomMid" cx="624.5" cy="255.3" r="0.8"/>
    <circle id="lowerLipTopMid" cx="624.5" cy="258.4" r="0.8"/>
    <circle id="rightUpperLipBottom1" cx="620.6" cy="254.8" r="0.8"/>
    <circle id="rightLowerLipTop0" cx="620.6" cy="257.7" r="0.8"/>
    <circle id="rightLowerLipBottom1" cx="620.4" cy="264.4" r="0.8"/>
    <circle id="rightLowerLipBottom0" cx="613.4" cy="261.6" r="0.8"/>
    <circle id="rightEye4" cx="606.2" cy="216.6" r="0.8"/>
    <circle id="jawMid" cx="624.5" cy="290.7" r="0.8"/>
    <circle id="rightJaw7" cx="609.5" cy="287.5" r="0.8"/>
    <circle id="rightJaw6" cx="599.5" cy="280.8" r="0.8"/>
    <circle id="rightJaw5" cx="587.9" cy="268.3" r="0.8"/>
    <circle id="rightJaw4" cx="581.1" cy="248.3" r="0.8"/>
    <circle id="rightJaw3" cx="580.3" cy="226.6" r="0.8"/>
    <circle id="rightJaw2" cx="580.3" cy="217.1" r="0.8"/>
    <circle id="rightJaw1" cx="581.1" cy="205.4" r="0.8"/>
    <circle id="rightJaw0" cx="583.6" cy="196.1" r="0.8"/>
    <circle id="topMid" cx="624.7" cy="170" r="0.8"/>
    <circle id="leftTop0" cx="644.4" cy="172.5" r="0.8"/>
    <circle id="leftTop1" cx="657" cy="182" r="0.8"/>
    <circle id="leftEye0" cx="654.3" cy="215.1" r="0.8"/>
    <circle id="leftBrow1" cx="656.2" cy="203.6" r="0.8"/>
    <circle id="leftBrow4" cx="632.6" cy="205.7" r="0.8"/>
    <circle id="leftBrow3" cx="642.6" cy="202.5" r="0.8"/>
    <circle id="leftEye1" cx="649.1" cy="211.4" r="0.8"/>
    <circle id="leftBrow0" cx="660.2" cy="206.5" r="0.8"/>
    <circle id="leftBrow2" cx="649.9" cy="202.1" r="0.8"/>
    <circle id="leftEye5" cx="649.1" cy="217.4" r="0.8"/>
    <circle id="leftEye2" cx="642.8" cy="211.4" r="0.8"/>
    <circle id="leftEye3" cx="637.6" cy="215.6" r="0.8"/>
    <circle id="leftNose0" cx="634.1" cy="233.2" r="0.8"/>
    <circle id="leftMouthCorner" cx="642" cy="255.3" r="0.8"/>
    <circle id="leftNose1" cx="629.3" cy="233.2" r="0.8"/>
    <circle id="leftUpperLipTop0" cx="635.1" cy="251.9" r="0.8"/>
    <circle id="leftUpperLipTop1" cx="628.7" cy="250.8" r="0.8"/>
    <path id="leftMiddleLip" d="M638.4,254.8c0.4,0,0.8,0.4,0.8,0.8c0,0.4-0.4,0.8-0.8,0.8s-0.8-0.4-0.8-0.8S638,254.8,638.4,254.8z"/>
    <circle id="leftUpperLipBottom1" cx="628.5" cy="254.8" r="0.8"/>
    <circle id="leftLowerLipTop0" cx="628.5" cy="257.7" r="0.8"/>
    <circle id="leftLowerLipBottom1" cx="628.7" cy="264.4" r="0.8"/>
    <circle id="leftLowerLipBottom0" cx="635.6" cy="261.6" r="0.8"/>
    <circle id="leftEye4" cx="642.8" cy="216.6" r="0.8"/>
    <circle id="leftJaw7" cx="639.3" cy="287.9" r="0.8"/>
    <circle id="leftJaw6" cx="649.3" cy="281.2" r="0.8"/>
    <circle id="leftJaw5" cx="660.9" cy="268.6" r="0.8"/>
    <circle id="leftJaw4" cx="667.7" cy="248.6" r="0.8"/>
    <circle id="leftJaw3" cx="668.5" cy="227" r="0.8"/>
    <circle id="leftJaw2" cx="668.5" cy="217.4" r="0.8"/>
    <circle id="leftJaw1" cx="667.7" cy="205.7" r="0.8"/>
    <circle id="leftJaw0" cx="665.2" cy="196.5" r="0.8"/>
    <polyline class="st14" points="624.5,170 604.7,172.5 592.2,182 583.6,196.1 581.1,205.4 580.3,217.1 580.3,226.6 581.1,248.3 &#10;&#9;&#9;587.9,268.3 599.5,280.8 609.5,287.5 624.5,290.7 639.3,287.9 649.3,281.2 660.9,268.6 667.7,248.6 668.5,227 668.5,217.4 &#10;&#9;&#9;667.7,205.7 665.2,196.5 657,182 644.4,172.5 624.5,170 &#9;" style="fill: none; stroke: rgb(0, 0, 0); stroke-miterlimit: 10;"/>
    <polyline class="st14" points="588.5,206.9 592.5,203.2 598.7,202.2 606,202.2 615.8,206.2 &#9;" style="fill: none; stroke: rgb(0, 0, 0); stroke-miterlimit: 10;"/>
    <polygon class="st14" points="594.7,215.1 599.9,211.4 606.2,211.4 611.4,215.6 606.2,216.6 599.9,217.4 &#9;" style="fill: none; stroke: rgb(0, 0, 0); stroke-miterlimit: 10;"/>
    <polyline class="st14" points="613,233.2 618.2,233.2 623.7,234 623.7,228.7 623.7,221.6 623.7,216.1 623.7,210.3 &#9;" style="fill: none; stroke: rgb(0, 0, 0); stroke-miterlimit: 10;"/>
    <polyline class="st14" points="660,206.5 656,203.6 649.7,202.1 642.4,202.5 632.4,205.7 &#9;" style="fill: none; stroke: rgb(0, 0, 0); stroke-miterlimit: 10;"/>
    <polygon class="st14" points="654.1,215.1 648.8,211.4 642.5,211.4 637.4,215.6 642.5,216.6 648.8,217.4 &#9;" style="fill: none; stroke: rgb(0, 0, 0); stroke-miterlimit: 10;"/>
    <polyline class="st14" points="634.1,233.2 629.1,233.2 623.7,234 &#9;" style="fill: none; stroke: rgb(0, 0, 0); stroke-miterlimit: 10;"/>
    <polygon class="st14" points="607,255.3 613.9,251.9 620.4,250.8 624.5,251.7 628.7,250.8 635.1,251.9 642,255.3 635.6,261.6 &#10;&#9;&#9;628.5,264.4 624.5,264.9 620.4,264.4 613.4,261.6 &#9;" style="fill: none; stroke: rgb(0, 0, 0); stroke-miterlimit: 10;"/>
    <polyline class="st14" points="607,255.3 610.6,255.6 620.6,254.8 624.5,255.3 628.5,254.8 638.4,255.6 642,255.3 &#9;" style="fill: none; stroke: rgb(0, 0, 0); stroke-miterlimit: 10;"/>
    <polyline class="st14" points="607,255.3 610.6,255.6 620.6,257.7 624.5,258.5 628.5,257.7 638.4,255.6 642,255.3 &#9;" style="fill: none; stroke: rgb(0, 0, 0); stroke-miterlimit: 10;"/>
    <circle id="rightTop0" cx="604.8" cy="172.5" r="0.8"/>
    <circle id="rightTop1" cx="592.2" cy="182" r="0.8"/>
  </g>
</svg>