<?xml version="1.0" encoding="utf-8"?>
<!-- Generator: Adobe Illustrator 17.0.0, SVG Export Plug-In . SVG Version: 6.00 Build 0)  -->
<!DOCTYPE svg PUBLIC "-//W3C//DTD SVG 1.1//EN" "http://www.w3.org/Graphics/SVG/1.1/DTD/svg11.dtd">
<svg version="1.1" id="Layer_2" xmlns="http://www.w3.org/2000/svg" xmlns:xlink="http://www.w3.org/1999/xlink" x="0px" y="0px"
	 width="612px" height="792px" viewBox="0 0 612 792" enable-background="new 0 0 612 792" xml:space="preserve">
<g id="illustration">
	<path fill="#3B4FA2" d="M303.43,227.471c0,3.557-2.676,1.295-7.855,1.295c-5.179,0-10.851,1.582-10.851-1.975
		s5.672-8.273,10.851-8.273C300.755,218.517,303.43,223.913,303.43,227.471z"/>
	<path fill="#3B4FA2" d="M323.577,227.843c0,3.698-2.214,0.657-6.331,0.657s-8.261,1.092-8.261-2.606
		c0-3.698,4.144-8.048,8.261-8.048S323.577,224.145,323.577,227.843z"/>
	<path fill="#65AA6F" d="M301.574,230.578c-0.386,0.25,0.783,2.95,0.783,2.95s-2.825-2.255-3.692-2.498
		c-2.771-0.777,4.01,6.248,4.01,6.248h1.544h2.046l0.357-2.247l1.484-0.384c0,0,1.976-3.669,1.37-4.546
		c-0.794-1.15-4.35,2.739-4.35,2.739s0.807-7.461,0.116-7.152c-0.52,0.233-1.151,5.361-1.53,5.79
		C303.35,231.887,301.941,230.341,301.574,230.578z"/>
	<path fill="#B8D65E" d="M304.618,248.15l0.294,3.831c0,0-3.77-2.031-4.41-0.782c-1.084,2.114,4.869,6.76,4.869,6.76h2.232h2.957
		h1.671c0,0,0.982-2.47,1.007-3.124c0.153-4.031,1.051-7.149,0.004-8.503c-1.263-1.632-4.327,4.554-4.327,4.554l-2.037-5.764
		c0,0-1.698-1.149-2.247-0.466C304.107,245.307,304.618,248.15,304.618,248.15z"/>
	<path fill="#65AA6F" d="M305.053,251.405l0.242,2.559c0,0-3.098-1.357-3.623-0.523c-0.89,1.413,4,4.517,4,4.517h1.833h2.43h1.373
		c0,0,0.807-1.65,0.827-2.087c0.126-2.693,0.864-4.777,0.003-5.681c-1.037-1.091-3.555,3.042-3.555,3.042l-1.673-3.851
		c0,0-1.395-0.768-1.846-0.311C304.634,249.505,305.053,251.405,305.053,251.405z"/>
	<path fill="#9B1B45" d="M302.125,226.147c-0.529,1.305-1.372-0.35-3.811-0.35s-6.431,1.909-6.431,0.459s0.94-7.05,6.104-5.725
		C300.372,221.143,302.889,224.265,302.125,226.147z"/>
	<path fill="#9B1B45" d="M321.865,226.807c0,2.268-3.391,1.302-6.747,0.476c-3.241-0.798-5.84,0.454-5.84-1.814
		s3.661-4.983,6.954-4.983S321.865,224.539,321.865,226.807z"/>
	<path fill="#F8C7D7" d="M313.653,224.053c-0.134,0.97-0.563,0.648-1.451,0.648c-0.888,0-0.746-1.034-0.746-1.395
		c0-0.362,0.666-0.991,2.058-0.991C314.078,222.672,313.864,223.656,313.653,224.053z"/>
	<path fill="#F8C7D7" d="M294.487,221.253c-0.134,0.97-0.563,0.648-1.451,0.648c-0.888,0-0.746-1.034-0.746-1.395
		c0-0.362,0.666-0.991,2.058-0.991C294.912,219.871,294.697,220.855,294.487,221.253z"/>
	<path fill="#F8C7D7" d="M316.926,225.57c-0.064,0.557-0.267,0.372-0.687,0.372s-0.353-0.593-0.353-0.801s0.315-0.569,0.974-0.569
		C317.127,224.777,317.025,225.342,316.926,225.57z"/>
	<path fill="#F8C7D7" d="M310.489,225.57c-0.064,0.557-0.267,0.372-0.687,0.372s-0.353-0.593-0.353-0.801s0.315-0.569,0.974-0.569
		C310.69,224.777,310.589,225.342,310.489,225.57z"/>
	<path fill="#F8C7D7" d="M296.302,225.347c-0.064,0.557-0.267,0.372-0.687,0.372c-0.42,0-0.353-0.593-0.353-0.801
		c0-0.208,0.315-0.569,0.974-0.569C296.503,224.554,296.402,225.119,296.302,225.347z"/>
	<path fill="#F8C7D7" d="M293.06,224.106c-0.064,0.557-0.267,0.372-0.687,0.372s-0.353-0.593-0.353-0.801
		c0-0.208,0.315-0.569,0.974-0.569C293.261,223.313,293.16,223.879,293.06,224.106z"/>
	<path fill="#F8C7D7" d="M290.677,224.806c-0.064,0.557-0.267,0.372-0.687,0.372s-0.353-0.593-0.353-0.801s0.315-0.569,0.974-0.569
		C290.878,224.013,290.777,224.578,290.677,224.806z"/>
	<path fill="#F8C7D7" d="M294.209,226.45c-0.064,0.557-0.267,0.372-0.687,0.372s-0.353-0.593-0.353-0.801s0.315-0.569,0.974-0.569
		C294.41,225.657,294.308,226.222,294.209,226.45z"/>
	<path fill="#F8C7D7" d="M290.236,228.028c-0.086,0.657-0.361,0.439-0.93,0.439s-0.478-0.7-0.478-0.945s0.427-0.671,1.319-0.671
		C290.508,227.093,290.371,227.759,290.236,228.028z"/>
	<path fill="#F8C7D7" d="M292.177,226.046c-0.064,0.557-0.267,0.372-0.687,0.372c-0.42,0-0.353-0.593-0.353-0.801
		c0-0.208,0.315-0.569,0.974-0.569C292.378,225.253,292.276,225.819,292.177,226.046z"/>
	<path fill="#F8C7D7" d="M296.94,222.949c0.208,0.557,0.872,0.372,2.247,0.372s1.155-0.593,1.155-0.801s-1.031-0.569-3.188-0.569
		C296.282,222.156,296.614,222.722,296.94,222.949z"/>
	<path fill="#F8C7D7" d="M319.262,225.051c-0.064,0.557-0.267,0.372-0.687,0.372c-0.42,0-0.353-0.593-0.353-0.801
		s0.315-0.569,0.974-0.569C319.463,224.258,319.362,224.823,319.262,225.051z"/>
	<path fill="#F8C7D7" d="M318.688,227.401c-0.064,0.557-0.267,0.372-0.687,0.372c-0.42,0-0.353-0.593-0.353-0.801
		c0-0.208,0.315-0.569,0.974-0.569C318.889,226.608,318.787,227.173,318.688,227.401z"/>
	<path fill="#F8C7D7" d="M315.769,222.642c-0.067,0.734-0.281,0.49-0.724,0.49c-0.443,0-0.372-0.782-0.372-1.055
		s0.332-0.749,1.027-0.749C315.981,221.597,315.874,222.341,315.769,222.642z"/>
	<path fill="#4E4EA1" d="M313.867,243.21c-0.544,7.168-4.884,3.956-9.626,3.956c-5.639,0-7.439,3.213-8.338-2.937
		c-0.468-3.202,3.911-5.813,8.653-5.813S313.267,239.107,313.867,243.21z"/>
	<path fill="#9B1B45" d="M311.042,245.335c0,2.268-2.803,1.311-6.096,1.311s-5.826,0.957-5.826-1.311s2.715-3.748,6.007-3.748
		S311.042,243.067,311.042,245.335z"/>
	<path fill="#F8C7D7" d="M310.489,243.931c-0.064,0.557-0.267,0.372-0.687,0.372s-0.353-0.593-0.353-0.801
		c0-0.208,0.315-0.569,0.974-0.569C310.69,243.138,310.589,243.703,310.489,243.931z"/>
	<path fill="#F8C7D7" d="M307.37,243.584c-0.064,0.557-0.267,0.372-0.687,0.372s-0.353-0.593-0.353-0.801s0.315-0.569,0.974-0.569
		C307.571,242.791,307.47,243.356,307.37,243.584z"/>
	<path fill="#F8C7D7" d="M305.976,242.884c-0.064,0.557-0.267,0.372-0.687,0.372s-0.353-0.593-0.353-0.801
		c0-0.208,0.315-0.569,0.974-0.569C306.177,242.091,306.076,242.656,305.976,242.884z"/>
	<path fill="#F8C7D7" d="M304.265,244.098c-0.064,0.557-0.267,0.372-0.687,0.372c-0.42,0-0.353-0.593-0.353-0.801
		c0-0.208,0.315-0.569,0.974-0.569C304.467,243.305,304.365,243.871,304.265,244.098z"/>
	<path fill="#F8C7D7" d="M303.521,242.036c-0.041,0.278-0.173,0.186-0.445,0.186c-0.272,0-0.229-0.297-0.229-0.4
		s0.204-0.284,0.632-0.284C303.652,241.639,303.586,241.922,303.521,242.036z"/>
	<path fill="#F8C7D7" d="M304.675,242.385c-0.041,0.278-0.173,0.186-0.445,0.186s-0.229-0.297-0.229-0.4
		c0-0.104,0.204-0.284,0.632-0.284C304.805,241.989,304.739,242.271,304.675,242.385z"/>
	<path fill="#F8C7D7" d="M302.501,244.098c-0.064,0.557-0.267,0.372-0.687,0.372s-0.353-0.593-0.353-0.801
		c0-0.208,0.315-0.569,0.974-0.569C302.702,243.305,302.601,243.871,302.501,244.098z"/>
	<path fill="#F8C7D7" d="M306.951,241.135c-0.064,0.557-0.267,0.372-0.687,0.372s-0.353-0.593-0.353-0.801s0.315-0.569,0.974-0.569
		C307.152,240.342,307.05,240.908,306.951,241.135z"/>
	<path fill="#F8C7D7" d="M308.747,242.884c-0.064,0.557-0.267,0.372-0.687,0.372s-0.353-0.593-0.353-0.801
		c0-0.208,0.315-0.569,0.974-0.569C308.948,242.091,308.847,242.656,308.747,242.884z"/>
</g>
<g id="Layer_1_1_" display="none">
	<path display="inline" fill="#FFFFFF" stroke="#010101" stroke-miterlimit="10" d="M282.755,304.383"/>
	<circle display="inline" fill="#FFFFFF" stroke="#010101" stroke-miterlimit="10" cx="316.058" cy="225.741" r="6.426"/>
	<circle display="inline" fill="#FFFFFF" stroke="#010101" stroke-miterlimit="10" cx="291.68" cy="224.415" r="4.947"/>
	<g id="skeleton_1_" display="inline">
		<polygon fill="none" stroke="#010101" stroke-miterlimit="10" points="251.594,292.245 277.247,402.303 336.611,401.895 
			360.173,292.245 		"/>
		<polyline fill="none" stroke="#010101" stroke-miterlimit="10" points="251.084,292.245 198.707,292.245 115.424,295.458 		"/>
		<polyline fill="none" stroke="#010101" stroke-miterlimit="10" points="360.938,292.041 413.57,292.041 496.853,295.305 		"/>
		<polyline fill="none" stroke="#010101" stroke-miterlimit="10" points="277.247,402.303 280.511,484.005 280.511,590.085 		"/>
		<polyline fill="none" stroke="#010101" stroke-miterlimit="10" points="336.611,401.895 336.611,484.005 336.611,590.085 		"/>
		<polyline fill="none" stroke="#010101" stroke-miterlimit="10" points="305.501,200.7 295.403,201.975 289.028,206.82 
			284.642,214.011 283.367,218.754 282.959,224.721 282.959,229.566 283.367,240.633 286.835,250.833 292.751,257.208 
			297.851,260.625 305.501,262.257 313.049,260.829 318.149,257.412 324.065,250.986 327.533,240.786 327.941,229.77 
			327.941,224.874 327.533,218.907 326.258,214.215 322.076,206.82 315.65,201.975 305.501,200.7 		"/>
		<polyline fill="none" stroke="#010101" stroke-miterlimit="10" points="287.141,219.519 289.181,217.632 292.343,217.122 
			296.066,217.122 301.064,219.162 		"/>
		<polygon fill="none" stroke="#010101" stroke-miterlimit="10" points="290.303,223.701 292.955,221.814 296.168,221.814 
			298.82,223.956 296.168,224.466 292.955,224.874 		"/>
		<polyline fill="none" stroke="#010101" stroke-miterlimit="10" points="299.636,232.932 302.288,232.932 305.093,233.34 
			305.093,230.637 305.093,227.016 305.093,224.211 305.093,221.253 		"/>
		<polyline fill="none" stroke="#010101" stroke-miterlimit="10" points="323.606,219.315 321.566,217.836 318.353,217.071 
			314.63,217.275 309.53,218.907 		"/>
		<polygon fill="none" stroke="#010101" stroke-miterlimit="10" points="320.597,223.701 317.894,221.814 314.681,221.814 
			312.08,223.956 314.681,224.466 317.894,224.874 		"/>
		<polyline fill="none" stroke="#010101" stroke-miterlimit="10" points="310.397,232.932 307.847,232.932 305.093,233.34 		"/>
		<polygon fill="none" stroke="#010101" stroke-miterlimit="10" points="296.576,244.203 300.095,242.469 303.41,241.908 
			305.501,242.367 307.643,241.908 310.907,242.469 314.426,244.203 311.162,247.416 307.541,248.844 305.501,249.099 
			303.41,248.844 299.84,247.416 		"/>
		<polyline fill="none" stroke="#010101" stroke-miterlimit="10" points="296.576,244.203 298.412,244.356 303.512,243.948 
			305.501,244.203 307.541,243.948 312.59,244.356 314.426,244.203 		"/>
		<polyline fill="none" stroke="#010101" stroke-miterlimit="10" points="296.576,244.203 298.412,244.356 303.512,245.427 
			305.501,245.835 307.541,245.427 312.59,244.356 314.426,244.203 		"/>
		<circle id="rightShoulder" fill="#010101" cx="251.645" cy="292.092" r="4.182"/>
		<circle id="rightElbow" fill="#010101" cx="198.86" cy="292.143" r="4.182"/>
		<circle id="rightWrist" fill="#010101" cx="115.526" cy="295.407" r="4.182"/>
		<circle id="rightHip" fill="#010101" cx="277.298" cy="402.15" r="4.182"/>
		<circle id="rightKnee" fill="#010101" cx="280.562" cy="483.852" r="4.182"/>
		<circle id="rightAnkle" fill="#010101" cx="280.562" cy="589.932" r="4.182"/>
		<circle id="leftElbow" fill="#010101" cx="413.468" cy="291.939" r="4.182"/>
		<circle id="leftWrist" fill="#010101" cx="496.802" cy="295.152" r="4.182"/>
		<circle id="leftHip" fill="#010101" cx="336.662" cy="401.742" r="4.182"/>
		<circle id="leftKnee" fill="#010101" cx="336.662" cy="483.852" r="4.182"/>
		<circle id="leftAnkle" fill="#010101" cx="336.662" cy="589.932" r="4.182"/>
		<circle id="rightEye0" fill="#010101" cx="290.303" cy="223.701" r="0.408"/>
		<circle id="rightBrow1" fill="#010101" cx="289.181" cy="217.632" r="0.408"/>
		<circle id="rightBrow4" fill="#010101" cx="301.064" cy="219.162" r="0.408"/>
		<circle id="nose1" fill="#010101" cx="305.093" cy="224.211" r="0.408"/>
		<circle id="rightBrow3" fill="#010101" cx="296.066" cy="217.122" r="0.408"/>
		<circle id="rightEye1" fill="#010101" cx="292.955" cy="221.814" r="0.408"/>
		<circle id="rightBrow0" fill="#010101" cx="287.141" cy="219.519" r="0.408"/>
		<circle id="rightBrow2" fill="#010101" cx="292.343" cy="217.122" r="0.408"/>
		<circle id="rightEye5" fill="#010101" cx="292.955" cy="224.874" r="0.408"/>
		<circle id="rightEye2" fill="#010101" cx="296.168" cy="221.814" r="0.408"/>
		<circle id="rightEye3" fill="#010101" cx="298.82" cy="223.956" r="0.408"/>
		<circle id="nose0" fill="#010101" cx="305.093" cy="221.253" r="0.408"/>
		<circle id="nose3" fill="#010101" cx="305.093" cy="230.637" r="0.408"/>
		<circle id="rightNose0" fill="#010101" cx="299.636" cy="232.932" r="0.408"/>
		<circle id="rightMouthCorner" fill="#010101" cx="296.576" cy="244.203" r="0.408"/>
		<circle id="rightNose1" fill="#010101" cx="302.288" cy="232.932" r="0.408"/>
		<circle id="rightUpperLipTop0" fill="#010101" cx="300.095" cy="242.469" r="0.408"/>
		<circle id="nose2" fill="#010101" cx="305.093" cy="227.016" r="0.408"/>
		<circle id="nose4" fill="#010101" cx="305.093" cy="233.34" r="0.408"/>
		<circle id="upperLipTopMid" fill="#010101" cx="305.501" cy="242.367" r="0.408"/>
		<circle id="rightUpperLipTop1" fill="#010101" cx="303.41" cy="241.908" r="0.408"/>
		<path id="rightMiddleLip" fill="#010101" d="M298.412,243.948c0.204,0,0.408,0.204,0.408,0.408c0,0.204-0.204,0.408-0.408,0.408
			s-0.408-0.204-0.408-0.408C298.004,244.152,298.208,243.948,298.412,243.948z"/>
		<circle id="lowerLipBottomMid" fill="#010101" cx="305.501" cy="249.099" r="0.408"/>
		<circle id="upperLipBottomMid" fill="#010101" cx="305.501" cy="244.203" r="0.408"/>
		<circle id="lowerLipTopMid" fill="#010101" cx="305.501" cy="245.784" r="0.408"/>
		<circle id="rightUpperLipBottom1" fill="#010101" cx="303.512" cy="243.948" r="0.408"/>
		<circle id="rightLowerLipTop0" fill="#010101" cx="303.512" cy="245.427" r="0.408"/>
		<circle id="rightLowerLipBottom1" fill="#010101" cx="303.41" cy="248.844" r="0.408"/>
		<circle id="rightLowerLipBottom0" fill="#010101" cx="299.84" cy="247.416" r="0.408"/>
		<circle id="rightEye4" fill="#010101" cx="296.168" cy="224.466" r="0.408"/>
		<circle id="jawMid" fill="#010101" cx="305.501" cy="262.257" r="0.408"/>
		<circle id="rightJaw7" fill="#010101" cx="297.851" cy="260.625" r="0.408"/>
		<circle id="rightJaw6" fill="#010101" cx="292.751" cy="257.208" r="0.408"/>
		<circle id="rightJaw5" fill="#010101" cx="286.835" cy="250.833" r="0.408"/>
		<circle id="rightJaw4" fill="#010101" cx="283.367" cy="240.633" r="0.408"/>
		<circle id="rightJaw3" fill="#010101" cx="282.959" cy="229.566" r="0.408"/>
		<circle id="rightJaw2" fill="#010101" cx="282.959" cy="224.721" r="0.408"/>
		<circle id="rightJaw1" fill="#010101" cx="283.367" cy="218.754" r="0.408"/>
		<circle id="rightJaw0" fill="#010101" cx="284.642" cy="214.011" r="0.408"/>
		<circle id="topMid" fill="#010101" cx="305.603" cy="200.7" r="0.408"/>
		<circle id="leftTop0" fill="#010101" cx="315.65" cy="201.975" r="0.408"/>
		<circle id="leftTop1" fill="#010101" cx="322.076" cy="206.82" r="0.408"/>
		<circle id="leftEye0" fill="#010101" cx="320.699" cy="223.701" r="0.408"/>
		<circle id="leftBrow1" fill="#010101" cx="321.668" cy="217.836" r="0.408"/>
		<circle id="leftBrow4" fill="#010101" cx="309.632" cy="218.907" r="0.408"/>
		<circle id="leftBrow3" fill="#010101" cx="314.732" cy="217.275" r="0.408"/>
		<circle id="leftEye1" fill="#010101" cx="318.047" cy="221.814" r="0.408"/>
		<circle id="leftBrow0" fill="#010101" cx="323.708" cy="219.315" r="0.408"/>
		<circle id="leftBrow2" fill="#010101" cx="318.455" cy="217.071" r="0.408"/>
		<circle id="leftEye5" fill="#010101" cx="318.047" cy="224.874" r="0.408"/>
		<circle id="leftEye2" fill="#010101" cx="314.834" cy="221.814" r="0.408"/>
		<circle id="leftEye3" fill="#010101" cx="312.182" cy="223.956" r="0.408"/>
		<circle id="leftNose0" fill="#010101" cx="310.397" cy="232.932" r="0.408"/>
		<circle id="leftMouthCorner" fill="#010101" cx="314.426" cy="244.203" r="0.408"/>
		<circle id="leftNose1" fill="#010101" cx="307.949" cy="232.932" r="0.408"/>
		<circle id="leftUpperLipTop0" fill="#010101" cx="310.907" cy="242.469" r="0.408"/>
		<circle id="leftUpperLipTop1" fill="#010101" cx="307.643" cy="241.908" r="0.408"/>
		<path id="leftMiddleLip" fill="#010101" d="M312.59,243.948c0.204,0,0.408,0.204,0.408,0.408c0,0.204-0.204,0.408-0.408,0.408
			s-0.408-0.204-0.408-0.408C312.182,244.152,312.386,243.948,312.59,243.948z"/>
		<circle id="leftUpperLipBottom1" fill="#010101" cx="307.541" cy="243.948" r="0.408"/>
		<circle id="leftLowerLipTop0" fill="#010101" cx="307.541" cy="245.427" r="0.408"/>
		<circle id="leftLowerLipBottom1" fill="#010101" cx="307.643" cy="248.844" r="0.408"/>
		<circle id="leftLowerLipBottom0" fill="#010101" cx="311.162" cy="247.416" r="0.408"/>
		<circle id="leftEye4" fill="#010101" cx="314.834" cy="224.466" r="0.408"/>
		<circle id="leftJaw7" fill="#010101" cx="313.049" cy="260.829" r="0.408"/>
		<circle id="leftJaw6" fill="#010101" cx="318.149" cy="257.412" r="0.408"/>
		<circle id="leftJaw5" fill="#010101" cx="324.065" cy="250.986" r="0.408"/>
		<circle id="leftJaw4" fill="#010101" cx="327.533" cy="240.786" r="0.408"/>
		<circle id="leftJaw3" fill="#010101" cx="327.941" cy="229.77" r="0.408"/>
		<circle id="leftJaw2" fill="#010101" cx="327.941" cy="224.874" r="0.408"/>
		<circle id="leftJaw1" fill="#010101" cx="327.533" cy="218.907" r="0.408"/>
		<circle id="leftJaw0" fill="#010101" cx="326.258" cy="214.215" r="0.408"/>
		<circle id="rightTop0" fill="#010101" cx="295.454" cy="201.975" r="0.408"/>
		<circle id="rightTop1" fill="#010101" cx="289.028" cy="206.82" r="0.408"/>
		<circle id="leftShoulder" fill="#010101" cx="360.224" cy="292.092" r="4.182"/>
	</g>
</g>
</svg>
