<?xml version="1.0" encoding="UTF-8" standalone="no"?>
<!-- Generator: Adobe Illustrator 24.0.1, SVG Export Plug-In . SVG Version: 6.00 Build 0)  -->

<svg
   version="1.1"
   id="Layer_1"
   x="0px"
   y="0px"
   width="1200px"
   height="1200px"
   viewBox="0 0 1200 1200"
   style="enable-background:new 0 0 1200 1200;"
   xml:space="preserve"
   sodipodi:docname="blackpanther2.svg"
   inkscape:version="1.1 (c68e22c387, 2021-05-23)"
   xmlns:inkscape="http://www.inkscape.org/namespaces/inkscape"
   xmlns:sodipodi="http://sodipodi.sourceforge.net/DTD/sodipodi-0.dtd"
   xmlns="http://www.w3.org/2000/svg"
   xmlns:svg="http://www.w3.org/2000/svg"><defs
   id="defs492"><inkscape:path-effect
   effect="spiro"
   id="path-effect23023"
   is_visible="true"
   lpeversion="1" /><marker
   style="overflow:visible"
   id="Arrow1Lstart"
   refX="0.0"
   refY="0.0"
   orient="auto"
   inkscape:stockid="Arrow1Lstart"
   inkscape:isstock="true"><path
     transform="scale(0.8) translate(12.5,0)"
     style="fill-rule:evenodd;fill:context-stroke;stroke:context-stroke;stroke-width:1.0pt"
     d="M 0.0,0.0 L 5.0,-5.0 L -12.5,0.0 L 5.0,5.0 L 0.0,0.0 z "
     id="path17565" /></marker>
		
		
		
		
		
		
		
		
	</defs><sodipodi:namedview
   id="namedview490"
   pagecolor="#ffffff"
   bordercolor="#666666"
   borderopacity="1.0"
   inkscape:pageshadow="2"
   inkscape:pageopacity="0.0"
   inkscape:pagecheckerboard="0"
   showgrid="false"
   inkscape:lockguides="true"
   inkscape:zoom="0.35355339"
   inkscape:cx="-783.47431"
   inkscape:cy="704.27835"
   inkscape:window-width="1984"
   inkscape:window-height="1008"
   inkscape:window-x="12"
   inkscape:window-y="0"
   inkscape:window-maximized="0"
   inkscape:current-layer="illustration_1_"
   showguides="false"
   inkscape:object-paths="true" />
<g
   id="illustration_1_">
	<path
   style="fill:none;stroke:#01001f;stroke-width:19.3;stroke-linecap:round;stroke-linejoin:round;stroke-miterlimit:4;stroke-dasharray:none;stroke-opacity:1"
   d="m 714.2,549 c 9.15642,31.46362 28.16199,59.984 53.67564,80.54741 25.51364,20.5634 57.42026,33.07706 90.11083,35.34114 32.69058,2.26408 66.01763,-5.73163 94.12244,-22.58154 28.10481,-16.8499 50.86059,-42.47798 64.26699,-72.37895 4.4277,-9.87538 8.0479,-20.48995 15.5563,-28.28427 6.9924,-7.25868 17.1065,-11.40293 27.1818,-11.13779 10.0753,0.26515 19.9574,4.93561 26.5584,12.55201"
   id="path23021"
   inkscape:path-effect="#path-effect23023"
   inkscape:original-d="m 714.2,549 c 68.00749,4.71032 201.4516,13.95304 302.1759,20.92806 100.7243,6.97502 10.3719,-18.85518 15.5563,-28.28427 5.1845,-9.42909 35.8278,0.94381 53.7402,1.41422"
   sodipodi:nodetypes="cssc"
   inkscape:label="path23021"
   inkscape:highlight-color="202" /><path
   style="fill:#24221c"
   d="m 641.5,923 v 46.8 c 0,48.8 55.4,50.3 55.4,4.5 0,-17.26667 0,-34.53333 0,-51.8 z"
   id="path213"
   sodipodi:nodetypes="csccc" />
	
	
	
	<path
   style="fill:#24221c"
   d="M 544.6,923.2 V 970 c 0,48.8 55.4,50.3 55.4,4.5 v -51.8 z"
   id="path221" />
	<path
   style="fill:#24221c"
   d="M 518.9,549 467.98831,755.9868 544.6,923.2 600,922.7 533.81825,761.52944 606.46297,598.43326 611.6,586.9 h 25.9 L 708.21068,754.45837 637.5,933 703.3,922.7 774.04062,748.80152 730.2,549 Z"
   id="path223"
   sodipodi:nodetypes="cccccccccccccc" />
	
	
	
	<g
   id="g251">
		
		<path
   style="fill:#24221c"
   id="circle233"
   sodipodi:type="arc"
   sodipodi:cx="-182"
   sodipodi:cy="657"
   sodipodi:rx="28.619814"
   sodipodi:ry="30.656633"
   sodipodi:start="0.90219128"
   sodipodi:end="3.0567761"
   sodipodi:arc-type="slice"
   d="m -164.25881,681.05587 a 28.619814,30.656633 0 0 1 -29.11485,4.07598 28.619814,30.656633 0 0 1 -17.14327,-25.53478 L -182,657 Z"
   inkscape:label="circle233"
   transform="rotate(-90)" />
		<path
   style="fill:#24221c"
   id="circle235"
   sodipodi:type="arc"
   sodipodi:cx="591.22778"
   sodipodi:cy="169.73166"
   sodipodi:rx="22.115103"
   sodipodi:ry="33.442314"
   sodipodi:start="0.37173235"
   sodipodi:end="3.5204496"
   sodipodi:arc-type="slice"
   d="m 611.83241,181.87891 a 22.115103,33.442314 0 0 1 -17.31091,20.92208 22.115103,33.442314 0 0 1 -20.61818,-12.28337 22.115103,33.442314 0 0 1 -3.22241,-33.15489 l 20.54687,12.36893 z" />
		<circle
   id="jawMid_2_"
   cx="625.5"
   cy="284.10001"
   r="0.80000001" />
		<circle
   id="rightJaw7_2_"
   cx="614.59998"
   cy="282.10001"
   r="0.80000001" />
		<circle
   id="leftJaw7_2_"
   cx="636.40002"
   cy="282.10001"
   r="0.80000001" />
		<circle
   id="rightJaw3_2_"
   cx="580.29999"
   cy="226.60001"
   r="0.80000001" />
		<circle
   id="rightJaw2_2_"
   cx="580.29999"
   cy="217.10001"
   r="0.80000001" />
		<circle
   id="leftJaw3_2_"
   cx="668.5"
   cy="227"
   r="0.80000001" />
		<circle
   id="leftJaw2_2_"
   cx="668.5"
   cy="217.39999"
   r="0.80000001" />
		<circle
   id="topMid_2_"
   cx="624.70001"
   cy="166"
   r="0.80000001" />
		<circle
   id="leftTop0_2_"
   cx="642.40002"
   cy="168.5"
   r="0.80000001" />
		<circle
   id="rightTop0_2_"
   cx="606.79999"
   cy="168.5"
   r="0.80000001" />
		
		
	</g>
	<path
   style="fill:#24221c"
   d="m 518.9,549 c 26.98427,-61.88629 22.58427,-61.3741 14.9,-152.2 12.6,-23.6 -3.1127,-52.01371 13.6873,-62.91371 14.7,-9.5 61.6127,-2.78629 77.3127,-2.58629 15.6,0.2 62.4127,-8.94214 77.0127,0.65786 16.5,10.9 -4.8127,31.92744 7.6873,54.82744 8.21769,37.36479 -34.26854,95.27155 20.7,162.2147 z"
   id="path253"
   sodipodi:nodetypes="cccccccc" />
	<line
   style="fill:none"
   x1="741.40002"
   y1="564.79999"
   x2="508.60001"
   y2="564.79999"
   id="line255" />
	<ellipse
   style="fill:#ffffff"
   cx="625.40002"
   cy="351.29999"
   rx="22"
   ry="16.299999"
   id="ellipse257" />
	<path
   style="fill:#f3af9d"
   d="M 616.2,277.5"
   id="path259" />
	<path
   style="fill:#24221c;stroke-width:1.57728"
   d="m 605.9139,252.64138 h 43.5901 c 0,0 8.96829,73.59722 11.8882,101.62858 -4.37986,11.57039 -18.97942,13.4789 -32.32758,13.24034 C 611.96229,367.27173 595.90278,361.90403 593.4,352.6 Z"
   id="path261" />
	
	<g
   id="g277"
   transform="translate(-0.25,0.5)"
   style="fill:#24221c">
		<ellipse
   style="fill:#24221c"
   cx="625.20001"
   cy="228.3"
   rx="56.400002"
   ry="57.599998"
   id="ellipse265" />
		<circle
   id="jawMid_1_"
   cx="625.5"
   cy="284.10001"
   r="0.80000001"
   style="fill:#24221c" />
		<circle
   id="rightJaw7_1_"
   cx="614.59998"
   cy="282.10001"
   r="0.80000001"
   style="fill:#24221c" />
		<circle
   id="leftJaw7_1_"
   cx="636.40002"
   cy="282.10001"
   r="0.80000001"
   style="fill:#24221c" />
		<circle
   id="rightJaw3_1_"
   cx="580.29999"
   cy="226.60001"
   r="0.80000001"
   style="fill:#24221c" />
		<circle
   id="rightJaw2_1_"
   cx="580.29999"
   cy="217.10001"
   r="0.80000001"
   style="fill:#24221c" />
		<circle
   id="leftJaw3_1_"
   cx="668.5"
   cy="227"
   r="0.80000001"
   style="fill:#24221c" />
		<circle
   id="leftJaw2_1_"
   cx="668.5"
   cy="217.39999"
   r="0.80000001"
   style="fill:#24221c" />
		<circle
   id="topMid_3_"
   cx="624.70001"
   cy="166"
   r="0.80000001"
   style="fill:#24221c" />
		<circle
   id="leftTop0_3_"
   cx="642.40002"
   cy="168.5"
   r="0.80000001"
   style="fill:#24221c" />
		<circle
   id="rightTop0_3_"
   cx="606.79999"
   cy="168.5"
   r="0.80000001"
   style="fill:#24221c" />
	<path
   style="fill:#24221c;stroke:#000000;stroke-width:1px;stroke-linecap:butt;stroke-linejoin:miter;stroke-opacity:1"
   d="m 605.33176,209.7448 c -0.38429,0.93426 -0.82464,3.1615 -1.38935,4.00855 -0.0327,0.049 -0.15042,-0.0527 -0.17677,0 -0.0997,0.19939 -0.0991,0.65086 -0.17678,0.88389 -0.15609,0.46827 -0.16796,0.34473 -0.35355,0.53033 -0.0833,0.0833 0.0527,0.24814 0,0.35355 -0.18738,0.37475 -0.31083,0.62422 -0.54245,1.09191"
   id="path15327" /><path
   style="fill:none;stroke:#000000;stroke-width:1px;stroke-linecap:butt;stroke-linejoin:miter;stroke-opacity:1"
   d="m 605.33176,209.7448 c -0.51731,-0.19516 -0.0197,-0.0652 -0.50546,1.00335 -0.58104,1.27829 -1.33266,2.58377 -1.76777,3.88909 -0.0707,0.21213 0.0707,0.49497 0,0.70711 -0.16392,0.49175 -0.21961,0.69778 -0.36567,1.26868"
   id="path15395" /><circle
   id="path15463"
   style="fill:#000000;stroke:#000000"
   cx="603.94238"
   cy="212.69269"
   r="0.088994585" /><circle
   id="path15465"
   style="fill:#000000;stroke:#000000"
   cx="603.94238"
   cy="212.69269"
   r="0.088994585" /><circle
   id="path15467"
   style="fill:#000000;stroke:#000000"
   cx="603.94238"
   cy="212.69269"
   r="0.088994585" /><circle
   id="path15469"
   style="fill:#000000;stroke:#000000"
   cx="603.94238"
   cy="212.69269"
   r="0.088994585" /><path
   style="fill:none;stroke:#000000;stroke-width:1px;stroke-linecap:butt;stroke-linejoin:miter;stroke-opacity:1"
   d="m 605.33176,209.7448 -2.6389,6.86823"
   id="path15539" /><path
   style="fill:none;stroke:#000000;stroke-width:1px;stroke-linecap:butt;stroke-linejoin:miter;stroke-opacity:1"
   d="m 605.33176,209.7448 -2.6389,6.86823"
   id="path15576" /><path
   style="fill:none;stroke:#000000;stroke-width:1px;stroke-linecap:butt;stroke-linejoin:miter;stroke-opacity:1"
   d="m 605.33176,209.7448 -2.6389,6.86823"
   id="path15578" /><path
   style="fill:none;stroke:#000000;stroke-width:1px;stroke-linecap:butt;stroke-linejoin:miter;stroke-opacity:1"
   d="m 602.69286,216.61303 2.6389,-6.86823"
   id="path15580" /><path
   style="fill:none;stroke:#000000;stroke-width:1px;stroke-linecap:butt;stroke-linejoin:miter;stroke-opacity:1"
   d="m 598.82635,214.29406 3.86651,2.31897 v 0"
   id="path15617" /><path
   style="fill:none;stroke:#000000;stroke-width:1px;stroke-linecap:butt;stroke-linejoin:miter;stroke-opacity:1"
   d="m 605.33176,209.7448 -2.6389,6.86823 v 0"
   id="path15619" /></g>
	<g
   id="g286">
		<path
   style="fill:#483e37"
   d="m 588.5,206.9 c 3.1,-6.1 20.6,-11.2 31.6,-7.85 0,0 10.95973,14.28555 4.65973,12.58555 C 621.65973,211.53555 599.3,200.6 588.5,206.9 Z"
   id="path279"
   sodipodi:nodetypes="cccc" />
		<circle
   id="rightBrow1_1_"
   cx="592.5"
   cy="203.2"
   r="0.80000001" />
		<path
   id="rightBrow4_1_"
   sodipodi:type="arc"
   sodipodi:cx="615.79999"
   sodipodi:cy="206.2"
   sodipodi:rx="0.80000001"
   sodipodi:ry="0.80000001"
   sodipodi:start="0"
   sodipodi:end="1.014197"
   sodipodi:arc-type="slice"
   d="m 616.59999,206.2 a 0.80000001,0.80000001 0 0 1 -0.37736,0.67924 L 615.79999,206.2 Z" />
		<circle
   id="rightBrow3_1_"
   cx="606"
   cy="202.2"
   r="0.80000001" />
		<circle
   id="rightBrow0_1_"
   cx="588.5"
   cy="206.89999"
   r="0.80000001" />
		<circle
   id="rightBrow2_1_"
   cx="598.70001"
   cy="202.2"
   r="0.80000001" />
	</g>
	<g
   id="g295">
		<path
   style="fill:#483e37;stroke-width:1.66443"
   d="m 660,206.5 c -10.86831,-6.49999 -20.45937,2.84143 -35.24027,5.13555 -0.43473,-1.52941 6.98268,-10.29731 7.56232,-14.69436 1.4751,0.16217 3.11704,0.14275 4.86284,0.0771 8.54443,-0.32126 19.57671,-1.7497 25.71332,11.58463 C 661.88384,207.83823 661.01437,207.07353 660,206.5 Z"
   id="path288"
   sodipodi:nodetypes="cccscc" />
		<circle
   id="leftBrow1_1_"
   cx="656.20001"
   cy="203.60001"
   r="0.80000001" />
		<circle
   id="leftBrow4_1_"
   cx="632.59998"
   cy="205.7"
   r="0.80000001" />
		<circle
   id="leftBrow3_1_"
   cx="642.59998"
   cy="202.5"
   r="0.80000001" />
		<circle
   id="leftBrow0_1_"
   cx="660.20001"
   cy="206.5"
   r="0.80000001" />
		<circle
   id="leftBrow2_1_"
   cx="649.90002"
   cy="202.10001"
   r="0.80000001" />
	</g>
	<g
   id="g307"
   transform="rotate(25.451313,604.25501,242.26786)">
		<path
   style="fill:#ac9d93;fill-opacity:1;stroke-width:1.87763"
   id="ellipse297"
   transform="matrix(0.96932153,-0.2457962,0.12608543,0.99201939,0,0)"
   sodipodi:type="arc"
   sodipodi:cx="615.59247"
   sodipodi:cy="382.32318"
   sodipodi:rx="17.248018"
   sodipodi:ry="12.010648"
   sodipodi:start="0"
   sodipodi:end="6.1921493"
   sodipodi:open="true"
   sodipodi:arc-type="arc"
   d="m 632.84049,382.32318 a 17.248018,12.010648 0 0 1 -16.85551,12.00754 17.248018,12.010648 0 0 1 -17.62267,-11.46103 17.248018,12.010648 0 0 1 16.05343,-12.52917 17.248018,12.010648 0 0 1 18.35332,10.89077" />
		<ellipse
   style="fill:#ff0000;stroke-width:1.35975"
   cx="592.27618"
   cy="216.65802"
   rx="10.494292"
   ry="3.6786799"
   id="ellipse299" />
		<circle
   id="rightEye0_1_"
   cx="594.70001"
   cy="215.10001"
   r="0.80000001" />
		<circle
   id="rightEye1_1_"
   cx="599.90002"
   cy="211.39999"
   r="0.80000001" />
		<circle
   id="rightEye5_1_"
   cx="599.90002"
   cy="217.39999"
   r="0.80000001" />
		<circle
   id="rightEye2_1_"
   cx="606.20001"
   cy="211.39999"
   r="0.80000001" />
		<circle
   id="rightEye3_1_"
   cx="611.40002"
   cy="215.60001"
   r="0.80000001" />
		<circle
   id="rightEye4_1_"
   cx="606.20001"
   cy="216.60001"
   r="0.80000001" />
	</g>
	<ellipse
   style="fill:#ff0000"
   cx="527.31604"
   cy="428.42581"
   rx="11.732"
   ry="2.9715731"
   id="ellipse309"
   transform="rotate(-20.745284)" /><path
   style="fill:#ac9d93;fill-opacity:1;stroke-width:2.11459"
   id="ellipse311"
   transform="matrix(0.9998043,0.01978282,-0.10836148,0.99411156,0,0)"
   sodipodi:type="arc"
   sodipodi:cx="628.5083"
   sodipodi:cy="233.5304"
   sodipodi:rx="15.867359"
   sodipodi:ry="13.06615"
   sodipodi:start="0"
   sodipodi:end="6.2820625"
   sodipodi:arc-type="slice"
   d="m 644.37566,233.5304 a 15.867359,13.06615 0 0 1 -15.86291,13.06614 15.867359,13.06615 0 0 1 -15.87181,-13.05881 15.867359,13.06615 0 0 1 15.854,-13.07348 15.867359,13.06615 0 0 1 15.88071,13.05147 l -15.86735,0.0147 z" /><circle
   id="leftEye0_1_"
   cx="528.87079"
   cy="427.67471"
   r="0.80000001"
   transform="rotate(-20.745284)"
   style="fill:#ff0000" /><circle
   id="leftEye1_1_"
   cx="523.67078"
   cy="423.9747"
   r="0.80000001"
   transform="rotate(-20.745284)" /><circle
   id="leftEye5_1_"
   cx="523.67078"
   cy="429.9747"
   r="0.80000001"
   transform="rotate(-20.745284)" /><circle
   id="leftEye2_1_"
   cx="517.37079"
   cy="423.9747"
   r="0.80000001"
   transform="rotate(-20.745284)" /><circle
   id="leftEye3_1_"
   cx="512.17078"
   cy="428.17471"
   r="0.80000001"
   transform="rotate(-20.745284)" /><circle
   id="leftEye4_1_"
   cx="517.37079"
   cy="429.17471"
   r="0.80000001"
   transform="rotate(-20.745284)" />
	<g
   id="g14091"
   style="display:inline;fill:#aa0000"><g
     id="g331"
     style="fill:#aa0000">
		<path
   id="rightMiddleLip_2_"
   d="m 610.8,254.6 c 0.4,0 0.8,0.4 0.8,0.8 0,0.4 -0.4,0.8 -0.8,0.8 -0.4,0 -0.8,-0.4 -0.8,-0.8 0,-0.4 0.4,-0.8 0.8,-0.8 z"
   style="fill:#aa0000" />
		<circle
   id="upperLipBottomMid_1_"
   cx="624.5"
   cy="255.10001"
   r="0.80000001"
   style="fill:#aa0000" />
		<circle
   id="rightUpperLipBottom1_1_"
   cx="620.59998"
   cy="254.60001"
   r="0.80000001"
   style="fill:#aa0000" />
		<path
   id="leftMiddleLip_2_"
   d="m 638.2,254.6 c 0.4,0 0.8,0.4 0.8,0.8 0,0.4 -0.4,0.8 -0.8,0.8 -0.4,0 -0.8,-0.4 -0.8,-0.8 0,-0.4 0.4,-0.8 0.8,-0.8 z"
   style="fill:#aa0000" />
		<circle
   id="leftUpperLipBottom1_1_"
   cx="628.40002"
   cy="254.60001"
   r="0.80000001"
   style="fill:#aa0000" />
		<path
   style="fill:#aa0000;stroke:#2c323a;stroke-width:2;stroke-miterlimit:10"
   d="m 611.6,255.4 c 0,0 6.9,-7.95 12.4,-7.95 5.5,0 14.4,7.65 14.4,7.65 0,0 -5.1,15.5 -12.9,15.5 -7.9,0 -13.9,-15.2 -13.9,-15.2 z"
   id="path326"
   sodipodi:nodetypes="cscsc" />
		<circle
   id="lowerLipTopMid_2_"
   cx="624.5"
   cy="258.10001"
   r="0.80000001"
   style="fill:#aa0000" />
		<circle
   id="rightLowerLipTop0_2_"
   cx="620.59998"
   cy="257.39999"
   r="0.80000001"
   style="fill:#aa0000" />
		<circle
   id="leftLowerLipTop0_2_"
   cx="628.40002"
   cy="257.39999"
   r="0.80000001"
   style="fill:#aa0000" />
	</g></g>
	
	
	<path
   style="fill:#24221c;stroke-width:1.01785"
   d="m 415.6,308.07631 2.97895,59.26171 c 58.48666,0.313 92.84386,-2.3997 118.4628,18.46711 L 585.4,333.42945 C 531.48105,305.57228 471.20702,304.52894 415.6,308.07631 Z"
   id="path349" />
	<path
   style="fill:#24221c;stroke-width:0.974492"
   d="m 666.2,336.26466 43.3,50.52064 c 27,-15.3841 67.7,-15.47907 126.6,-15.85893 v -53.93931 c -56,-3.22875 -99.2,-9.87622 -169.9,19.2776 z"
   id="path351" />
	<path
   style="fill:#24221c;fill-rule:evenodd;stroke-width:1.17802"
   d="m 415.6,308.07631 c -47.7,3.74685 -123.1,12.35073 -160.2,19.70566 -37.1,7.35494 -40.1,55.64769 5.3,54.81506 45.4,-0.83264 95.2,-4.85703 159.7,-16.79145 z"
   id="path353" />
	
	<path
   style="fill:#24221c;stroke-width:1.13034"
   d="m 834.3,370.13808 c 64.5,10.98795 113.3,14.69319 158.7,15.45979 45.4,0.7666 42.4,-43.69627 5.3,-50.46791 -37.1,-6.77165 -114.5,-14.69319 -162.2,-18.1429 z"
   id="path357" />
	<g
   id="g370"
   transform="translate(0.25977,-4.45546)"
   style="fill:#483e37">
		<circle
   id="nose1_1_"
   cx="623.70001"
   cy="216.10001"
   r="0.80000001"
   style="fill:#483e37" />
		<circle
   id="nose0_1_"
   cx="623.70001"
   cy="210.3"
   r="0.80000001"
   style="fill:#483e37" />
		<circle
   id="nose3_1_"
   cx="623.70001"
   cy="228.7"
   r="0.80000001"
   style="fill:#483e37" />
		<circle
   id="rightNose0_1_"
   cx="613"
   cy="233.2"
   r="0.80000001"
   style="fill:#483e37" />
		<circle
   id="rightNose1_1_"
   cx="618.20001"
   cy="233.2"
   r="0.80000001"
   style="fill:#483e37" />
		<circle
   id="nose2_1_"
   cx="623.70001"
   cy="221.60001"
   r="0.80000001"
   style="fill:#483e37" />
		<circle
   id="nose4_1_"
   cx="623.70001"
   cy="234"
   r="0.80000001"
   style="fill:#483e37" />
		<circle
   id="leftNose0_1_"
   cx="634.09998"
   cy="233.2"
   r="0.80000001"
   style="fill:#483e37" />
		<circle
   id="leftNose1_1_"
   cx="629.29999"
   cy="233.2"
   r="0.80000001"
   style="fill:#483e37" />
		<path
   style="fill:#483e37;stroke:#2c323a;stroke-width:2;stroke-miterlimit:10"
   d="m 621.7,236 c -1.2,0 -9.46136,-1.84715 -10.66136,1.75285 -0.2,1.2 16.37683,19.89598 16.59663,11.38988 l 9.67116,-8.89676 C 632.5013,234.71362 621.7,236 621.7,236 Z"
   id="path368"
   sodipodi:nodetypes="ccccc" />
	</g>
<rect
   style="fill:#000000;fill-opacity:0.79085;fill-rule:evenodd;stroke:#000000;stroke-width:0;stroke-linecap:round;stroke-linejoin:round;stroke-miterlimit:4;stroke-dasharray:none;stroke-opacity:1;paint-order:markers fill stroke"
   id="rect44841"
   width="1.1368684e-13"
   height="5.6843419e-14"
   x="836.09998"
   y="316.98706" /><rect
   style="fill:#000000;fill-opacity:0.79085;fill-rule:evenodd;stroke:#000000;stroke-width:0;stroke-linecap:round;stroke-linejoin:round;stroke-miterlimit:4;stroke-dasharray:none;stroke-opacity:1;paint-order:markers fill stroke"
   id="rect45045"
   width="4.5205312"
   height="0.0026247273"
   x="772.04852"
   y="313.98178"
   ry="0.0013123637" /><circle
   id="path49731"
   style="fill:#000000;stroke:#000000"
   cx="598"
   cy="177"
   r="0.50342941" /><circle
   id="path49733"
   style="fill:#000000;stroke:#000000"
   cx="598"
   cy="177"
   r="0.50342941" /><circle
   id="path49741"
   style="fill:#000000;stroke:#000000"
   cx="659"
   cy="225"
   r="0.50342941" /><circle
   id="path49743"
   style="fill:#000000;stroke:#000000"
   cx="659"
   cy="225"
   r="0.50342941" /><circle
   id="path49747"
   style="fill:#000000;stroke:#000000"
   cx="570.47485"
   cy="225.55806"
   r="0.50342941" /><path
   style="fill:none;stroke:#000000;stroke-width:1px;stroke-linecap:butt;stroke-linejoin:miter;stroke-opacity:1"
   d="M 603.0796,244.58893 554.5,244.75"
   id="path55905" /><path
   style="fill:none;stroke:#000000;stroke-width:1px;stroke-linecap:butt;stroke-linejoin:miter;stroke-opacity:1"
   d="M 599.75,239.25 555.5,238.5"
   id="path55907" /><path
   style="fill:none;stroke:#000000;stroke-width:1px;stroke-linecap:butt;stroke-linejoin:miter;stroke-opacity:1"
   d="m 599.5,250 -36,0.5"
   id="path55909" /><path
   style="fill:none;stroke:#000000;stroke-width:1px;stroke-linecap:butt;stroke-linejoin:miter;stroke-opacity:1"
   d="m 645.75,239.5 34.67358,-0.30283"
   id="path55911" /><path
   style="fill:none;stroke:#000000;stroke-width:1px;stroke-linecap:butt;stroke-linejoin:miter;stroke-opacity:1"
   d="m 646.75,245 42.5,1"
   id="path55917" /><path
   style="fill:none;stroke:#000000;stroke-width:1px;stroke-linecap:butt;stroke-linejoin:miter;stroke-opacity:1"
   d="M 649.504,252.64138 683,254.25"
   id="path55919" /><circle
   id="path56776"
   style="fill:#000000;stroke:#000000"
   cx="642.76007"
   cy="297.33841"
   r="0.17798917" /><circle
   id="path56778"
   style="fill:#000000;stroke:#000000"
   cx="642.76007"
   cy="297.33841"
   r="0.17798917" /><circle
   id="path57061"
   style="fill:#000000;stroke:#000000"
   cx="600.68719"
   cy="299.81326"
   r="0.17798917" /><circle
   id="path57063"
   style="fill:#000000;stroke:#000000"
   cx="600.68719"
   cy="299.81326"
   r="0.17798917" /><circle
   id="path58064"
   style="fill:#000000;stroke:#000000"
   cx="577.5"
   cy="171.5"
   r="0.25171471" /><circle
   id="path58066"
   style="fill:#000000;stroke:#000000"
   cx="577.5"
   cy="171.5"
   r="0.25171471" /><circle
   id="path58070"
   style="fill:#000000;stroke:#000000"
   cx="678"
   cy="179"
   r="0.25171471" /><circle
   id="path58072"
   style="fill:#000000;stroke:#000000"
   cx="678"
   cy="179"
   r="0.25171471" /></g>
<g
   id="skeleton_1_"
   sodipodi:insensitive="true"
   style="display:none">
	<polygon
   style="fill:none;stroke:#000000;stroke-miterlimit:10"
   points="518.8,349.5 569.1,565.3 685.5,564.5 731.7,349.5 "
   id="polygon373" />
	<polyline
   style="fill:none;stroke:#000000;stroke-miterlimit:10"
   points="517.8,349.5 415.1,349.5 251.8,355.8  "
   id="polyline375" />
	<polyline
   style="fill:none;stroke:#000000;stroke-miterlimit:10"
   points="733.2,349.1 836.4,349.1 999.7,355.5  "
   id="polyline377" />
	<polyline
   style="fill:none;stroke:#000000;stroke-miterlimit:10"
   points="569.1,565.3 575.5,725.5 575.5,933.5  "
   id="polyline379" />
	<polyline
   style="fill:none;stroke:#000000;stroke-miterlimit:10"
   points="685.5,564.5 685.5,725.5 685.5,933.5  "
   id="polyline381" />
	<polyline
   style="fill:none;stroke:#000000;stroke-miterlimit:10"
   points="624.5,170 604.7,172.5 592.2,182 583.6,196.1    581.1,205.4 580.3,217.1 580.3,226.6 581.1,248.3 587.9,268.3 599.5,280.8 609.5,287.5 624.5,290.7 639.3,287.9 649.3,281.2    660.9,268.6 667.7,248.6 668.5,227 668.5,217.4 667.7,205.7 665.2,196.5 657,182 644.4,172.5 624.5,170  "
   id="polyline383" />
	<polyline
   style="fill:none;stroke:#000000;stroke-miterlimit:10"
   points="588.5,206.9 592.5,203.2 598.7,202.2 606,202.2    615.8,206.2  "
   id="polyline385" />
	<polygon
   style="fill:none;stroke:#000000;stroke-miterlimit:10"
   points="606.2,216.6 599.9,217.4 594.7,215.1 599.9,211.4 606.2,211.4 611.4,215.6 "
   id="polygon387" />
	<polyline
   style="fill:none;stroke:#000000;stroke-miterlimit:10"
   points="613,233.2 618.2,233.2 623.7,234 623.7,228.7    623.7,221.6 623.7,216.1 623.7,210.3  "
   id="polyline389" />
	<polyline
   style="fill:none;stroke:#000000;stroke-miterlimit:10"
   points="660,206.5 656,203.6 649.7,202.1 642.4,202.5    632.4,205.7  "
   id="polyline391" />
	<polygon
   style="fill:none;stroke:#000000;stroke-miterlimit:10"
   points="642.5,216.6 648.8,217.4 654.1,215.1 648.8,211.4 642.5,211.4 637.4,215.6 "
   id="polygon393" />
	<polyline
   style="fill:none;stroke:#000000;stroke-miterlimit:10"
   points="634.1,233.2 629.1,233.2 623.7,234  "
   id="polyline395" />
	<polygon
   style="fill:none;stroke:#000000;stroke-miterlimit:10"
   points="628.7,250.8 635.1,251.9 642,255.3 635.6,261.6 628.5,264.4 624.5,264.9 620.4,264.4 613.4,261.6 607,255.3 613.9,251.9 620.4,250.8 624.5,251.7 "
   id="polygon397" />
	<polyline
   style="fill:none;stroke:#000000;stroke-miterlimit:10"
   points="607,255.3 610.6,255.6 620.6,254.8 624.5,255.3    628.5,254.8 638.4,255.6 642,255.3  "
   id="polyline399" />
	<polyline
   style="fill:none;stroke:#000000;stroke-miterlimit:10"
   points="607,255.3 610.6,255.6 620.6,257.7 624.5,258.5    628.5,257.7 638.4,255.6 642,255.3  "
   id="polyline401" />
	<circle
   id="rightShoulder"
   cx="518.90002"
   cy="349.20001"
   r="8.1999998" />
	<circle
   id="rightElbow"
   cx="415.39999"
   cy="349.29999"
   r="8.1999998" />
	<circle
   id="rightWrist"
   cx="252"
   cy="355.70001"
   r="8.1999998" />
	<circle
   id="rightHip"
   cx="569.20001"
   cy="565"
   r="8.1999998" />
	<circle
   id="rightKnee"
   cx="575.59998"
   cy="725.20001"
   r="8.1999998" />
	<circle
   id="rightAnkle"
   cx="575.59998"
   cy="933.20001"
   r="8.1999998" />
	<circle
   id="leftElbow"
   cx="836.20001"
   cy="348.89999"
   r="8.1999998" />
	<circle
   id="leftWrist"
   cx="999.59998"
   cy="355.20001"
   r="8.1999998" />
	<circle
   id="leftHip"
   cx="685.59998"
   cy="564.20001"
   r="8.1999998" />
	<circle
   id="leftKnee"
   cx="685.59998"
   cy="725.20001"
   r="8.1999998" />
	<circle
   id="leftAnkle"
   cx="685.59998"
   cy="933.20001"
   r="8.1999998" />
	<circle
   id="rightEye0"
   cx="594.70001"
   cy="215.10001"
   r="0.80000001" />
	<circle
   id="rightBrow1"
   cx="592.5"
   cy="203.2"
   r="0.80000001" />
	<circle
   id="rightBrow4"
   cx="615.79999"
   cy="206.2"
   r="0.80000001" />
	<circle
   id="nose1"
   cx="623.70001"
   cy="216.10001"
   r="0.80000001" />
	<circle
   id="rightBrow3"
   cx="606"
   cy="202.2"
   r="0.80000001" />
	<circle
   id="rightEye1"
   cx="599.90002"
   cy="211.39999"
   r="0.80000001" />
	<circle
   id="rightBrow0"
   cx="588.5"
   cy="206.89999"
   r="0.80000001" />
	<circle
   id="rightBrow2"
   cx="598.70001"
   cy="202.2"
   r="0.80000001" />
	<circle
   id="rightEye5"
   cx="599.90002"
   cy="217.39999"
   r="0.80000001" />
	<circle
   id="rightEye2"
   cx="606.20001"
   cy="211.39999"
   r="0.80000001" />
	<circle
   id="rightEye3"
   cx="611.40002"
   cy="215.60001"
   r="0.80000001" />
	<circle
   id="nose0"
   cx="623.70001"
   cy="210.3"
   r="0.80000001" />
	<circle
   id="nose3"
   cx="623.70001"
   cy="228.7"
   r="0.80000001" />
	<circle
   id="rightNose0"
   cx="613"
   cy="233.2"
   r="0.80000001" />
	<circle
   id="rightMouthCorner"
   cx="607"
   cy="255.3"
   r="0.80000001" />
	<circle
   id="rightNose1"
   cx="618.20001"
   cy="233.2"
   r="0.80000001" />
	<circle
   id="rightUpperLipTop0"
   cx="613.90002"
   cy="251.89999"
   r="0.80000001" />
	<circle
   id="nose2"
   cx="623.70001"
   cy="221.60001"
   r="0.80000001" />
	<circle
   id="nose4"
   cx="623.70001"
   cy="234"
   r="0.80000001" />
	<circle
   id="upperLipTopMid"
   cx="624.5"
   cy="251.7"
   r="0.80000001" />
	<circle
   id="rightUpperLipTop1"
   cx="620.40002"
   cy="250.8"
   r="0.80000001" />
	<path
   id="rightMiddleLip"
   d="m 610.6,254.8 c 0.4,0 0.8,0.4 0.8,0.8 0,0.4 -0.4,0.8 -0.8,0.8 -0.4,0 -0.8,-0.4 -0.8,-0.8 0,-0.4 0.4,-0.8 0.8,-0.8 z" />
	<circle
   id="lowerLipBottomMid"
   cx="624.5"
   cy="264.89999"
   r="0.80000001" />
	<circle
   id="upperLipBottomMid"
   cx="624.5"
   cy="255.3"
   r="0.80000001" />
	<circle
   id="lowerLipTopMid"
   cx="624.5"
   cy="258.39999"
   r="0.80000001" />
	<circle
   id="rightUpperLipBottom1"
   cx="620.59998"
   cy="254.8"
   r="0.80000001" />
	<circle
   id="rightLowerLipTop0"
   cx="620.59998"
   cy="257.70001"
   r="0.80000001" />
	<circle
   id="rightLowerLipBottom1"
   cx="620.40002"
   cy="264.39999"
   r="0.80000001" />
	<circle
   id="rightLowerLipBottom0"
   cx="613.40002"
   cy="261.60001"
   r="0.80000001" />
	<circle
   id="rightEye4"
   cx="606.20001"
   cy="216.60001"
   r="0.80000001" />
	<circle
   id="jawMid"
   cx="624.5"
   cy="290.70001"
   r="0.80000001" />
	<circle
   id="rightJaw7"
   cx="609.5"
   cy="287.5"
   r="0.80000001" />
	<circle
   id="rightJaw6"
   cx="599.5"
   cy="280.79999"
   r="0.80000001" />
	<circle
   id="rightJaw5"
   cx="587.90002"
   cy="268.29999"
   r="0.80000001" />
	<circle
   id="rightJaw4"
   cx="581.09998"
   cy="248.3"
   r="0.80000001" />
	<circle
   id="rightJaw3"
   cx="580.29999"
   cy="226.60001"
   r="0.80000001" />
	<circle
   id="rightJaw2"
   cx="580.29999"
   cy="217.10001"
   r="0.80000001" />
	<circle
   id="rightJaw1"
   cx="581.09998"
   cy="205.39999"
   r="0.80000001" />
	<circle
   id="rightJaw0"
   cx="583.59998"
   cy="196.10001"
   r="0.80000001" />
	<circle
   id="topMid"
   cx="624.70001"
   cy="170"
   r="0.80000001" />
	<circle
   id="leftTop0"
   cx="644.40002"
   cy="172.5"
   r="0.80000001" />
	<circle
   id="leftTop1"
   cx="657"
   cy="182"
   r="0.80000001" />
	<circle
   id="leftEye0"
   cx="654.29999"
   cy="215.10001"
   r="0.80000001" />
	<circle
   id="leftBrow1"
   cx="656.20001"
   cy="203.60001"
   r="0.80000001" />
	<circle
   id="leftBrow4"
   cx="632.59998"
   cy="205.7"
   r="0.80000001" />
	<circle
   id="leftBrow3"
   cx="642.59998"
   cy="202.5"
   r="0.80000001" />
	<circle
   id="leftEye1"
   cx="649.09998"
   cy="211.39999"
   r="0.80000001" />
	<circle
   id="leftBrow0"
   cx="660.20001"
   cy="206.5"
   r="0.80000001" />
	<circle
   id="leftBrow2"
   cx="649.90002"
   cy="202.10001"
   r="0.80000001" />
	<circle
   id="leftEye5"
   cx="649.09998"
   cy="217.39999"
   r="0.80000001" />
	<circle
   id="leftEye2"
   cx="642.79999"
   cy="211.39999"
   r="0.80000001" />
	<circle
   id="leftEye3"
   cx="637.59998"
   cy="215.60001"
   r="0.80000001" />
	<circle
   id="leftNose0"
   cx="634.09998"
   cy="233.2"
   r="0.80000001" />
	<circle
   id="leftMouthCorner"
   cx="642"
   cy="255.3"
   r="0.80000001" />
	<circle
   id="leftNose1"
   cx="629.29999"
   cy="233.2"
   r="0.80000001" />
	<circle
   id="leftUpperLipTop0"
   cx="635.09998"
   cy="251.89999"
   r="0.80000001" />
	<circle
   id="leftUpperLipTop1"
   cx="628.70001"
   cy="250.8"
   r="0.80000001" />
	<path
   id="leftMiddleLip"
   d="m 638.4,254.8 c 0.4,0 0.8,0.4 0.8,0.8 0,0.4 -0.4,0.8 -0.8,0.8 -0.4,0 -0.8,-0.4 -0.8,-0.8 0,-0.4 0.4,-0.8 0.8,-0.8 z" />
	<circle
   id="leftUpperLipBottom1"
   cx="628.5"
   cy="254.8"
   r="0.80000001" />
	<circle
   id="leftLowerLipTop0"
   cx="628.5"
   cy="257.70001"
   r="0.80000001" />
	<circle
   id="leftLowerLipBottom1"
   cx="628.70001"
   cy="264.39999"
   r="0.80000001" />
	<circle
   id="leftLowerLipBottom0"
   cx="635.59998"
   cy="261.60001"
   r="0.80000001" />
	<circle
   id="leftEye4"
   cx="642.79999"
   cy="216.60001"
   r="0.80000001" />
	<circle
   id="leftJaw7"
   cx="639.29999"
   cy="287.89999"
   r="0.80000001" />
	<circle
   id="leftJaw6"
   cx="649.29999"
   cy="281.20001"
   r="0.80000001" />
	<circle
   id="leftJaw5"
   cx="660.90002"
   cy="268.60001"
   r="0.80000001" />
	<circle
   id="leftJaw4"
   cx="667.70001"
   cy="248.60001"
   r="0.80000001" />
	<circle
   id="leftJaw3"
   cx="668.5"
   cy="227"
   r="0.80000001" />
	<circle
   id="leftJaw2"
   cx="668.5"
   cy="217.39999"
   r="0.80000001" />
	<circle
   id="leftJaw1"
   cx="667.70001"
   cy="205.7"
   r="0.80000001" />
	<circle
   id="leftJaw0"
   cx="665.20001"
   cy="196.5"
   r="0.80000001" />
	<circle
   id="rightTop0"
   cx="604.79999"
   cy="172.5"
   r="0.80000001" />
	<circle
   id="rightTop1"
   cx="592.20001"
   cy="182"
   r="0.80000001" />
	<circle
   id="leftShoulder"
   cx="731.79999"
   cy="349.20001"
   r="8.1999998" />
</g>
</svg>
