<?xml version="1.0" encoding="utf-8"?>
<svg version="1.1" id="Layer_1" x="0px" y="0px" width="1200px" height="1200px" viewBox="0 0 1200 1200" style="enable-background:new 0 0 1200 1200;" xmlns="http://www.w3.org/2000/svg" xmlns:bx="https://boxy-svg.com">
  <style type="text/css">
	.st0{fill:#4B1F09;}
	.st1{fill:#ECF4E9;}
	.st2{fill:#60625D;}
	.st3{fill:#458761;}
	.st4{fill:#9E2323;}
	.st5{fill:#AB7440;}
	.st6{fill:#7E4B1D;}
	.st7{fill:#D68184;}
	.st8{fill:#D69655;}
	.st9{fill:#FAFCF9;}
	.st10{fill:#4966B1;}
	.st11{fill:#D8975B;}
	.st12{fill:#326842;}
	.st13{fill:#E5CA5A;}
	.st14{fill:none;stroke:#000000;stroke-miterlimit:10;}
</style>
  <g id="illustration_1_" style="" transform="matrix(0.761208, 0, 0, 0.694997, 148.604111, 77.657349)">
    <path class="st1" d="M 691.842 322.995 C 785.661 330.963 860.338 377.723 870.251 478.764 C 880.25 492.187 709.874 417.585 654.393 385.437 C 651.428 337.688 657.293 320.061 691.842 322.995 Z" style="fill: rgb(0, 0, 0);"/>
    <path class="st1" d="M 532.052 328.636 C 374.485 335.838 370.876 400.91 382.112 464.245 C 374.982 470.57 489.302 365.21 567.524 434.457 C 632.486 387.922 568.076 326.989 532.052 328.636 Z" style="fill: rgb(0, 0, 0);" transform="matrix(0.999948, -0.011193, 0.009331, 0.999948, -3.674707, 5.469483)"/>
    <path class="st0" d="M 729.208 968.85 C 726.171 986.56 677.109 987.071 659.54 990.769 C 629.483 997.176 611.537 996.565 627.178 975.124 C 642.813 953.687 696.87 952.382 722.584 935.179 C 746.889 918.919 732.245 951.139 729.208 968.85 Z" style="fill: rgb(218, 141, 141);" transform="matrix(0.927018, 0.375018, -0.375018, 0.927018, 475.69503, -215.41397)" bx:origin="1.478 2.889"/>
    <path class="st0" d="M 464.626 958.612 C 462.188 967.312 520.132 950.512 524.796 952.012 C 532.747 954.612 574.504 943.414 579.171 937.863 C 583.839 932.312 452.127 913.007 442.568 913.01 C 434.134 913.013 467.064 949.912 464.626 958.612 Z" style="fill: rgb(221, 151, 151);"/>
    <path class="st3" d="M625.3,312.1"/>
    <path class="st1" d="M599,316.1c6.7-3.2,15.1-5.5,23.4-5.9c2.6-0.1,5.2-0.1,7.7,0c9.7,0.5,18.6,2.7,24.2,6.3 C642.8,337.1,613.3,336.8,599,316.1z"/>
    <path class="st4" d="M 593.985 308.246 C 593.985 308.246 598.7 424.8 600 469 C 606.9 473.2 645.1 472.8 652.7 469.3 C 659.4 426.1 659.526 314.854 656.126 308.854 L 593.985 308.246 Z" style="fill: rgb(0, 0, 0);"/>
    <path class="st8" d="M 700.668 255.284 C 697.892 295.575 676.085 312.173 625.775 312.1 C 575.465 312.027 558.548 297.937 551.654 258.437 C 544.76 218.937 549.231 132.631 625.666 132.631 C 703.736 132.731 703.444 214.993 700.668 255.284 Z" style="fill: rgb(0, 0, 0);"/>
    <path class="st5" d="M622.8,254.3c-46.3,29.2-26.3,45.1,0.8,45.1C651.3,299.4,672.4,279.9,622.8,254.3z" style="fill: rgb(0, 0, 0);"/>
    <path class="st6" d="M623.1,254.9c-35.4,22.3-20.2,39.1,0.5,39.1C644.8,294,661,274.5,623.1,254.9z" style="fill: rgb(0, 0, 0);"/>
    <path class="st0" d="M 623.3 241.2 C 598.4 256.9 609.1 273.2 623.7 273.2 C 638.6 273.1 650 255 623.3 241.2 Z" style="fill: rgb(222, 113, 12);"/>
    <path class="st0" d="M 701.748 246 C 701.748 265.3 697.215 274.1 678.815 274.1 C 647.815 274.1 655.8 244.7 624 244.7 C 592.3 244.7 600.028 274.1 569.028 274.1 C 551.828 274.1 552.184 265.3 552.184 246 C 552.184 212.8 561.4 178.2 623.5 178.2 C 685.6 178.2 701.748 207.3 701.748 246 Z" style="fill: rgb(0, 0, 0);"/>
    <rect x="846.784" y="791.029" width="185.984" height="107.923" style="" transform="matrix(0.999999, 0.001454, -0.001454, 0.999999, -318.466003, -1.412953)"/>
    <g transform="matrix(1, 0, 0, 1, -4, -14)">
      <ellipse class="st9" cx="672.1" cy="233.5" rx="9.95" ry="14.792"/>
      <ellipse class="st10" cx="673.1" cy="233.5" rx="5.404" ry="11.454" style="fill: rgb(2, 5, 14);"/>
      <circle id="leftEye0_1_" cx="654.3" cy="215.1" r="0.8"/>
      <circle id="leftEye1_1_" cx="649.1" cy="211.4" r="0.8"/>
      <circle id="leftEye5_1_" cx="649.1" cy="217.4" r="0.8"/>
      <circle id="leftEye2_1_" cx="642.8" cy="211.4" r="0.8"/>
      <circle id="leftEye3_1_" cx="637.6" cy="215.6" r="0.8"/>
      <circle id="leftEye4_1_" cx="642.8" cy="216.6" r="0.8"/>
    </g>
    <g style="" transform="matrix(1, 0, 0, 1.453845, 19, -99.068108)">
      <ellipse class="st9" cx="568.054" cy="217.141" rx="10.365" ry="9.863" style=""/>
      <ellipse class="st10" cx="569.258" cy="230.205" rx="5.661" ry="7.273" style="fill: rgb(0, 0, 0);" transform="matrix(0.972942, 0.23105, -0.23105, 0.972942, 66.849781, -138.32015)"/>
      <circle id="rightEye0_1_" cx="594.7" cy="215.1" r="0.8"/>
      <circle id="rightEye1_1_" cx="599.9" cy="211.4" r="0.8"/>
      <circle id="rightEye5_1_" cx="599.9" cy="217.4" r="0.8"/>
      <circle id="rightEye2_1_" cx="606.2" cy="211.4" r="0.8"/>
      <circle id="rightEye3_1_" cx="611.4" cy="215.6" r="0.8"/>
      <circle id="rightEye4_1_" cx="606.2" cy="216.6" r="0.8"/>
    </g>
    <path class="st3" d="M 683.251 328.42 C 677.482 325.268 673.189 320.385 667.919 317.439 C 667.76 317.439 667.44 317.171 667.281 317.171 C 667.281 317.171 667.281 317.439 667.12 317.439 C 652.552 352.678 605.612 350.706 578.806 316.1 C 574.335 318.778 585.316 310.054 563.819 326.387 C 457.444 407.208 471.92 593.675 492.408 698.025 C 555.33 751.055 693.082 739.312 753.449 703.155 C 750.106 721.572 804.969 394.92 683.251 328.42 Z" style="fill: rgb(213, 213, 213);"/>
    <path class="st2" d="M 707.106 817.775 C 753.14 768.436 744.839 770.689 748.02 750.743 C 750.706 733.892 757.58 683.846 750.375 682.602 C 717.436 676.915 668.052 655.094 625.553 655.094 C 582.318 655.094 542.254 664.32 491.682 673.685 C 484.964 674.929 498.572 746.138 501.402 755.971 C 508.944 782.175 519.583 787.935 535.415 809.095 C 532.483 818.512 539.46 848.294 537.507 860.199 C 533.599 883.298 541.352 907.352 543.185 922.277 C 544.527 933.472 548.802 934.893 553.078 936.492 C 556.863 937.914 562.114 936.137 566.39 929.028 C 573.351 917.479 577.869 900.599 582.144 875.547 C 583.243 869.327 583.976 846.693 584.707 840.83 C 595.7 846.693 610.75 844.288 623.452 844.288 C 636.276 844.288 644.806 845.141 655.797 839.278 C 656.408 845.141 658.108 869.327 659.207 875.724 C 663.481 900.777 668 917.657 674.962 929.206 C 679.236 936.314 684.488 938.09 688.274 936.669 C 692.548 935.069 696.822 933.648 698.165 922.455 C 699.997 907.53 700.458 886.203 702.877 862.753 C 705.116 841.048 710.037 827.191 707.106 817.775 Z" style="fill: rgb(213, 213, 213);"/>
    <path class="st12" d="M 583.725 315.507 C 597.757 359.196 663.795 358.943 669.068 317.88 L 657.26 310.931 C 642.529 343.135 608.743 343.304 592.61 310.084 L 583.725 315.507 Z" style="fill: rgb(0, 0, 0);"/>
    <path class="st13" d="M594.4,318.3c12.6,29.5,51.8,30.4,66,0.4l-3.1-1.1c-13.1,25.1-47.5,23.6-60.8-0.7L594.4,318.3z" style="fill: rgb(12, 0, 0);"/>
    <ellipse style="fill: rgb(90, 78, 78);" cx="623.892" cy="258.957" rx="15.579" ry="1.515"/>
  </g>
  <g id="skeleton_1_" style="">
    <circle id="rightShoulder" cx="572.3" cy="366.3" r="8.2"/>
    <circle id="rightElbow" cx="489.5" cy="343.4" r="8.2"/>
    <circle id="rightWrist" cx="393.8" cy="345.5" r="8.2"/>
    <circle id="rightHip" cx="581.1" cy="564.1" r="8.2"/>
    <circle id="rightKnee" cx="575.6" cy="725.2" r="8.2"/>
    <circle id="rightAnkle" cx="575.6" cy="933.2" r="8.2"/>
    <circle id="leftShoulder" cx="681.3" cy="366.4" r="8.2"/>
    <circle id="leftElbow" cx="765.3" cy="342.3" r="8.2"/>
    <circle id="leftWrist" cx="860.6" cy="344.5" r="8.2"/>
    <circle id="leftHip" cx="673.1" cy="563.3" r="8.2"/>
    <circle id="leftKnee" cx="685.6" cy="725.2" r="8.2"/>
    <circle id="leftAnkle" cx="685.6" cy="933.2" r="8.2"/>
    <polygon class="st14" points="572.2,366.6 581,564.4 673,563.6 681.2,366.7 &#9;"/>
    <polyline class="st14" points="571.2,366.6 489.2,343.6 393.6,345.6 &#9;"/>
    <polyline class="st14" points="682.7,366.3 765.5,342.5 860.7,344.8 &#9;"/>
    <polyline class="st14" points="581,564.4 575.5,725.5 575.5,933.5 &#9;"/>
    <polyline class="st14" points="673,563.6 685.5,725.5 685.5,933.5 &#9;"/>
    <circle id="rightEye0" cx="594.7" cy="215.1" r="0.8"/>
    <circle id="rightBrow1" cx="592.5" cy="203.2" r="0.8"/>
    <circle id="rightBrow4" cx="615.8" cy="206.2" r="0.8"/>
    <circle id="nose1" cx="623.7" cy="216.1" r="0.8"/>
    <circle id="rightBrow3" cx="606" cy="202.2" r="0.8"/>
    <circle id="rightEye1" cx="599.9" cy="211.4" r="0.8"/>
    <circle id="rightBrow0" cx="588.5" cy="206.9" r="0.8"/>
    <circle id="rightBrow2" cx="598.7" cy="202.2" r="0.8"/>
    <circle id="rightEye5" cx="599.9" cy="217.4" r="0.8"/>
    <circle id="rightEye2" cx="606.2" cy="211.4" r="0.8"/>
    <circle id="rightEye3" cx="611.4" cy="215.6" r="0.8"/>
    <circle id="nose0" cx="623.7" cy="210.3" r="0.8"/>
    <circle id="nose3" cx="623.7" cy="228.7" r="0.8"/>
    <circle id="rightNose0" cx="613" cy="233.2" r="0.8"/>
    <circle id="rightMouthCorner" cx="607" cy="255.3" r="0.8"/>
    <circle id="rightNose1" cx="618.2" cy="233.2" r="0.8"/>
    <circle id="rightUpperLipTop0" cx="613.9" cy="251.9" r="0.8"/>
    <circle id="nose2" cx="623.7" cy="221.6" r="0.8"/>
    <circle id="nose4" cx="623.7" cy="234" r="0.8"/>
    <circle id="upperLipTopMid" cx="624.5" cy="251.7" r="0.8"/>
    <circle id="rightUpperLipTop1" cx="620.4" cy="250.8" r="0.8"/>
    <path id="rightMiddleLip" d="M610.6,254.8c0.4,0,0.8,0.4,0.8,0.8c0,0.4-0.4,0.8-0.8,0.8s-0.8-0.4-0.8-0.8S610.2,254.8,610.6,254.8z "/>
    <circle id="lowerLipBottomMid" cx="624.5" cy="264.9" r="0.8"/>
    <circle id="upperLipBottomMid" cx="624.5" cy="255.3" r="0.8"/>
    <circle id="lowerLipTopMid" cx="624.5" cy="258.4" r="0.8"/>
    <circle id="rightUpperLipBottom1" cx="620.6" cy="254.8" r="0.8"/>
    <circle id="rightLowerLipTop0" cx="620.6" cy="257.7" r="0.8"/>
    <circle id="rightLowerLipBottom1" cx="620.4" cy="264.4" r="0.8"/>
    <circle id="rightLowerLipBottom0" cx="613.4" cy="261.6" r="0.8"/>
    <circle id="rightEye4" cx="606.2" cy="216.6" r="0.8"/>
    <circle id="jawMid" cx="624.5" cy="290.7" r="0.8"/>
    <circle id="rightJaw7" cx="609.5" cy="287.5" r="0.8"/>
    <circle id="rightJaw6" cx="599.5" cy="280.8" r="0.8"/>
    <circle id="rightJaw5" cx="587.9" cy="268.3" r="0.8"/>
    <circle id="rightJaw4" cx="581.1" cy="248.3" r="0.8"/>
    <circle id="rightJaw3" cx="580.3" cy="226.6" r="0.8"/>
    <circle id="rightJaw2" cx="580.3" cy="217.1" r="0.8"/>
    <circle id="rightJaw1" cx="581.1" cy="205.4" r="0.8"/>
    <circle id="rightJaw0" cx="583.6" cy="196.1" r="0.8"/>
    <circle id="topMid" cx="624.7" cy="170" r="0.8"/>
    <circle id="leftTop0" cx="644.4" cy="172.5" r="0.8"/>
    <circle id="leftTop1" cx="657" cy="182" r="0.8"/>
    <circle id="leftEye0" cx="654.3" cy="215.1" r="0.8"/>
    <circle id="leftBrow1" cx="656.2" cy="203.6" r="0.8"/>
    <circle id="leftBrow4" cx="632.6" cy="205.7" r="0.8"/>
    <circle id="leftBrow3" cx="642.6" cy="202.5" r="0.8"/>
    <circle id="leftEye1" cx="649.1" cy="211.4" r="0.8"/>
    <circle id="leftBrow0" cx="660.2" cy="206.5" r="0.8"/>
    <circle id="leftBrow2" cx="649.9" cy="202.1" r="0.8"/>
    <circle id="leftEye5" cx="649.1" cy="217.4" r="0.8"/>
    <circle id="leftEye2" cx="642.8" cy="211.4" r="0.8"/>
    <circle id="leftEye3" cx="637.6" cy="215.6" r="0.8"/>
    <circle id="leftNose0" cx="634.1" cy="233.2" r="0.8"/>
    <circle id="leftMouthCorner" cx="642" cy="255.3" r="0.8"/>
    <circle id="leftNose1" cx="629.3" cy="233.2" r="0.8"/>
    <circle id="leftUpperLipTop0" cx="635.1" cy="251.9" r="0.8"/>
    <circle id="leftUpperLipTop1" cx="628.7" cy="250.8" r="0.8"/>
    <path id="leftMiddleLip" d="M638.4,254.8c0.4,0,0.8,0.4,0.8,0.8c0,0.4-0.4,0.8-0.8,0.8s-0.8-0.4-0.8-0.8S638,254.8,638.4,254.8z"/>
    <circle id="leftUpperLipBottom1" cx="628.5" cy="254.8" r="0.8"/>
    <circle id="leftLowerLipTop0" cx="628.5" cy="257.7" r="0.8"/>
    <circle id="leftLowerLipBottom1" cx="628.7" cy="264.4" r="0.8"/>
    <circle id="leftLowerLipBottom0" cx="635.6" cy="261.6" r="0.8"/>
    <circle id="leftEye4" cx="642.8" cy="216.6" r="0.8"/>
    <circle id="leftJaw7" cx="639.3" cy="287.9" r="0.8"/>
    <circle id="leftJaw6" cx="649.3" cy="281.2" r="0.8"/>
    <circle id="leftJaw5" cx="660.9" cy="268.6" r="0.8"/>
    <circle id="leftJaw4" cx="667.7" cy="248.6" r="0.8"/>
    <circle id="leftJaw3" cx="668.5" cy="227" r="0.8"/>
    <circle id="leftJaw2" cx="668.5" cy="217.4" r="0.8"/>
    <circle id="leftJaw1" cx="667.7" cy="205.7" r="0.8"/>
    <circle id="leftJaw0" cx="665.2" cy="196.5" r="0.8"/>
    <polyline class="st14" points="624.5,170 604.7,172.5 592.2,182 583.6,196.1 581.1,205.4 580.3,217.1 580.3,226.6 581.1,248.3 &#10;&#9;&#9;587.9,268.3 599.5,280.8 609.5,287.5 624.5,290.7 639.3,287.9 649.3,281.2 660.9,268.6 667.7,248.6 668.5,227 668.5,217.4 &#10;&#9;&#9;667.7,205.7 665.2,196.5 657,182 644.4,172.5 624.5,170 &#9;"/>
    <polyline class="st14" points="588.5,206.9 592.5,203.2 598.7,202.2 606,202.2 615.8,206.2 &#9;"/>
    <polygon class="st14" points="594.7,215.1 599.9,211.4 606.2,211.4 611.4,215.6 606.2,216.6 599.9,217.4 &#9;"/>
    <polyline class="st14" points="613,233.2 618.2,233.2 623.7,234 623.7,228.7 623.7,221.6 623.7,216.1 623.7,210.3 &#9;"/>
    <polyline class="st14" points="660,206.5 656,203.6 649.7,202.1 642.4,202.5 632.4,205.7 &#9;"/>
    <polygon class="st14" points="654.1,215.1 648.8,211.4 642.5,211.4 637.4,215.6 642.5,216.6 648.8,217.4 &#9;"/>
    <polyline class="st14" points="634.1,233.2 629.1,233.2 623.7,234 &#9;"/>
    <polygon class="st14" points="607,255.3 613.9,251.9 620.4,250.8 624.5,251.7 628.7,250.8 635.1,251.9 642,255.3 635.6,261.6 &#10;&#9;&#9;628.5,264.4 624.5,264.9 620.4,264.4 613.4,261.6 &#9;"/>
    <polyline class="st14" points="607,255.3 610.6,255.6 620.6,254.8 624.5,255.3 628.5,254.8 638.4,255.6 642,255.3 &#9;"/>
    <polyline class="st14" points="607,255.3 610.6,255.6 620.6,257.7 624.5,258.5 628.5,257.7 638.4,255.6 642,255.3 &#9;"/>
    <circle id="rightTop0" cx="604.8" cy="172.5" r="0.8"/>
    <circle id="rightTop1" cx="592.2" cy="182" r="0.8"/>
  </g>
</svg>