<?xml version="1.0" encoding="utf-8"?>
<svg version="1.1" id="Layer_1" x="0px" y="0px" width="1200px" height="1200px" viewBox="0 0 1200 1200" style="enable-background:new 0 0 1200 1200;" xmlns="http://www.w3.org/2000/svg">
  <style type="text/css">
	.st0{fill:#4B1F09;}
	.st1{fill:#ECF4E9;}
	.st2{fill:#60625D;}
	.st3{fill:#458761;}
	.st4{fill:#9E2323;}
	.st5{fill:#AB7440;}
	.st6{fill:#7E4B1D;}
	.st7{fill:#D68184;}
	.st8{fill:#D69655;}
	.st9{fill:#FAFCF9;}
	.st10{fill:#4966B1;}
	.st11{fill:#D8975B;}
	.st12{fill:#326842;}
	.st13{fill:#E5CA5A;}
	.st14{fill:none;stroke:#000000;stroke-miterlimit:10;}
</style>
  <g id="illustration_1_" transform="matrix(1.125001, 0, 0, 1.000952, -114.870811, -4.271644)" style="">
    <circle class="st0" cx="838" cy="344.4" r="20" style="fill: rgb(255, 166, 0);" transform="matrix(1.371503, 0, 0, 0.739182, -330.993774, 93.368607)"/>
    <path class="st1" d="M 661.045 332.79 C 650.971 317.284 740.803 339.108 802.16 332.124 C 800.69 339.96 798.102 351.713 797.683 361.766 C 751.857 362.431 672.063 349.747 661.045 332.79 Z" style="fill: rgb(255, 166, 0);"/>
    <circle class="st0" cx="416.1" cy="344.4" r="20" style="fill: rgb(255, 166, 0);" transform="matrix(1.267546, 0.002373, -0.001142, 0.681549, -28.675446, 113.382591)"/>
    <path class="st1" d="M 653.629 330.572 C 663.653 315.6 571.877 342.955 512.024 332.051 C 513.493 339.886 516.082 351.639 516.502 361.692 C 562.398 362.431 642.352 347.416 653.629 330.572 Z" style="fill: rgb(255, 166, 0);"/>
    <path class="st0" d="M 799.975 491.148 C 810.672 490.187 784.345 523.419 772.591 522.759 C 765.014 522.335 702.039 516.585 689.156 512.697 C 676.272 508.809 695.902 499.842 724.388 497.886 C 753.248 496.022 789.28 492.109 799.975 491.148 Z" style="fill: rgb(255, 166, 0);"/>
    <path class="st0" d="M 543.831 498.393 C 572.918 526.262 562.261 514.832 569.654 517.481 C 575.29 519.499 625.437 524.793 625.408 512.595 C 625.38 500.396 619.732 500.054 595.769 498.145 C 571.489 496.328 514.744 470.523 543.831 498.393 Z" style="fill: rgb(255, 166, 0);"/>
    <path class="st2" d="M 695.537 465.103 C 704.702 456.455 726.591 445.649 726.591 432.713 C 726.591 428.13 712.468 419.053 708.34 418.535 C 689.45 416.243 679.935 414.617 655.588 414.617 C 630.821 414.617 617.988 421.63 589.024 425.549 C 585.176 426.065 588.594 430.242 588.594 434.456 C 588.594 447.465 609.552 456.455 618.717 465.177 C 617.039 469.095 570.996 431.558 566.398 433.082 C 561.648 434.655 544.923 437.98 544.845 448.309 C 544.81 452.91 551.905 471.827 555.195 472.492 C 557.395 472.937 623.615 509.159 626.064 506.202 C 630.052 501.397 632.64 494.375 635.089 483.953 C 635.718 481.365 636.139 478.778 636.558 476.339 C 642.854 478.778 649.851 480.109 657.127 480.109 C 664.473 480.109 671.47 478.778 677.766 476.339 C 678.116 478.778 678.606 481.365 679.235 484.027 C 681.684 494.448 684.273 501.471 688.26 506.276 C 690.709 509.233 693.718 509.972 695.887 509.38 C 698.335 508.715 707.153 507.942 711.112 505.74 C 860.245 422.813 766.961 436.977 764.434 433.914 C 750.304 416.783 697.216 469.021 695.537 465.103 Z" style="fill: rgb(255, 166, 0);"/>
    <path class="st3" d="M625.3,312.1"/>
    <path class="st1" d="M 637.678 327.024 C 642.365 324.659 648.242 322.959 654.049 322.663 C 655.868 322.59 657.687 322.59 659.436 322.663 C 666.222 323.032 672.449 324.659 676.367 327.32 C 668.321 342.547 647.682 342.325 637.678 327.024 Z" style="fill: rgb(255, 166, 0);"/>
    <path class="st4" d="M 654.399 322.663 C 654.399 322.663 637.468 407.373 638.377 440.045 C 643.205 443.149 669.931 442.854 675.247 440.267 C 679.935 408.334 661.255 327.098 658.876 322.663 L 654.399 322.663 L 654.399 322.663 Z" style="fill: rgb(255, 166, 0);"/>
    <path class="st5" d="M 598.851 227.746 C 671.02 265.836 622.845 224.401 618.551 232.757 C 614.258 241.113 635.909 223.435 631.052 213.251 C 626.194 203.066 619.36 201.115 610.218 204.325 C 601.076 207.536 591.856 224.054 598.851 227.746 Z" style="fill: rgb(2, 173, 30);"/>
    <path class="st6" d="M 599.967 215.407 C 601.157 219.325 606.893 218.808 613.47 216.591 C 620.047 214.373 625.014 211.268 623.825 207.425 C 622.636 203.507 616.338 202.176 609.762 204.394 C 603.186 206.538 598.778 211.49 599.967 215.407 Z" style=""/>
    <path class="st7" d="M 602.976 221.765 C 604.515 226.939 609.832 226.569 615.919 224.499 C 622.006 222.43 626.554 219.547 625.014 214.373 C 623.475 209.198 617.249 206.612 611.162 208.682 C 605.005 210.677 601.367 216.517 602.976 221.765 Z" style="fill: rgb(0, 0, 0);"/>
    <path class="st5" d="M 709.303 226.73 C 703.335 243.51 696.42 239.596 690.393 232.176 C 684.367 224.756 674.048 229.665 676.293 220.816 C 678.538 211.967 689.259 200.354 697.536 204.353 C 705.812 208.351 715.272 209.951 709.303 226.73 Z" style="fill: rgb(2, 173, 30);"/>
    <path class="st8" d="M 727.777 276.565 C 757.351 293.433 692.067 324.068 655.474 324.068 C 618.881 324.068 547.23 290.155 584.226 273.641 C 621.221 257.127 600.237 217.733 655.474 217.733 C 711.894 217.808 698.203 259.697 727.777 276.565 Z" style="fill: rgb(255, 166, 0);"/>
    <path class="st0" d="M 654.554 294.787 C 490.654 281.393 644.62 302.028 654.834 302.028 C 665.258 301.953 820.88 293.722 654.554 294.787 Z" style=""/>
    <g style="" transform="matrix(0.699628, 0, 0, 0.739182, 218.600052, 93.368607)">
      <circle id="leftEye0_1_" cx="654.3" cy="215.1" r="0.8"/>
      <circle id="leftEye1_1_" cx="649.1" cy="211.4" r="0.8"/>
      <circle id="leftEye5_1_" cx="649.1" cy="217.4" r="0.8"/>
      <circle id="leftEye2_1_" cx="642.8" cy="211.4" r="0.8"/>
      <circle id="leftEye3_1_" cx="637.6" cy="215.6" r="0.8"/>
      <circle id="leftEye4_1_" cx="642.8" cy="216.6" r="0.8"/>
    </g>
    <g style="" transform="matrix(0.699628, 0, 0, 0.739182, 218.600052, 93.368607)">
      <circle id="rightEye0_1_" cx="594.7" cy="215.1" r="0.8"/>
      <circle id="rightEye1_1_" cx="599.9" cy="211.4" r="0.8"/>
      <circle id="rightEye5_1_" cx="599.9" cy="217.4" r="0.8"/>
      <circle id="rightEye2_1_" cx="606.2" cy="211.4" r="0.8"/>
      <circle id="rightEye3_1_" cx="611.4" cy="215.6" r="0.8"/>
      <circle id="rightEye4_1_" cx="606.2" cy="216.6" r="0.8"/>
    </g>
    <path class="st6" d="M 709.39 215.407 C 708.2 219.325 702.463 218.808 695.887 216.591 C 689.31 214.373 684.342 211.268 685.532 207.425 C 686.721 203.507 693.018 202.176 699.595 204.394 C 706.171 206.538 710.509 211.49 709.39 215.407 Z" style=""/>
    <path class="st7" d="M 707.324 221.521 C 705.785 226.695 700.469 226.326 694.382 224.256 C 688.295 222.186 683.748 219.304 685.287 214.129 C 686.826 208.955 693.052 206.368 699.139 208.438 C 705.226 210.433 708.934 216.273 707.324 221.521 Z" style="fill: rgb(0, 0, 0);"/>
    <path class="st3" d="M 683.433 330.425 C 681.264 329.241 679.026 328.207 676.717 327.394 C 676.647 327.394 676.507 327.32 676.437 327.32 C 676.437 327.32 676.437 327.394 676.367 327.394 C 668.321 342.621 647.682 342.325 637.678 327.024 C 635.718 327.763 633.899 328.576 632.15 329.538 C 599.198 347.204 585.305 406.435 587.265 434.967 C 614.83 449.603 700.202 445.769 726.649 435.79 C 730.566 393.066 713.027 346.908 683.433 330.425 Z" style="fill: rgb(255, 166, 0);"/>
    <path class="st12" d="M 632.36 329.389 C 637.747 353.931 676.437 355.334 683.433 330.425 L 676.367 327.394 C 667.552 341.438 647.332 341.512 637.678 327.024 L 632.36 329.389 Z" style="fill: rgb(255, 166, 0);"/>
    <path class="st13" d="M 634.46 328.65 C 643.275 350.456 670.7 351.122 680.634 328.946 L 678.465 328.133 C 669.301 346.686 645.234 345.578 635.928 327.615 L 634.46 328.65 Z" style="fill: rgb(255, 166, 0);"/>
    <ellipse style="fill: rgb(255, 255, 255);" cx="613.322" cy="217.183" rx="1.999" ry="8.132"/>
    <ellipse style="fill: rgb(216, 216, 216);" cx="697.149" cy="214.561" rx="0.16" ry="6.714"/>
    <ellipse style="fill: rgb(255, 255, 255);" cx="696.152" cy="216.397" rx="2.169" ry="8.247"/>
    <path style="fill: rgb(216, 216, 216); stroke: rgb(0, 0, 0);" d="M 384.13 318.982"/>
  </g>
  <g id="skeleton_1_">
    <circle id="rightShoulder" cx="572.3" cy="366.3" r="8.2"/>
    <circle id="rightElbow" cx="489.5" cy="343.4" r="8.2"/>
    <circle id="rightWrist" cx="393.8" cy="345.5" r="8.2"/>
    <circle id="rightHip" cx="581.1" cy="564.1" r="11.366"/>
    <circle id="rightKnee" cx="575.6" cy="725.2" r="8.2"/>
    <circle id="rightAnkle" cx="575.6" cy="933.2" r="8.2"/>
    <circle id="leftShoulder" cx="681.3" cy="366.4" r="8.2"/>
    <circle id="leftElbow" cx="765.3" cy="342.3" r="8.2"/>
    <circle id="leftWrist" cx="860.6" cy="344.5" r="8.2"/>
    <circle id="leftHip" cx="673.1" cy="563.3" r="8.2"/>
    <circle id="leftKnee" cx="685.6" cy="725.2" r="8.2"/>
    <circle id="leftAnkle" cx="685.6" cy="933.2" r="8.2"/>
    <polygon class="st14" points="572.2,366.6 581,564.4 673,563.6 681.2,366.7 &#9;"/>
    <polyline class="st14" points="571.2,366.6 489.2,343.6 393.6,345.6 &#9;"/>
    <polyline class="st14" points="682.7,366.3 765.5,342.5 860.7,344.8 &#9;"/>
    <polyline class="st14" points="581,564.4 575.5,725.5 575.5,933.5 &#9;"/>
    <polyline class="st14" points="673,563.6 685.5,725.5 685.5,933.5 &#9;"/>
    <circle id="rightEye0" cx="594.7" cy="215.1" r="0.8"/>
    <circle id="rightBrow1" cx="592.5" cy="203.2" r="0.8"/>
    <circle id="rightBrow4" cx="615.8" cy="206.2" r="0.8"/>
    <circle id="nose1" cx="623.7" cy="216.1" r="0.8"/>
    <circle id="rightBrow3" cx="606" cy="202.2" r="0.8"/>
    <circle id="rightEye1" cx="599.9" cy="211.4" r="0.8"/>
    <circle id="rightBrow0" cx="588.5" cy="206.9" r="0.8"/>
    <circle id="rightBrow2" cx="598.7" cy="202.2" r="0.8"/>
    <circle id="rightEye5" cx="599.9" cy="217.4" r="0.8"/>
    <circle id="rightEye2" cx="606.2" cy="211.4" r="0.8"/>
    <circle id="rightEye3" cx="611.4" cy="215.6" r="0.8"/>
    <circle id="nose0" cx="623.7" cy="210.3" r="0.8"/>
    <circle id="nose3" cx="623.7" cy="228.7" r="0.8"/>
    <circle id="rightNose0" cx="613" cy="233.2" r="0.8"/>
    <circle id="rightMouthCorner" cx="607" cy="255.3" r="0.8"/>
    <circle id="rightNose1" cx="618.2" cy="233.2" r="0.8"/>
    <circle id="rightUpperLipTop0" cx="613.9" cy="251.9" r="0.8"/>
    <circle id="nose2" cx="623.7" cy="221.6" r="0.8"/>
    <circle id="nose4" cx="623.7" cy="234" r="0.8"/>
    <circle id="upperLipTopMid" cx="624.5" cy="251.7" r="0.8"/>
    <circle id="rightUpperLipTop1" cx="620.4" cy="250.8" r="0.8"/>
    <path id="rightMiddleLip" d="M610.6,254.8c0.4,0,0.8,0.4,0.8,0.8c0,0.4-0.4,0.8-0.8,0.8s-0.8-0.4-0.8-0.8S610.2,254.8,610.6,254.8z "/>
    <circle id="lowerLipBottomMid" cx="624.5" cy="264.9" r="0.8"/>
    <circle id="upperLipBottomMid" cx="624.5" cy="255.3" r="0.8"/>
    <circle id="lowerLipTopMid" cx="624.5" cy="258.4" r="0.8"/>
    <circle id="rightUpperLipBottom1" cx="620.6" cy="254.8" r="0.8"/>
    <circle id="rightLowerLipTop0" cx="620.6" cy="257.7" r="0.8"/>
    <circle id="rightLowerLipBottom1" cx="620.4" cy="264.4" r="0.8"/>
    <circle id="rightLowerLipBottom0" cx="613.4" cy="261.6" r="0.8"/>
    <circle id="rightEye4" cx="606.2" cy="216.6" r="0.8"/>
    <circle id="jawMid" cx="624.5" cy="290.7" r="0.8"/>
    <circle id="rightJaw7" cx="609.5" cy="287.5" r="0.8"/>
    <circle id="rightJaw6" cx="599.5" cy="280.8" r="0.8"/>
    <circle id="rightJaw5" cx="587.9" cy="268.3" r="0.8"/>
    <circle id="rightJaw4" cx="581.1" cy="248.3" r="0.8"/>
    <circle id="rightJaw3" cx="580.3" cy="226.6" r="0.8"/>
    <circle id="rightJaw2" cx="580.3" cy="217.1" r="0.8"/>
    <circle id="rightJaw1" cx="581.1" cy="205.4" r="0.8"/>
    <circle id="rightJaw0" cx="583.6" cy="196.1" r="0.8"/>
    <circle id="topMid" cx="624.7" cy="170" r="0.8"/>
    <circle id="leftTop0" cx="644.4" cy="172.5" r="0.8"/>
    <circle id="leftTop1" cx="657" cy="182" r="0.8"/>
    <circle id="leftEye0" cx="654.3" cy="215.1" r="0.8"/>
    <circle id="leftBrow1" cx="656.2" cy="203.6" r="0.8"/>
    <circle id="leftBrow4" cx="632.6" cy="205.7" r="0.8"/>
    <circle id="leftBrow3" cx="642.6" cy="202.5" r="0.8"/>
    <circle id="leftEye1" cx="649.1" cy="211.4" r="0.8"/>
    <circle id="leftBrow0" cx="660.2" cy="206.5" r="0.8"/>
    <circle id="leftBrow2" cx="649.9" cy="202.1" r="0.8"/>
    <circle id="leftEye5" cx="649.1" cy="217.4" r="0.8"/>
    <circle id="leftEye2" cx="642.8" cy="211.4" r="0.8"/>
    <circle id="leftEye3" cx="637.6" cy="215.6" r="0.8"/>
    <circle id="leftNose0" cx="634.1" cy="233.2" r="0.8"/>
    <circle id="leftMouthCorner" cx="642" cy="255.3" r="0.8"/>
    <circle id="leftNose1" cx="629.3" cy="233.2" r="0.8"/>
    <circle id="leftUpperLipTop0" cx="635.1" cy="251.9" r="0.8"/>
    <circle id="leftUpperLipTop1" cx="628.7" cy="250.8" r="0.8"/>
    <path id="leftMiddleLip" d="M638.4,254.8c0.4,0,0.8,0.4,0.8,0.8c0,0.4-0.4,0.8-0.8,0.8s-0.8-0.4-0.8-0.8S638,254.8,638.4,254.8z"/>
    <circle id="leftUpperLipBottom1" cx="628.5" cy="254.8" r="0.8"/>
    <circle id="leftLowerLipTop0" cx="628.5" cy="257.7" r="0.8"/>
    <circle id="leftLowerLipBottom1" cx="628.7" cy="264.4" r="0.8"/>
    <circle id="leftLowerLipBottom0" cx="635.6" cy="261.6" r="0.8"/>
    <circle id="leftEye4" cx="642.8" cy="216.6" r="0.8"/>
    <circle id="leftJaw7" cx="639.3" cy="287.9" r="0.8"/>
    <circle id="leftJaw6" cx="649.3" cy="281.2" r="0.8"/>
    <circle id="leftJaw5" cx="660.9" cy="268.6" r="0.8"/>
    <circle id="leftJaw4" cx="667.7" cy="248.6" r="0.8"/>
    <circle id="leftJaw3" cx="668.5" cy="227" r="0.8"/>
    <circle id="leftJaw2" cx="668.5" cy="217.4" r="0.8"/>
    <circle id="leftJaw1" cx="667.7" cy="205.7" r="0.8"/>
    <circle id="leftJaw0" cx="665.2" cy="196.5" r="0.8"/>
    <polyline class="st14" points="624.5,170 604.7,172.5 592.2,182 583.6,196.1 581.1,205.4 580.3,217.1 580.3,226.6 581.1,248.3 &#10;&#9;&#9;587.9,268.3 599.5,280.8 609.5,287.5 624.5,290.7 639.3,287.9 649.3,281.2 660.9,268.6 667.7,248.6 668.5,227 668.5,217.4 &#10;&#9;&#9;667.7,205.7 665.2,196.5 657,182 644.4,172.5 624.5,170 &#9;"/>
    <polyline class="st14" points="588.5,206.9 592.5,203.2 598.7,202.2 606,202.2 615.8,206.2 &#9;"/>
    <polygon class="st14" points="594.7,215.1 599.9,211.4 606.2,211.4 611.4,215.6 606.2,216.6 599.9,217.4 &#9;"/>
    <polyline class="st14" points="613,233.2 618.2,233.2 623.7,234 623.7,228.7 623.7,221.6 623.7,216.1 623.7,210.3 &#9;"/>
    <polyline class="st14" points="660,206.5 656,203.6 649.7,202.1 642.4,202.5 632.4,205.7 &#9;"/>
    <polygon class="st14" points="654.1,215.1 648.8,211.4 642.5,211.4 637.4,215.6 642.5,216.6 648.8,217.4 &#9;"/>
    <polyline class="st14" points="634.1,233.2 629.1,233.2 623.7,234 &#9;"/>
    <polygon class="st14" points="607,255.3 613.9,251.9 620.4,250.8 624.5,251.7 628.7,250.8 635.1,251.9 642,255.3 635.6,261.6 &#10;&#9;&#9;628.5,264.4 624.5,264.9 620.4,264.4 613.4,261.6 &#9;"/>
    <polyline class="st14" points="607,255.3 610.6,255.6 620.6,254.8 624.5,255.3 628.5,254.8 638.4,255.6 642,255.3 &#9;"/>
    <polyline class="st14" points="607,255.3 610.6,255.6 620.6,257.7 624.5,258.5 628.5,257.7 638.4,255.6 642,255.3 &#9;"/>
    <circle id="rightTop0" cx="604.8" cy="172.5" r="0.8"/>
    <circle id="rightTop1" cx="592.2" cy="182" r="0.8"/>
    <path style="fill: rgb(216, 216, 216); stroke: rgb(0, 0, 0);" d="M 568.563 567.657"/>
  </g>
  <ellipse style="fill: rgb(118, 78, 4);" cx="545.406" cy="428.907" rx="7.648" ry="6.713"/>
  <circle style="fill: rgb(118, 78, 4);" cx="576.125" cy="322.159" r="3.667"/>
  <circle style="fill: rgb(118, 78, 4);" cx="554.031" cy="234.346" r="9.669"/>
  <circle style="fill: rgb(118, 78, 4);" cx="643.279" cy="316.103" r="4.303"/>
  <circle style="fill: rgb(118, 78, 4);" cx="690.152" cy="222.343" r="6.655"/>
  <circle style="fill: rgb(118, 78, 4);" cx="700.701" cy="445.799" r="5.929"/>
</svg>