<?xml version="1.0" encoding="utf-8"?>
<svg viewBox="0 0 500 500" xmlns="http://www.w3.org/2000/svg">
  <g id="illustration_1_" transform="matrix(0.676909, 0.0016, -0.001257, 0.531518, -241.868964, -11.20513)" style="">
    <circle style="fill: rgb(28, 167, 7);" cx="152.406" cy="11.141" r="84.374" transform="matrix(1.477299, 0, 0, 1.881393, 262.483551, 107.539268)"/>
    <circle style="fill: rgb(23, 182, 105);" cx="228.164" cy="47.683" r="63.072" transform="matrix(1.477299, 0, 0, 1.881393, 262.483551, 107.539268)"/>
    <circle style="fill: rgb(22, 220, 101);" cx="260.25" cy="69.073" r="52.953" transform="matrix(1.477299, 0, 0, 1.881393, 262.483551, 107.539268)"/>
    <circle style="fill: rgb(34, 214, 49);" cx="189.84" cy="90.463" r="59.582" transform="matrix(1.477299, 0, 0, 1.881393, 262.483551, 107.539268)"/>
    <circle style="fill: rgb(25, 103, 22);" cx="283.422" cy="87.79" r="45.393" transform="matrix(1.477299, 0, 0, 1.881393, 262.483551, 107.539268)"/>
    <circle style="fill: rgb(34, 114, 31);" cx="320.856" cy="64.617" r="34.125" transform="matrix(1.477299, 0, 0, 1.881393, 262.483551, 107.539268)"/>
    <circle style="fill: rgb(79, 158, 11);" cx="283.422" cy="19.162" r="32.443" transform="matrix(1.477299, 0, 0, 1.881393, 262.483551, 107.539268)"/>
    <circle style="fill: rgb(55, 199, 98);" cx="306.595" cy="31.64" r="35.494" transform="matrix(1.477299, 0, 0, 1.881393, 262.483551, 107.539268)"/>
    <circle style="fill: rgb(38, 176, 50);" cx="338.681" cy="77.986" r="31.397" transform="matrix(1.477299, 0, 0, 1.881393, 262.483551, 107.539268)"/>
    <circle style="fill: rgb(50, 205, 26);" cx="319.964" cy="113.636" r="31.612" transform="matrix(1.477299, 0, 0, 1.881393, 262.483551, 107.539268)"/>
    <circle style="fill: rgb(36, 214, 68);" cx="364.528" cy="110.071" r="40.057" transform="matrix(1.477299, 0, 0, 1.881393, 262.483551, 107.539268)"/>
    <circle style="fill: rgb(74, 202, 54);" cx="252.228" cy="132.353" r="37.824" transform="matrix(1.477299, 0, 0, 1.881393, 262.483551, 107.539268)"/>
    <circle style="fill: rgb(71, 161, 40);" cx="91.8" cy="114.528" r="33.408" transform="matrix(1.477299, 0, 0, 1.881393, 262.483551, 107.539268)"/>
    <circle style="fill: rgb(106, 208, 50);" cx="122.995" cy="108.289" r="35.928" transform="matrix(1.477299, 0, 0, 1.881393, 262.483551, 107.539268)"/>
    <circle style="fill: rgb(38, 191, 3);" cx="288.77" cy="127.005" r="28.311" transform="matrix(1.477299, 0, 0, 1.881393, 262.483551, 107.539268)"/>
    <circle style="fill: rgb(54, 208, 59);" cx="395.722" cy="118.093" r="35.483" transform="matrix(1.477299, 0, 0, 1.881393, 262.483551, 107.539268)"/>
    <circle style="fill: rgb(36, 214, 59);" cx="192.513" cy="137.701" r="34.403" transform="matrix(1.477299, 0, 0, 1.881393, 262.483551, 107.539268)"/>
    <circle style="fill: rgb(25, 199, 39);" cx="347.594" cy="41.444" r="18.907" transform="matrix(1.477299, 0, 0, 1.881393, 262.483551, 107.539268)"/>
    <circle style="fill: rgb(83, 185, 49);" cx="311.052" cy="137.701" r="21.759" transform="matrix(1.477299, 0, 0, 1.881393, 262.483551, 107.539268)"/>
    <rect x="562.684" y="426.973" width="143.517" height="318.595" style="fill: rgb(216, 216, 216);"/>
    <rect x="557.417" y="420.266" width="159.316" height="320.273" style="fill: rgb(211, 144, 35);"/>
    <circle style="fill: rgb(194, 23, 23);" cx="158.645" cy="134.135" r="21.557" transform="matrix(1.477299, 0, 0, 1.881393, 262.483551, 107.539268)"/>
    <circle style="fill: rgb(197, 28, 28);" cx="327.094" cy="133.244" r="15.943" transform="matrix(1.477299, 0, 0, 1.881393, 262.483551, 107.539268)"/>
    <circle style="fill: rgb(179, 31, 31);" cx="265.597" cy="86.898" r="15.334" transform="matrix(1.477299, 0, 0, 1.881393, 262.483551, 107.539268)"/>
    <circle style="fill: rgb(229, 40, 40);" cx="336.007" cy="45.009" r="11.344" transform="matrix(1.477299, 0, 0, 1.881393, 262.483551, 107.539268)"/>
    <circle style="fill: rgb(229, 55, 55);" cx="192.513" cy="26.292" r="13.369" transform="matrix(1.477299, 0, 0, 1.881393, 262.483551, 107.539268)"/>
    <circle style="fill: rgb(226, 41, 41);" cx="204.991" cy="84.225" r="12.854" transform="matrix(1.477299, 0, 0, 1.881393, 262.483551, 107.539268)"/>
    <circle style="fill: rgb(211, 51, 51);" cx="109.626" cy="33.422" r="8.823" transform="matrix(1.477299, 0, 0, 1.881393, 262.483551, 107.539268)"/>
    <circle style="fill: rgb(193, 29, 29);" cx="383.244" cy="90.463" r="13.865" transform="matrix(1.477299, 0, 0, 1.881393, 262.483551, 107.539268)"/>
    <circle style="fill: rgb(214, 166, 34);" cx="256.685" cy="12.923" r="12.604" transform="matrix(1.477299, 0, 0, 1.881393, 262.483551, 107.539268)"/>
    <circle style="fill: rgb(205, 41, 41);" cx="128.342" cy="95.811" r="12.414" transform="matrix(1.477299, 0, 0, 1.881393, 262.483551, 107.539268)"/>
    <circle style="fill: rgb(39, 167, 10);" cx="284.314" cy="152.852" r="31.612" transform="matrix(1.477299, 0, 0, 1.881393, 262.483551, 107.539268)"/>
    <circle style="fill: rgb(32, 161, 49);" cx="207.665" cy="155.526" r="24.081" transform="matrix(1.477299, 0, 0, 1.881393, 262.483551, 107.539268)"/>
    <circle style="fill: rgb(31, 188, 70);" cx="226.381" cy="159.982" r="15.125" transform="matrix(1.477299, 0, 0, 1.881393, 262.483551, 107.539268)"/>
    <rect x="591.649" y="364.931" width="17.116" height="23.476" style="fill: rgb(45, 51, 226);"/>
    <rect x="606.133" y="190.543" width="11.849" height="15.091" style="fill: rgb(78, 163, 202);"/>
    <rect x="795.734" y="306.243" width="9.217" height="20.121" style="fill: rgb(22, 73, 190);"/>
    <rect x="485" y="225.755" width="15.8" height="20.121" style="fill: rgb(185, 18, 132);"/>
    <rect x="467.883" y="120.115" width="9.217" height="13.414" style="fill: rgb(205, 197, 32);"/>
    <rect x="711.467" y="145.267" width="15.8" height="16.769" style="fill: rgb(167, 159, 17);"/>
    <rect x="553.467" y="307.919" width="11.849" height="16.769" style="fill: rgb(210, 231, 15);"/>
    <rect x="853.666" y="331.395" width="7.901" height="13.414" style="fill: rgb(237, 228, 42);"/>
    <rect x="589.017" y="106.7" width="11.849" height="11.738" style="fill: rgb(246, 246, 16);"/>
    <rect x="382.3" y="324.688" width="15.8" height="18.445" style="fill: rgb(215, 237, 10);"/>
    <rect x="556.1" y="210.664" width="9.217" height="13.414" style="fill: rgb(193, 243, 12);"/>
    <path d="M 577.864078814725 371.7980855490001 C 573.5569955927781 360.8922213657047 570.0974615415405 361.95376577684954 564.3320922851562 354.6458435058594 C 560.5830009943722 349.8936643267796 557.0588834002544 345.4269306119319 554.6663208007812 342.39422607421875 C 551.0827945345043 337.85190965953205 559.714489360864 341.9098570135623 552.7286376953125 337.4877624511719 C 551.6422668727466 336.8000818737417 549.9578307835034 338.18707022586767 548.8714599609375 337.4993896484375 C 541.8856427902589 333.07731692155085 550.5173398212632 337.13528895873196 546.9337768554688 332.5929260253906 C 545.1643635622099 330.3500974679529 544.5672520419691 331.59624386179917 541.1434326171875 330.15423583984375 C 538.9670662559034 329.2376168940635 536.2499566546563 321.50121975019397 535.3394775390625 320.3471374511719 C 534.543125298394 319.33771723603303 532.667225794103 320.8577897004668 531.4822998046875 320.3587341308594 C 527.6045780812016 318.7255531214295 518.9479127222581 319.78405310918805 516.049072265625 317.9490661621094 C 514.2909769084156 316.83617910245175 513.9408306405065 314.16132473490086 512.1827392578125 313.0484313964844 C 509.9151952115874 311.6130482938479 505.0289352459522 314.12578527308534 502.53985595703125 313.07745361328125 C 494.0132090637486 309.48626472268006 485.183154220654 305.7612485801357 477.4545593261719 305.7845458984375 C 466.52591973406385 305.8174895316152 455.59727972882683 305.85029611291606 444.66864013671875 305.88323974609375 C 442.67598648837406 305.88924646360766 434.3360508395055 304.860799319875 433.0971374511719 305.9180603027344 C 431.7585200981812 307.0604064195999 432.2613011507707 309.4495414206289 431.17767333984375 310.83612060546875 C 430.7599554766683 311.37062044791867 423.60782877221465 310.7975270618025 423.4633483886719 310.8593444824219 C 419.3403782050645 312.6233997527052 414.03039661340364 315.5436434530931 411.905517578125 318.2625732421875 C 411.1288333236126 319.2563945003644 403.23628881912674 317.87499427486927 402.2626037597656 318.2915954589844 C 399.04048800143016 319.67021088229103 396.0245915764332 327.20534594368905 394.5664978027344 328.1393127441406 C 391.8204272261587 329.89827968884714 388.0241749751668 331.1004148711903 384.9327087402344 333.0805969238281 C 377.7812215790937 337.6613509900197 364.90889099386726 329.15898880260846 359.8656921386719 335.6122131347656 C 359.7188774289915 335.80007569661007 354.0799255371094 335.6296081542969 354.0799255371094 335.6296081542969 C 354.0799255371094 335.6296081542969 357.1407432819338 334.6085973727703 357.9371032714844 335.6180114746094 C 361.5207056487184 340.16035265501625 352.88898724172554 336.1023483240821 359.8747863769531 340.5244445800781 C 360.9611547176916 341.21212902093 362.93559637303616 339.5034399118367 363.7319641113281 340.5128479003906 C 365.2673018037569 342.4589113298177 364.72371401912676 347.88994344820566 367.6073913574219 350.32574462890625 C 368.58960426158546 351.1554058811861 370.3781788027571 349.6264384152458 371.46453857421875 350.3141174316406 C 372.59338826112406 351.0286930839627 374.8815527014831 356.1569963587299 377.26397705078125 357.66510009765625 C 378.35034541739526 358.3527845548876 380.32479477663765 356.64405877450895 381.12115478515625 357.6534729003906 C 382.7162161519561 359.67526889475624 383.7408864921545 363.4244433007243 384.99200439453125 365.01025390625 C 387.3964778291169 368.05795985468797 392.66591766073174 367.38615073291203 394.64404296875 369.89349365234375 C 395.52032354191624 371.00420988536393 403.41522865852943 371.2098389932751 404.2915344238281 372.3205871582031 C 405.2393789079718 373.5220131479555 407.0592937817329 376.5258500090588 408.1578063964844 377.2212219238281 C 409.9901754682786 378.38113394751105 414.0398112696821 376.0380977188791 415.8721618652344 377.197998046875 C 419.3507279040908 379.3999728759381 422.0324792468382 379.87095305769634 425.5242004394531 382.08123779296875 C 431.9373448948076 386.1408045546985 446.11122927293957 377.9403532260296 452.52435302734375 381.99993896484375 C 457.18160865187343 384.94803871145615 451.9799282035417 384.45772858486305 456.3861083984375 384.4444580078125 C 471.8147785537707 384.3979897865806 487.2434489854752 384.3516134849032 502.672119140625 384.3051452636719 C 509.7165722640402 384.2839287101452 516.4549576589447 385.3129048729754 521.953369140625 381.79095458984375 C 524.6936532343931 380.0356941165118 530.7846240025096 383.5113908218132 533.52490234375 381.7561340332031 C 536.9523684665462 379.5607062588676 537.571329239291 379.04034493350474 539.301513671875 376.8264465332031 C 540.5249768812015 375.26093525536174 547.720994798486 378.36293559424763 548.9444580078125 376.79742431640625 C 549.448594157411 376.1523449860695 548.4357481011431 374.9863909560527 548.9398803710938 374.34130859375 C 549.4609093482474 373.6746053822233 555.6523509586843 374.32110482993477 556.6542358398438 374.3180847167969 C 559.6578580762077 374.3090305039349 567.9252212840468 372.86641435327465 570.154296875 374.2774353027344 C 577.1401140456788 378.69950802962126 568.508417014674 374.64153599243963 572.0919799804688 379.18389892578125 C 572.4901561197958 379.68860905742497 574.0193866850738 378.5352052634394 574.0205688476562 379.1780700683594" style="stroke: rgb(0, 0, 0); fill: rgb(214, 166, 34);"/>
    <rect x="198.645" y="720.874" width="160.073" height="211.228" style="fill: rgb(28, 211, 83);" transform="matrix(0.999995, -0.00301, 0.001857, 0.999999, 357.351013, 20.005659)"/>
    <circle style="fill: rgb(72, 170, 97);" cx="207.572" cy="167.755" r="24.072" transform="matrix(1.477295, -0.004447, 0.003494, 1.881393, 357.351013, 20.005659)"/>
    <circle style="fill: rgb(98, 176, 45);" cx="225.849" cy="178.198" r="18.554" transform="matrix(1.477295, -0.004447, 0.003494, 1.881393, 357.351013, 20.005659)"/>
    <rect x="198.645" y="720.874" width="1.928" height="2.455" style="fill: rgb(216, 216, 216);" transform="matrix(0.999995, -0.00301, 0.001857, 0.999999, 357.351013, 20.005659)"/>
    <path d="M 674.2750326809041 361.68330108099553 C 674.9209391276041 363.3187764485677 675.1236339376392 365.20924062894784 676.2127685546875 366.5897521972656 C 676.719862341902 367.2325091425631 675.9105306185387 364.8963152706322 676.2081909179688 364.1336364746094 C 676.8480021158854 362.49428304036456 677.0440084831009 360.602159870709 678.1276245117188 359.215576171875 C 681.5046865680977 354.89432300316867 686.9240654568379 345.49787531622934 689.667236328125 341.98785400390625 C 690.3600441158604 341.101372550728 694.4638199772722 342.6040002225938 695.4529418945312 341.9704284667969 C 700.8771731372693 338.4959935641375 705.8126129896117 333.6384181369524 708.9302368164062 329.6491394042969 C 711.1991574727663 326.74585234230193 722.6925798542152 329.27295895115384 724.3543701171875 327.1465759277344 C 724.858506266786 326.50149659739765 723.8456602105181 325.3355425673808 724.3497924804688 324.6904602050781 C 725.0838956170219 323.751109535168 729.4014718296136 325.6123533690288 730.1355590820312 324.67303466796875 C 731.5429453785939 322.8721802550591 730.6476063792186 321.5558287781441 732.0549926757812 319.7549743652344 C 732.5760029135214 319.0883033964342 738.7674816847784 319.73476261922866 739.7693481445312 319.73175048828125 C 739.791671689445 319.7316833721104 752.4921387226011 317.7299647959568 753.264892578125 317.2349853515625 C 759.7128490070686 313.10481392910674 770.009572691784 314.7284867697441 778.3319091796875 314.7033996582031 C 800.1164843260125 314.6377315531747 826.7256403807017 312.21828701393804 841.9888916015625 321.88018798828125 C 843.6577112864315 322.93657959881847 853.406843736176 323.6379925412237 855.4935302734375 324.2956848144531 C 857.3329071268486 324.87542878770614 860.5708354516734 322.48449809663225 861.2792358398438 324.27825927734375 C 861.8806903214488 325.80121962446407 860.6869170063691 327.6675686437764 861.2883911132812 329.1905212402344 C 861.5285839978658 329.79869767380796 869.4346228019016 329.1660106482831 870.9312744140625 329.1614990234375 C 877.1693004758041 329.1426946249129 881.5865332282241 328.5465918393497 886.3645629882812 331.5711669921875 C 889.5711200708868 333.60097286725363 896.658060717624 329.50073984486437 899.8646240234375 331.530517578125 C 901.6565476920043 332.66481820321025 898.1020684696648 336.34809128411115 897.9451904296875 336.4485778808594 C 894.2678574901968 338.8040552456511 890.5003123384486 343.67632588947436 886.3919067382812 346.30792236328125 C 885.3092369803383 347.001415215395 883.6174026570429 345.62606278958367 882.5347290039062 346.3195495605469 C 879.9713023982964 347.9615055037577 881.2501239259998 349.6014378616852 878.6867065429688 351.243408203125 C 877.6040368108131 351.9369010387209 875.6212503836138 350.24194861112943 874.8295288085938 351.2550048828125 C 873.9545473965374 352.3745972181198 871.6407786416576 358.21561281724274 870.9860229492188 358.635009765625 C 868.2398963277091 360.394012609331 864.4437327001154 361.59606653646523 861.3522338867188 363.5762939453125 C 860.2695641545631 364.2697867809084 858.2867668848723 362.57482587980957 857.4950561523438 363.587890625 C 856.1428375173568 365.3181754002482 854.911460663554 367.15141340184186 851.7184448242188 368.517578125 C 849.9453276960425 369.27622455596986 847.5566828466657 367.4947643922049 845.9326782226562 368.5350036621094 C 842.5119747491021 370.7260996918143 843.7613309176908 371.3134063700091 842.0846557617188 373.4588623046875 C 841.0633504402456 374.7657138765431 835.8916911250517 372.5075871602064 834.3703002929688 373.4820861816406 C 830.2222153464302 376.1390659898423 830.4298173247354 375.95007078259414 824.73193359375 375.96722412109375 C 806.0889689199219 376.02334830663074 787.4460044437698 376.07953827704165 768.8030395507812 376.1355895996094 C 756.8372420613791 376.17156557117335 742.1852092810295 378.01404090328447 732.1553344726562 373.7897644042969 C 726.0400335007441 371.2141866754185 714.5352505726507 377.35554047388797 709.0123291015625 373.85943603515625 C 708.3205713019328 373.42154143055734 709.5149002882587 372.0460819425654 709.0078125 371.4033203125 C 708.0517068053048 370.1914038178286 702.6644592829538 372.29439851739147 701.29345703125 371.4265441894531 C 696.8489014029109 368.61310837414106 693.607832681369 368.9935523838335 687.788818359375 369.01104736328125 C 686.2268836349592 369.01574335033166 677.0306145978218 370.07680766990103 676.21728515625 369.0458679199219 C 675.7101973679913 368.40310628985645 677.0314714796657 366.5872907510389 676.2127685546875 366.5897521972656" style="stroke: rgb(0, 0, 0); fill: rgb(214, 166, 34);"/>
    <circle style="fill: rgb(83, 232, 69);" cx="134.465" cy="175.587" r="25.715" transform="matrix(1.477295, -0.004447, 0.003494, 1.881393, 357.351013, 20.005659)"/>
    <rect x="198.645" y="715.961" width="163.93" height="213.683" style="fill: rgb(199, 154, 30);" transform="matrix(0.999995, -0.00301, 0.001857, 0.999999, 357.351013, 20.005659)"/>
    <ellipse style="fill: rgb(235, 223, 223);" cx="164.491" cy="137.728" rx="17.357" ry="41.754" transform="matrix(0.999995, -0.00301, 0.001857, 0.999999, 436.087958, 141.162001)"/>
    <ellipse style="fill: rgb(216, 216, 216);" cx="222.585" cy="139.687" rx="16.394" ry="40.525" transform="matrix(0.999995, -0.00301, 0.001857, 0.999999, 463.819424, 142.805184)"/>
    <circle style="fill: rgb(32, 4, 4);" cx="156.658" cy="144.256" r="12.036" transform="matrix(1.477295, -0.004447, 0.003494, 1.881393, 357.351013, 20.005659)"/>
    <circle style="fill: rgb(26, 21, 25);" cx="210.183" cy="145.561" r="13.63" transform="matrix(1.477295, -0.004447, 0.003494, 1.881393, 357.351013, 20.005659)"/>
    <path d="M 608.742 381.447 C 617.66 378.606 629.324 382.534 637.67 378.989 C 646.806 375.112 650.032 368.16 655.027 361.797 C 655.435 361.278 668.373 356.785 668.528 356.885 C 668.552 356.9 667.528 390.088 666.599 391.271 C 662.584 396.385 656.234 402.784 651.17 406.008 C 637.425 414.761 611.574 394.878 604.885 386.359 C 603.922 385.132 604.885 376.002 604.885 374.077" style="stroke: rgb(0, 0, 0); fill: rgb(26, 21, 25);" transform="matrix(0.999997, -0.00301, 0.001856, 0.999997, -0.708202, 1.917062)"/>
  </g>
  <g id="skeleton_1_" transform="matrix(0.676911, 0, 0, 0.531521, -242.319633, -10.206745)" style="">
    <circle id="rightShoulder" cx="572.3" cy="366.3" r="8.2"/>
    <circle id="rightElbow" cx="489.5" cy="343.4" r="8.2"/>
    <circle id="rightWrist" cx="393.8" cy="345.5" r="8.2"/>
    <circle id="rightHip" cx="581.1" cy="564.1" r="8.2"/>
    <circle id="rightKnee" cx="575.6" cy="725.2" r="8.2"/>
    <circle id="rightAnkle" cx="575.6" cy="933.2" r="8.2"/>
    <circle id="leftShoulder" cx="681.3" cy="366.4" r="8.2"/>
    <circle id="leftElbow" cx="765.3" cy="342.3" r="8.2"/>
    <circle id="leftWrist" cx="860.6" cy="344.5" r="8.2"/>
    <circle id="leftHip" cx="673.1" cy="563.3" r="8.2"/>
    <circle id="leftKnee" cx="685.6" cy="725.2" r="8.2"/>
    <circle id="leftAnkle" cx="685.6" cy="933.2" r="8.2"/>
    <polygon class="st14" points="572.2,366.6 581,564.4 673,563.6 681.2,366.7 &#9;" style="fill: none; stroke: rgb(0, 0, 0); stroke-miterlimit: 10;"/>
    <polyline class="st14" points="571.2,366.6 489.2,343.6 393.6,345.6 &#9;" style="fill: none; stroke: rgb(0, 0, 0); stroke-miterlimit: 10;"/>
    <polyline class="st14" points="682.7,366.3 765.5,342.5 860.7,344.8 &#9;" style="fill: none; stroke: rgb(0, 0, 0); stroke-miterlimit: 10;"/>
    <polyline class="st14" points="581,564.4 575.5,725.5 575.5,933.5 &#9;" style="fill: none; stroke: rgb(0, 0, 0); stroke-miterlimit: 10;"/>
    <polyline class="st14" points="673,563.6 685.5,725.5 685.5,933.5 &#9;" style="fill: none; stroke: rgb(0, 0, 0); stroke-miterlimit: 10;"/>
    <circle id="rightEye0" cx="594.7" cy="215.1" r="0.8"/>
    <circle id="rightBrow1" cx="592.5" cy="203.2" r="0.8"/>
    <circle id="rightBrow4" cx="615.8" cy="206.2" r="0.8"/>
    <circle id="nose1" cx="623.7" cy="216.1" r="0.8"/>
    <circle id="rightBrow3" cx="606" cy="202.2" r="0.8"/>
    <circle id="rightEye1" cx="599.9" cy="211.4" r="0.8"/>
    <circle id="rightBrow0" cx="588.5" cy="206.9" r="0.8"/>
    <circle id="rightBrow2" cx="598.7" cy="202.2" r="0.8"/>
    <circle id="rightEye5" cx="599.9" cy="217.4" r="0.8"/>
    <circle id="rightEye2" cx="606.2" cy="211.4" r="0.8"/>
    <circle id="rightEye3" cx="611.4" cy="215.6" r="0.8"/>
    <circle id="nose0" cx="623.7" cy="210.3" r="0.8"/>
    <circle id="nose3" cx="623.7" cy="228.7" r="0.8"/>
    <circle id="rightNose0" cx="613" cy="233.2" r="0.8"/>
    <circle id="rightMouthCorner" cx="607" cy="255.3" r="0.8"/>
    <circle id="rightNose1" cx="618.2" cy="233.2" r="0.8"/>
    <circle id="rightUpperLipTop0" cx="613.9" cy="251.9" r="0.8"/>
    <circle id="nose2" cx="623.7" cy="221.6" r="0.8"/>
    <circle id="nose4" cx="623.7" cy="234" r="0.8"/>
    <circle id="upperLipTopMid" cx="624.5" cy="251.7" r="0.8"/>
    <circle id="rightUpperLipTop1" cx="620.4" cy="250.8" r="0.8"/>
    <path id="rightMiddleLip" d="M610.6,254.8c0.4,0,0.8,0.4,0.8,0.8c0,0.4-0.4,0.8-0.8,0.8s-0.8-0.4-0.8-0.8S610.2,254.8,610.6,254.8z "/>
    <circle id="lowerLipBottomMid" cx="624.5" cy="264.9" r="0.8"/>
    <circle id="upperLipBottomMid" cx="624.5" cy="255.3" r="0.8"/>
    <circle id="lowerLipTopMid" cx="624.5" cy="258.4" r="0.8"/>
    <circle id="rightUpperLipBottom1" cx="620.6" cy="254.8" r="0.8"/>
    <circle id="rightLowerLipTop0" cx="620.6" cy="257.7" r="0.8"/>
    <circle id="rightLowerLipBottom1" cx="620.4" cy="264.4" r="0.8"/>
    <circle id="rightLowerLipBottom0" cx="613.4" cy="261.6" r="0.8"/>
    <circle id="rightEye4" cx="606.2" cy="216.6" r="0.8"/>
    <circle id="jawMid" cx="624.5" cy="290.7" r="0.8"/>
    <circle id="rightJaw7" cx="609.5" cy="287.5" r="0.8"/>
    <circle id="rightJaw6" cx="599.5" cy="280.8" r="0.8"/>
    <circle id="rightJaw5" cx="587.9" cy="268.3" r="0.8"/>
    <circle id="rightJaw4" cx="581.1" cy="248.3" r="0.8"/>
    <circle id="rightJaw3" cx="580.3" cy="226.6" r="0.8"/>
    <circle id="rightJaw2" cx="580.3" cy="217.1" r="0.8"/>
    <circle id="rightJaw1" cx="581.1" cy="205.4" r="0.8"/>
    <circle id="rightJaw0" cx="583.6" cy="196.1" r="0.8"/>
    <circle id="topMid" cx="624.7" cy="170" r="0.8"/>
    <circle id="leftTop0" cx="644.4" cy="172.5" r="0.8"/>
    <circle id="leftTop1" cx="657" cy="182" r="0.8"/>
    <circle id="leftEye0" cx="654.3" cy="215.1" r="0.8"/>
    <circle id="leftBrow1" cx="656.2" cy="203.6" r="0.8"/>
    <circle id="leftBrow4" cx="632.6" cy="205.7" r="0.8"/>
    <circle id="leftBrow3" cx="642.6" cy="202.5" r="0.8"/>
    <circle id="leftEye1" cx="649.1" cy="211.4" r="0.8"/>
    <circle id="leftBrow0" cx="660.2" cy="206.5" r="0.8"/>
    <circle id="leftBrow2" cx="649.9" cy="202.1" r="0.8"/>
    <circle id="leftEye5" cx="649.1" cy="217.4" r="0.8"/>
    <circle id="leftEye2" cx="642.8" cy="211.4" r="0.8"/>
    <circle id="leftEye3" cx="637.6" cy="215.6" r="0.8"/>
    <circle id="leftNose0" cx="634.1" cy="233.2" r="0.8"/>
    <circle id="leftMouthCorner" cx="642" cy="255.3" r="0.8"/>
    <circle id="leftNose1" cx="629.3" cy="233.2" r="0.8"/>
    <circle id="leftUpperLipTop0" cx="635.1" cy="251.9" r="0.8"/>
    <circle id="leftUpperLipTop1" cx="628.7" cy="250.8" r="0.8"/>
    <path id="leftMiddleLip" d="M638.4,254.8c0.4,0,0.8,0.4,0.8,0.8c0,0.4-0.4,0.8-0.8,0.8s-0.8-0.4-0.8-0.8S638,254.8,638.4,254.8z"/>
    <circle id="leftUpperLipBottom1" cx="628.5" cy="254.8" r="0.8"/>
    <circle id="leftLowerLipTop0" cx="628.5" cy="257.7" r="0.8"/>
    <circle id="leftLowerLipBottom1" cx="628.7" cy="264.4" r="0.8"/>
    <circle id="leftLowerLipBottom0" cx="635.6" cy="261.6" r="0.8"/>
    <circle id="leftEye4" cx="642.8" cy="216.6" r="0.8"/>
    <circle id="leftJaw7" cx="639.3" cy="287.9" r="0.8"/>
    <circle id="leftJaw6" cx="649.3" cy="281.2" r="0.8"/>
    <circle id="leftJaw5" cx="660.9" cy="268.6" r="0.8"/>
    <circle id="leftJaw4" cx="667.7" cy="248.6" r="0.8"/>
    <circle id="leftJaw3" cx="668.5" cy="227" r="0.8"/>
    <circle id="leftJaw2" cx="668.5" cy="217.4" r="0.8"/>
    <circle id="leftJaw1" cx="667.7" cy="205.7" r="0.8"/>
    <circle id="leftJaw0" cx="665.2" cy="196.5" r="0.8"/>
    <polyline class="st14" points="624.5,170 604.7,172.5 592.2,182 583.6,196.1 581.1,205.4 580.3,217.1 580.3,226.6 581.1,248.3 &#10;&#9;&#9;587.9,268.3 599.5,280.8 609.5,287.5 624.5,290.7 639.3,287.9 649.3,281.2 660.9,268.6 667.7,248.6 668.5,227 668.5,217.4 &#10;&#9;&#9;667.7,205.7 665.2,196.5 657,182 644.4,172.5 624.5,170 &#9;" style="fill: none; stroke: rgb(0, 0, 0); stroke-miterlimit: 10;"/>
    <polyline class="st14" points="588.5,206.9 592.5,203.2 598.7,202.2 606,202.2 615.8,206.2 &#9;" style="fill: none; stroke: rgb(0, 0, 0); stroke-miterlimit: 10;"/>
    <polygon class="st14" points="594.7,215.1 599.9,211.4 606.2,211.4 611.4,215.6 606.2,216.6 599.9,217.4 &#9;" style="fill: none; stroke: rgb(0, 0, 0); stroke-miterlimit: 10;"/>
    <polyline class="st14" points="613,233.2 618.2,233.2 623.7,234 623.7,228.7 623.7,221.6 623.7,216.1 623.7,210.3 &#9;" style="fill: none; stroke: rgb(0, 0, 0); stroke-miterlimit: 10;"/>
    <polyline class="st14" points="660,206.5 656,203.6 649.7,202.1 642.4,202.5 632.4,205.7 &#9;" style="fill: none; stroke: rgb(0, 0, 0); stroke-miterlimit: 10;"/>
    <polygon class="st14" points="654.1,215.1 648.8,211.4 642.5,211.4 637.4,215.6 642.5,216.6 648.8,217.4 &#9;" style="fill: none; stroke: rgb(0, 0, 0); stroke-miterlimit: 10;"/>
    <polyline class="st14" points="634.1,233.2 629.1,233.2 623.7,234 &#9;" style="fill: none; stroke: rgb(0, 0, 0); stroke-miterlimit: 10;"/>
    <polygon class="st14" points="607,255.3 613.9,251.9 620.4,250.8 624.5,251.7 628.7,250.8 635.1,251.9 642,255.3 635.6,261.6 &#10;&#9;&#9;628.5,264.4 624.5,264.9 620.4,264.4 613.4,261.6 &#9;" style="fill: none; stroke: rgb(0, 0, 0); stroke-miterlimit: 10;"/>
    <polyline class="st14" points="607,255.3 610.6,255.6 620.6,254.8 624.5,255.3 628.5,254.8 638.4,255.6 642,255.3 &#9;" style="fill: none; stroke: rgb(0, 0, 0); stroke-miterlimit: 10;"/>
    <polyline class="st14" points="607,255.3 610.6,255.6 620.6,257.7 624.5,258.5 628.5,257.7 638.4,255.6 642,255.3 &#9;" style="fill: none; stroke: rgb(0, 0, 0); stroke-miterlimit: 10;"/>
    <circle id="rightTop0" cx="604.8" cy="172.5" r="0.8"/>
    <circle id="rightTop1" cx="592.2" cy="182" r="0.8"/>
  </g>
</svg>